<svg viewBox="-14 0 511 511.994" xmlns="http://www.w3.org/2000/svg" xmlns:xlink="http://www.w3.org/1999/xlink"><linearGradient id="d" gradientUnits="userSpaceOnUse" x1="134.749" x2="465.719" y1="53.157" y2="384.126"><stop offset="0" stop-color="#62e1fb"/><stop offset="1" stop-color="#00a2f3"/></linearGradient><linearGradient id="a"><stop offset="0" stop-color="#00a2f3" stop-opacity="0"/><stop offset="1" stop-color="#0075cd"/></linearGradient><linearGradient id="e" gradientUnits="userSpaceOnUse" x1="419.309" x2="351.933" xlink:href="#a" y1="312.943" y2="105.278"/><linearGradient id="f" gradientUnits="userSpaceOnUse" x1="201.251" x2="66.827" xlink:href="#a" y1="308.943" y2="174.519"/><linearGradient id="g" gradientUnits="userSpaceOnUse" x1="313.821" x2="250.138" xlink:href="#a" y1="103.154" y2="39.469"/><linearGradient id="b"><stop offset="0" stop-color="#cfffb4"/><stop offset="1" stop-color="#8ee388"/></linearGradient><linearGradient id="h" gradientUnits="userSpaceOnUse" x1="334.183" x2="531.914" xlink:href="#b" y1="116.238" y2="313.969"/><linearGradient id="i" gradientUnits="userSpaceOnUse" x1="86.897" x2="189.002" xlink:href="#b" y1="194.587" y2="296.692"/><linearGradient id="j" gradientUnits="userSpaceOnUse" x1="253.518" x2="370.494" xlink:href="#b" y1="338.733" y2="455.708"/><linearGradient id="k" gradientUnits="userSpaceOnUse" x1="260.138" x2="295.406" xlink:href="#b" y1="49.469" y2="84.738"/><radialGradient id="l" cx="317.45" cy="125.349" gradientTransform="rotate(-2.82 243.624 1591.1) scale(1.00394)" gradientUnits="userSpaceOnUse" r="285.864"><stop offset=".001" stop-color="#d5ecf3" stop-opacity="0"/><stop offset=".424" stop-color="#d3eaf1" stop-opacity=".424"/><stop offset=".577" stop-color="#cce4eb" stop-opacity=".576"/><stop offset=".685" stop-color="#c1d9e0" stop-opacity=".686"/><stop offset=".773" stop-color="#b0c9d1" stop-opacity=".773"/><stop offset=".848" stop-color="#9ab4bd" stop-opacity=".847"/><stop offset=".915" stop-color="#7e9ba5" stop-opacity=".914"/><stop offset=".974" stop-color="#5f7d88" stop-opacity=".973"/><stop offset="1" stop-color="#4e6d79"/></radialGradient><linearGradient id="c"><stop offset="0" stop-color="#ffe7a5"/><stop offset=".966" stop-color="#ffbf5c"/></linearGradient><linearGradient id="m" gradientTransform="scale(-1.0039 1.0039) rotate(-45 750.78 4327.21)" gradientUnits="userSpaceOnUse" x1="2718.597" x2="2962.344" xlink:href="#c" y1="721.664" y2="965.411"/><linearGradient id="n" gradientTransform="rotate(45 500.405 1316.415) scale(1.00391)" gradientUnits="userSpaceOnUse" x1="-376.681" x2="-396.906" y1="835.065" y2="686.743"><stop offset="0" stop-color="#ff5d00" stop-opacity="0"/><stop offset="1" stop-color="#d54003"/></linearGradient><linearGradient id="o" gradientTransform="scale(-1.0039 1.0039) rotate(-45 750.78 4327.21)" gradientUnits="userSpaceOnUse" x1="2821.698" x2="2930.507" xlink:href="#c" y1="796.417" y2="905.226"/><linearGradient id="p" gradientTransform="scale(-1.0039 1.0039) rotate(-45 750.78 4327.21)" gradientUnits="userSpaceOnUse" x1="2918.71" x2="2918.71" y1="923.617" y2="946.968"><stop offset="0" stop-color="#acfcd9"/><stop offset="1" stop-color="#53d6be"/></linearGradient><linearGradient id="q" gradientTransform="rotate(45 500.405 1316.415) scale(1.00391)" gradientUnits="userSpaceOnUse" x1="-371.25" x2="-524.301" y1="981.533" y2="981.533"><stop offset="0" stop-color="#827a74"/><stop offset="1" stop-color="#605b55"/></linearGradient><path d="M484.348 201.379c0 111.215-90.157 201.375-201.375 201.375s-201.38-90.16-201.38-201.375C81.594 90.16 171.754 0 282.974 0s201.375 90.16 201.375 201.379zm0 0" fill="url(#d)"/><path d="M484.352 201.375c0 12.773-1.192 25.27-3.47 37.383a199.357 199.357 0 0 1-15.296 47.601c-11.145 23.922-26.863 45.293-46.031 62.985L332.21 262a14.018 14.018 0 0 1-6.297-7.688l-44.601-44.78c-9.899-8.446-16.176-21-16.176-35.032v-33.848c0-15.226 5.664-29.132 15.015-39.714 10.496-11.91 25.649-19.618 42.618-20.29a70.924 70.924 0 0 1 2.417-.046h37.192c7.726 0 13.984-6.258 13.984-13.98v-2.544c0-7.723 6.266-13.98 13.992-13.98h25.532c1.043.918 2.078 1.847 3.101 2.789.98.898 1.957 1.808 2.914 2.718a.82.82 0 0 1 .125.125 220.622 220.622 0 0 1 5.914 5.895l.204.203c34.816 36.188 56.207 85.36 56.207 139.547zm0 0" fill="url(#e)"/><path d="M362.285 386.527c-24.34 10.446-51.148 16.227-79.312 16.227-33.063 0-64.266-7.965-91.79-22.094-.25-.476-.492-.957-.738-1.445-.625.031-1.246.066-1.87.086-.18.012-.352.02-.536.02l-82.34-82.34c-.48-.895-.96-1.786-1.422-2.676a198.67 198.67 0 0 1-4.035-8.184c-.832-1.8-1.648-3.633-2.441-5.46-.031-.067-.047-.126-.078-.184-.383-.91-.766-1.82-1.141-2.73a171.35 171.35 0 0 1-1.445-3.634c-.27-.68-.528-1.36-.778-2.039a.12.12 0 0 1-.02-.039c-.35-.95-.698-1.906-1.042-2.867-.336-.918-.652-1.848-.98-2.777-.68-1.993-1.32-3.996-1.934-6.008-.297-.969-.594-1.946-.871-2.926-.29-.984-.567-1.98-.836-2.969-.258-.93-.496-1.847-.739-2.777a17.15 17.15 0 0 1-.152-.606c-.219-.851-.43-1.707-.633-2.558-.02-.059-.027-.125-.047-.184-.23-.976-.453-1.945-.671-2.922-.23-1.004-.442-2.023-.653-3.046-.199-.961-.39-1.926-.582-2.895a2.618 2.618 0 0 1-.027-.172 226.17 226.17 0 0 1-.54-2.914 116.67 116.67 0 0 1-.374-2.242c-.094-.547-.18-1.102-.266-1.649-.152-.996-.308-1.984-.441-2.98-.125-.875-.239-1.754-.344-2.637-.137-1.047-.258-2.09-.375-3.144a103.69 103.69 0 0 1-.324-3.153c-.106-1.054-.192-2.117-.278-3.172-.058-.699-.105-1.398-.156-2.109a46.29 46.29 0 0 1-.066-1.016c-.028-.37-.047-.738-.067-1.101a79.706 79.706 0 0 1-.117-2.156 222.06 222.06 0 0 1-.125-3.223 168.37 168.37 0 0 1-.066-2.816 157.36 157.36 0 0 1-.04-3.641c0-2.715.06-5.426.165-8.11.027-.85.066-1.695.113-2.546.059-1.18.137-2.36.223-3.528a42.19 42.19 0 0 1 .125-1.746c.066-.87.133-1.754.218-2.625.145-1.523.297-3.047.473-4.57.094-.844.2-1.688.305-2.523.105-.84.219-1.684.336-2.52.074-.555.152-1.121.238-1.676.078-.5.145-.988.23-1.488.094-.613.192-1.227.297-1.84.098-.594.192-1.187.305-1.781.098-.559.195-1.113.3-1.668.122-.711.259-1.418.403-2.117.192-.989.383-1.977.594-2.965a69.88 69.88 0 0 1 18.293-2.422c20.605 0 39.121 8.922 51.914 23.105zm0 0" fill="url(#f)"/><path d="M480.883 238.758a199.357 199.357 0 0 1-15.297 47.601l-185.43-185.421-23.433-23.43c-5.684-4.094-9.383-10.762-9.383-18.293 0-12.45 10.094-22.543 22.539-22.543 7.535 0 14.203 3.7 18.297 9.383l34.597 34.597zm0 0" fill="url(#g)"/><path d="M484.352 201.375c0 21.813-3.47 42.82-9.891 62.492H339.168c-7.723 0-13.98-6.265-13.98-13.988v-15.336c0-3.863-1.575-7.36-4.102-9.89a13.943 13.943 0 0 0-9.89-4.09c-25.438 0-46.06-20.625-46.06-46.06v-33.85c0-33.169 26.884-60.051 60.051-60.051h37.192c7.726 0 13.984-6.258 13.984-13.98v-2.54c0-7.727 6.266-13.984 13.992-13.984h25.532c41.976 36.898 68.465 90.996 68.465 151.277zm0 0" fill="url(#h)"/><path d="M174.086 227.125c0 38.094-30.477 69.07-68.39 69.855-15.372-28.445-24.102-61-24.102-95.605 0-14.3 1.484-28.234 4.32-41.688v-.011a69.745 69.745 0 0 1 18.297-2.422c38.594 0 69.875 31.277 69.875 69.871zm0 0" fill="url(#i)"/><path d="M282.973 402.754c40.007 0 77.293-11.668 108.636-31.79-12.761-13.792-31.02-22.425-51.296-22.425-.688 0-1.375.008-2.063.031-15.219.438-30.316-3.453-42.86-12.082-11.245-7.738-24.867-12.265-39.55-12.265-33.34 0-61.203 23.351-68.176 54.59 28.375 15.269 60.824 23.94 95.309 23.94zm0 0" fill="url(#j)"/><path d="M292.418 59.207c0 12.45-10.094 22.54-22.54 22.54-12.448 0-22.538-10.09-22.538-22.54 0-12.445 10.09-22.539 22.539-22.539 12.445 0 22.539 10.094 22.539 22.539zm0 0" fill="url(#k)"/><path d="M484.348 201.379c0 111.215-90.157 201.375-201.375 201.375s-201.38-90.16-201.38-201.375C81.594 90.16 171.754 0 282.974 0s201.375 90.16 201.375 201.379zm0 0" fill="url(#l)"/><path d="M207.398 352.637c6.75 6.754 33.024 19.254 40.43 21.12.184.032.363.071.547.11.79.168 79.95 15.664 120.625-24.379 9.043-8.902 24.09-9.383 33.07-.418 9.035 9.024 9.04 23.66.012 32.688-57.789 57.789-155.777 38.867-163.05 37.363-2.27-.45-5.243-1.312-8.665-2.5l-.84-.2a106.007 106.007 0 0 0-99.394 28.196 9.077 9.077 0 0 1-12.84 0L66.66 393.984c-5.156-5.156-5.156-13.515 0-18.672l22.672-22.675c32.55-32.551 85.516-32.551 118.066 0zm0 0" fill="url(#m)"/><path d="M230.371 416.621c3.418 1.188 6.39 2.055 8.664 2.5 3.742.774 31.5 6.156 65.442 3.332v-46.488c-29.735 3.07-55.653-2.004-56.102-2.098-.184-.039-.363-.078-.547-.11-7.406-1.87-33.68-14.37-40.43-21.12-32.55-32.551-85.515-32.551-118.066 0L66.66 375.313c-5.156 5.156-5.156 13.515 0 18.671l50.633 50.633c3.547 3.547 9.297 3.547 12.84 0a106.026 106.026 0 0 1 99.394-28.195zm0 0" fill="url(#n)"/><path d="M168.176 379.77a23.59 23.59 0 0 0 2.574 2.218c20.258 15.067 45.348 22.407 70.64 20.66a106.133 106.133 0 0 0 67.755-30.851c9.023-9.024 9.023-23.652 0-32.676-9.024-9.023-23.649-9.023-32.672 0-20.895 20.895-54.489 23.383-78.149 5.79-10.238-7.614-24.71-5.49-32.324 4.753-6.93 9.313-5.793 22.133 2.176 30.106zm0 0" fill="url(#o)"/><path d="M73.21 342.215l-17.788 17.789c-4.293 4.293-4.293 11.25 0 15.543l81.523 81.523c4.293 4.29 11.254 4.29 15.543 0l17.79-17.789c4.288-4.293 4.288-11.254 0-15.547l-81.524-81.52c-4.293-4.292-11.25-4.292-15.543 0zm0 0" fill="url(#p)"/><path d="M42.598 351.703L3.855 390.445c-4.476 4.477-4.476 11.735 0 16.211l101.98 101.98c4.478 4.477 11.735 4.477 16.212 0l38.742-38.741c4.477-4.477 4.477-11.735 0-16.211L58.81 351.704c-4.477-4.477-11.735-4.477-16.211 0zm0 0" fill="url(#q)"/></svg>