<svg width="188" height="188" fill="none" xmlns="http://www.w3.org/2000/svg"><g clip-path="url(#clip0)"><path d="M152.613 188H35.738C16.372 188 .676 172.22.676 152.75V35.25C.676 15.78 16.372 0 35.738 0h116.875c19.366 0 35.063 15.78 35.063 35.25v117.5c0 19.47-15.697 35.25-35.063 35.25z" fill="#FFF9DD"/><path d="M90.278 125.331a3.9 3.9 0 0 1-3.144-1.603L76.422 109.04a3.938 3.938 0 0 1 .842-5.476 3.888 3.888 0 0 1 5.447.846l8.03 11.004 19.19-19.293a3.885 3.885 0 0 1 5.51 0c1.525 1.528 1.519 4.006 0 5.54l-22.4 22.519a3.893 3.893 0 0 1-2.763 1.151z" fill="#FFE777"/><path d="M129.238 58.75H59.113c-6.446 0-11.687 5.27-11.687 11.75v58.75c0 6.48 5.241 11.75 11.687 11.75h70.125c6.446 0 11.688-5.27 11.688-11.75V70.5c0-6.48-5.242-11.75-11.688-11.75zm3.898 70.5c0 2.162-1.748 3.919-3.898 3.919H59.113c-2.15 0-3.898-1.757-3.898-3.919V86.322h77.915v42.928h.006z" fill="#FFD200"/><path d="M70.8 47h-3.897c-2.15 0-3.898 1.751-3.898 3.919v15.668c0 2.162 1.742 3.919 3.898 3.919h3.898c2.15 0 3.898-1.752 3.898-3.919V50.92c0-2.17-1.749-3.92-3.899-3.92zm50.649 0h-3.898c-2.15 0-3.898 1.751-3.898 3.919v15.668a3.907 3.907 0 0 0 3.898 3.913h3.898c2.15 0 3.898-1.751 3.898-3.919V50.92c-.006-2.168-1.748-3.919-3.898-3.919z" fill="#FFE777"/></g><defs><clipPath id="clip0"><path fill="#fff" transform="translate(.676)" d="M0 0h187v188H0z"/></clipPath></defs></svg>