<svg viewBox="0 -12 512.003 512" xmlns="http://www.w3.org/2000/svg" xmlns:xlink="http://www.w3.org/1999/xlink"><radialGradient id="f" cx="267.781" cy="244.441" gradientUnits="userSpaceOnUse" r="278.135"><stop offset="0" stop-color="#0ff" stop-opacity="0"/><stop offset=".9" stop-color="#0ff" stop-opacity=".902"/><stop offset="1" stop-color="#0ff"/></radialGradient><radialGradient id="g" cx="268.057" cy="266.724" gradientUnits="userSpaceOnUse" r="116.643"><stop offset="0" stop-color="#ffb92d"/><stop offset=".336" stop-color="#fec259" stop-opacity=".663"/><stop offset=".782" stop-color="#fccd8d" stop-opacity=".22"/><stop offset="1" stop-color="#fbd1a2" stop-opacity="0"/></radialGradient><radialGradient id="h" cx="248.536" cy="234" gradientUnits="userSpaceOnUse" r="123.831"><stop offset="0" stop-color="#feffb3"/><stop offset=".22" stop-color="#fefdb0"/><stop offset=".39" stop-color="#fef8a6"/><stop offset=".543" stop-color="#fef096"/><stop offset=".687" stop-color="#fee47e"/><stop offset=".823" stop-color="#ffd460"/><stop offset=".953" stop-color="#ffc13c"/><stop offset="1" stop-color="#ffb92d"/></radialGradient><linearGradient id="a"><stop offset="0" stop-color="#cfffb4"/><stop offset="1" stop-color="#8ee388"/></linearGradient><linearGradient id="i" gradientUnits="userSpaceOnUse" x1="109.28" x2="205.89" xlink:href="#a" y1="205.177" y2="360.593"/><linearGradient id="b"><stop offset="0" stop-color="#8ee388" stop-opacity="0"/><stop offset="1" stop-color="#4b9345"/></linearGradient><linearGradient id="j" gradientUnits="userSpaceOnUse" x1="127.371" x2="252.685" xlink:href="#b" y1="251.284" y2="577.519"/><linearGradient id="k" gradientUnits="userSpaceOnUse" x1="124.794" x2="152.797" xlink:href="#b" y1="276.793" y2="510.616"/><linearGradient id="c"><stop offset="0" stop-color="#acfcd9"/><stop offset="1" stop-color="#53d6be"/></linearGradient><linearGradient id="l" gradientUnits="userSpaceOnUse" x1="373.109" x2="448.807" xlink:href="#c" y1="168.951" y2="244.648"/><linearGradient id="d"><stop offset="0" stop-color="#53d6be" stop-opacity="0"/><stop offset=".251" stop-color="#51b4a7" stop-opacity=".251"/><stop offset=".577" stop-color="#508d8e" stop-opacity=".576"/><stop offset=".838" stop-color="#4e767f" stop-opacity=".839"/><stop offset="1" stop-color="#4e6d79"/></linearGradient><linearGradient id="m" gradientUnits="userSpaceOnUse" x1="439.047" x2="361.39" xlink:href="#d" y1="184.522" y2="184.522"/><linearGradient id="n" gradientUnits="userSpaceOnUse" x1="448.907" x2="370.601" xlink:href="#d" y1="216.774" y2="192.28"/><linearGradient id="e"><stop offset="0" stop-color="#827a74"/><stop offset="1" stop-color="#605b55"/></linearGradient><linearGradient id="o" gradientUnits="userSpaceOnUse" x1="399.226" x2="407.575" xlink:href="#e" y1="219.454" y2="219.454"/><linearGradient id="p" gradientUnits="userSpaceOnUse" x1="379.769" x2="407.364" xlink:href="#e" y1="184.678" y2="184.678"/><linearGradient id="q" gradientUnits="userSpaceOnUse" x1="365.677" x2="406.611" xlink:href="#e" y1="226.243" y2="226.243"/><linearGradient id="r" gradientUnits="userSpaceOnUse" x1="427.775" x2="400.181" xlink:href="#e" y1="167.978" y2="167.978"/><linearGradient id="s" gradientUnits="userSpaceOnUse" x1="441.866" x2="400.934" xlink:href="#e" y1="209.542" y2="209.542"/><linearGradient id="t" gradientUnits="userSpaceOnUse" x1="335.479" x2="388.264" xlink:href="#a" y1="219.206" y2="271.992"/><linearGradient id="u" gradientUnits="userSpaceOnUse" x1="381.458" x2="327.306" xlink:href="#b" y1="230.064" y2="230.064"/><linearGradient id="v" gradientUnits="userSpaceOnUse" x1="388.333" x2="333.729" xlink:href="#b" y1="252.553" y2="235.474"/><linearGradient id="w" gradientUnits="userSpaceOnUse" x1="353.69" x2="359.513" xlink:href="#e" y1="254.423" y2="254.423"/><linearGradient id="x" gradientUnits="userSpaceOnUse" x1="340.122" x2="359.364" xlink:href="#e" y1="230.173" y2="230.173"/><linearGradient id="y" gradientUnits="userSpaceOnUse" x1="330.296" x2="358.839" xlink:href="#e" y1="259.157" y2="259.157"/><linearGradient id="z" gradientUnits="userSpaceOnUse" x1="373.598" x2="354.356" xlink:href="#e" y1="218.527" y2="218.527"/><linearGradient id="A" gradientUnits="userSpaceOnUse" x1="383.424" x2="354.881" xlink:href="#e" y1="247.512" y2="247.512"/><linearGradient id="B" gradientUnits="userSpaceOnUse" x1="340.499" x2="341.549" xlink:href="#a" y1="351.212" y2="471.974"/><linearGradient id="C" gradientUnits="userSpaceOnUse" x1="363.117" x2="408.348" xlink:href="#b" y1="341.716" y2="459.469"/><linearGradient id="D" gradientUnits="userSpaceOnUse" x1="406.398" x2="421.091" xlink:href="#b" y1="339.018" y2="461.709"/><linearGradient id="E" gradientUnits="userSpaceOnUse" x1="132.078" x2="54.757" xlink:href="#b" y1="361.683" y2="284.362"/><linearGradient id="F" gradientUnits="userSpaceOnUse" x1="334.2" x2="-41.99" xlink:href="#c" y1="209.974" y2="404.555"/><linearGradient id="G" gradientUnits="userSpaceOnUse" x1="47.362" x2="47.362" xlink:href="#d" y1="187.65" y2="291.208"/><linearGradient id="H" gradientUnits="userSpaceOnUse" x1="205.105" x2="28.485" xlink:href="#c" y1="271.331" y2="574.678"/><path d="M484.496 244.441c0 119.688-97.027 216.715-216.715 216.715S51.066 364.13 51.066 244.441c0-119.691 97.028-216.714 216.715-216.714S484.496 124.75 484.496 244.44zm0 0" fill="#fff"/><path d="M484.496 244.441c0 119.688-97.027 216.715-216.715 216.715S51.066 364.13 51.066 244.441c0-119.691 97.028-216.714 216.715-216.714S484.496 124.75 484.496 244.44zm0 0" fill="url(#f)"/><path d="M391.313 266.723c0 68.226-55.305 123.535-123.532 123.535S144.25 334.949 144.25 266.723c0-68.223 55.305-123.532 123.531-123.532S391.312 198.5 391.312 266.723zm0 0" fill="url(#g)"/><path d="M344.426 266.723c0 42.332-34.317 76.644-76.645 76.644s-76.644-34.312-76.644-76.644c0-42.328 34.316-76.645 76.644-76.645s76.645 34.317 76.645 76.645zm0 0" fill="url(#h)"/><path d="M78.77 216.902c-8.801 0-17.504.418-26.106 1.2a218.708 218.708 0 0 0-1.598 26.34c0 119.687 97.028 216.714 216.715 216.714 32.207 0 62.77-7.035 90.246-19.64C329.992 313.074 215.621 216.902 78.77 216.902zm0 0" fill="url(#i)"/><path d="M294.316 459.535a217.038 217.038 0 0 1-26.535 1.617 217.353 217.353 0 0 1-50.195-5.847c-93.23-22.098-163.133-104.426-166.39-203.618-.083-2.406-.126-4.82-.126-7.246 0-6.625.305-13.18.895-19.656 118.305 26.586 212.11 117.871 242.351 234.75zm0 0" fill="url(#j)"/><path d="M217.586 455.305c-93.23-22.098-163.133-104.426-166.39-203.618 80.753 40.891 142.058 114.618 166.39 203.618zm0 0" fill="url(#k)"/><path d="M440.652 250.98c-24.808 8.372-49.699 8.372-74.504-.003-14.246-4.809-22.253-20.036-17.89-34.426 4.46-14.711 11.765-29.203 18.086-42.93 8.246-17.91 16.828-35.719 24.652-53.723 4.711-10.835 20.098-10.835 24.809 0 7.828 18.004 16.406 35.813 24.652 53.723 6.324 13.727 13.629 28.219 18.09 42.93 4.363 14.394-3.645 29.62-17.895 34.43zm0 0" fill="url(#l)"/><path d="M440.457 173.621c-8.246-17.91-16.824-35.719-24.652-53.723-2.266-5.218-7.012-7.914-11.848-8.109v145.465c12.238-.063 24.477-2.149 36.695-6.274 14.25-4.808 22.258-20.035 17.895-34.43-4.461-14.71-11.766-29.202-18.09-42.929zm0 0" fill="url(#m)"/><path d="M440.652 250.98c14.25-4.808 22.258-20.039 17.895-34.43-4.461-14.71-11.766-29.202-18.09-42.929a1939.64 1939.64 0 0 0-3.652-7.89l-12.094-12.172-.684-.48c-2.27 2.058-4.406 4.214-6.558 6.362-.528.532-1.043 1.079-1.563 1.618-.015-.243-.023-.489-.039-.735h-.836c-.031.578-.058 1.156-.09 1.735-.129.132-.265.27-.394.406-.063-1.215-.121-2.43-.188-3.645h-.836l-9.707-10.543h-.836c-.66 11.864-1.16 23.723-1.671 35.586l-.13 3.387-11.433-11.438c-2.039-2.039-4.074-4.078-6.23-6.035l-.68.485c1.191 2.824 2.52 5.554 3.832 8.293a166.803 166.803 0 0 0 4.176 8.054c.73 1.317 1.3 2.746 1.949 4.121a13.09 13.09 0 0 0 2.562 3.692l5.344 5.312-.074 1.926-.563 17.793c-.128 4.246-.335 8.488-.546 12.734l-.016-.015c-.098-.106-.191-.215-.29-.32-.39-.415-.796-.805-1.218-1.184-.094-.106-.187-.219-.289-.32a21.359 21.359 0 0 0-4.48-3.633c-1.653-1.016-3.368-1.961-4.957-3.05a276.449 276.449 0 0 0-9.704-6.364c-3.292-2.051-6.578-4.11-9.964-6.04l-.532.645c2.547 2.953 5.2 5.778 7.844 8.617a275.751 275.751 0 0 0 8.113 8.297c1.38 1.348 2.633 2.848 3.95 4.278l11.105 11.12a195.99 195.99 0 0 0 .149 10.821c.027.715.066 1.426.101 2.14 13.781.509 27.567-1.554 41.324-6.199zm0 0" fill="url(#n)"/><path d="M403.82 148.273c.657 11.864 1.157 23.727 1.668 35.59l.688 17.797.566 17.793c.176 5.93.508 11.863.793 17.793.262 5.934.293 11.863.04 17.797a312.79 312.79 0 0 1-1.223 17.793c-.598 5.934-1.336 11.863-2.536 17.797h-.832c-1.199-5.934-1.937-11.863-2.535-17.797-.578-5.93-.98-11.863-1.222-17.793-.254-5.934-.223-11.863.039-17.797.285-5.93.617-11.863.793-17.793l.566-17.793.688-17.797c.511-11.863 1.007-23.726 1.671-35.59zm0 0" fill="url(#o)"/><path d="M383.516 169.777c2.273 2.063 4.41 4.215 6.558 6.364a173.538 173.538 0 0 1 6.219 6.605c1 1.125 2.16 2.137 3.242 3.203a13.141 13.141 0 0 1 2.633 3.64 22.393 22.393 0 0 1 1.602 4.376c.375 1.566.64 3.215.527 5.129l-.68.484c-1.844-.531-3.308-1.324-4.664-2.2a22.505 22.505 0 0 1-3.598-2.956 13.09 13.09 0 0 1-2.562-3.692c-.648-1.375-1.219-2.804-1.95-4.12a172.317 172.317 0 0 1-4.175-8.055c-1.313-2.739-2.64-5.47-3.832-8.293zm0 0" fill="url(#p)"/><path d="M368.598 211.262c3.386 1.933 6.672 3.992 9.964 6.039 3.29 2.058 6.52 4.18 9.704 6.363 1.59 1.09 3.304 2.035 4.957 3.05a21.359 21.359 0 0 1 4.48 3.634 35.046 35.046 0 0 1 3.676 4.609c1.105 1.684 2.121 3.473 2.844 5.621l-.532.645c-2.246-.297-4.199-.95-6.062-1.711a34.847 34.847 0 0 1-5.23-2.719 21.34 21.34 0 0 1-4.426-3.695c-1.317-1.43-2.57-2.93-3.95-4.278a285.435 285.435 0 0 1-8.113-8.297c-2.64-2.84-5.297-5.668-7.844-8.62zm0 0" fill="url(#q)"/><path d="M424.71 153.559c-1.194 2.824-2.519 5.558-3.831 8.296a176.15 176.15 0 0 1-4.176 8.055c-.73 1.317-1.3 2.746-1.95 4.121a13.028 13.028 0 0 1-2.566 3.688 22.164 22.164 0 0 1-3.597 2.957c-1.352.875-2.82 1.672-4.664 2.199l-.68-.48c-.113-1.915.152-3.563.531-5.133a22.44 22.44 0 0 1 1.598-4.371 13.084 13.084 0 0 1 2.633-3.641c1.082-1.066 2.246-2.082 3.246-3.207 2.004-2.25 4.078-4.45 6.215-6.606 2.152-2.144 4.289-4.3 6.558-6.363zm0 0" fill="url(#r)"/><path d="M439.48 195.207c-2.55 2.953-5.203 5.781-7.847 8.617a280.439 280.439 0 0 1-8.11 8.297c-1.378 1.348-2.632 2.852-3.949 4.277a21.442 21.442 0 0 1-4.426 3.696 35.23 35.23 0 0 1-5.23 2.722c-1.867.758-3.82 1.41-6.063 1.707l-.53-.644c.722-2.145 1.737-3.938 2.843-5.621a34.981 34.981 0 0 1 3.676-4.61 21.359 21.359 0 0 1 4.48-3.632c1.653-1.016 3.367-1.957 4.957-3.051a280.143 280.143 0 0 1 9.703-6.363c3.293-2.047 6.578-4.106 9.965-6.04zm0 0" fill="url(#s)"/><path d="M382.578 276.406c-17.3 5.84-34.656 5.84-51.953 0-9.934-3.355-15.52-13.972-12.477-24.008 3.114-10.257 8.207-20.363 12.614-29.937 5.754-12.488 11.734-24.906 17.191-37.461 3.285-7.555 14.016-7.555 17.3 0 5.458 12.555 11.438 24.973 17.192 37.46 4.407 9.575 9.5 19.68 12.61 29.938 3.043 10.036-2.54 20.653-12.477 24.008zm0 0" fill="url(#t)"/><path d="M382.441 222.46c-5.75-12.487-11.73-24.905-17.187-37.46-1.582-3.637-4.89-5.52-8.262-5.652V280.78c8.531-.043 17.067-1.5 25.586-4.375 9.938-3.355 15.52-13.972 12.477-24.008-3.11-10.257-8.203-20.363-12.614-29.937zm0 0" fill="url(#u)"/><path d="M382.578 276.406c9.938-3.355 15.52-13.972 12.477-24.008-3.11-10.257-8.203-20.363-12.61-29.937-.847-1.832-1.695-3.668-2.55-5.5l-8.434-8.488-.473-.336c-1.582 1.437-3.074 2.941-4.574 4.437-.367.375-.726.754-1.09 1.13-.008-.173-.015-.34-.027-.513h-.582c-.02.403-.04.805-.063 1.207-.09.098-.183.192-.273.286-.047-.848-.082-1.696-.129-2.543h-.586l-6.77-7.352h-.581c-.461 8.274-.81 16.547-1.165 24.816l-.09 2.364-7.976-7.977c-1.422-1.422-2.84-2.844-4.344-4.207l-.476.336c.832 1.969 1.758 3.875 2.676 5.785a120.807 120.807 0 0 0 2.91 5.614c.507.921.906 1.917 1.359 2.875a9.143 9.143 0 0 0 1.79 2.574l3.726 3.707-.055 1.34-.39 12.406c-.09 2.96-.235 5.922-.383 8.883-.004-.004-.004-.008-.008-.012-.07-.07-.137-.148-.203-.223a17.388 17.388 0 0 0-.848-.828c-.07-.07-.137-.148-.203-.222a15.019 15.019 0 0 0-3.125-2.532c-1.153-.707-2.348-1.367-3.457-2.129-2.219-1.52-4.473-3-6.766-4.437-2.297-1.426-4.586-2.863-6.95-4.211l-.37.45c1.777 2.062 3.625 4.03 5.469 6.01a197.861 197.861 0 0 0 5.656 5.786c.965.941 1.84 1.988 2.754 2.984l7.746 7.754c-.031 2.516-.004 5.032.105 7.547.02.496.047.996.07 1.488 9.606.352 19.22-1.085 28.813-4.324zm0 0" fill="url(#v)"/><path d="M356.895 204.79c.457 8.273.808 16.542 1.164 24.815l.48 12.41.39 12.407c.126 4.137.36 8.273.555 12.41.184 4.137.207 8.27.032 12.406a220.93 220.93 0 0 1-.856 12.41c-.418 4.137-.93 8.274-1.765 12.407h-.583c-.835-4.133-1.347-8.27-1.765-12.407a220.646 220.646 0 0 1-.856-12.41 142.83 142.83 0 0 1 .032-12.406c.195-4.137.425-8.273.55-12.41l.395-12.406.48-12.41c.356-8.274.704-16.543 1.164-24.817zm0 0" fill="url(#w)"/><path d="M342.734 219.781c1.586 1.438 3.075 2.942 4.575 4.438a120.062 120.062 0 0 1 4.336 4.605c.699.785 1.507 1.492 2.261 2.238a9.054 9.054 0 0 1 1.836 2.54c.465.949.844 1.96 1.117 3.046.262 1.094.446 2.243.371 3.579l-.476.335c-1.285-.367-2.309-.921-3.254-1.535a15.51 15.51 0 0 1-2.508-2.062 9.032 9.032 0 0 1-1.785-2.57c-.453-.961-.852-1.958-1.363-2.875a120.945 120.945 0 0 1-2.91-5.618c-.914-1.91-1.84-3.812-2.672-5.785zm0 0" fill="url(#x)"/><path d="M332.332 248.71c2.363 1.349 4.652 2.782 6.95 4.212a192.124 192.124 0 0 1 6.769 4.437c1.105.762 2.3 1.418 3.453 2.13a14.795 14.795 0 0 1 3.125 2.53 24.74 24.74 0 0 1 2.562 3.215c.774 1.172 1.48 2.422 1.985 3.918l-.371.45c-1.567-.207-2.926-.66-4.227-1.192a24.762 24.762 0 0 1-3.648-1.894 15.015 15.015 0 0 1-3.086-2.578c-.918-.997-1.793-2.043-2.754-2.985a188.327 188.327 0 0 1-5.656-5.785c-1.844-1.98-3.696-3.95-5.473-6.012zm0 0" fill="url(#y)"/><path d="M371.46 208.473c-.831 1.972-1.757 3.875-2.67 5.785a120.945 120.945 0 0 1-2.911 5.617c-.512.918-.91 1.914-1.363 2.875-.45.96-1.04 1.82-1.786 2.57a15.51 15.51 0 0 1-2.507 2.063c-.946.613-1.97 1.168-3.254 1.535l-.477-.336c-.074-1.336.11-2.484.371-3.578a15.52 15.52 0 0 1 1.117-3.047 9.054 9.054 0 0 1 1.836-2.539c.754-.746 1.563-1.453 2.262-2.238a120.062 120.062 0 0 1 4.336-4.606c1.5-1.496 2.988-3 4.574-4.437zm0 0" fill="url(#z)"/><path d="M381.762 237.516c-1.778 2.058-3.63 4.03-5.473 6.007a193.009 193.009 0 0 1-5.656 5.79c-.961.94-1.836 1.984-2.754 2.98-.914.996-1.941 1.86-3.086 2.578s-2.355 1.36-3.648 1.899c-1.301.527-2.665.984-4.227 1.19l-.371-.452c.504-1.496 1.21-2.742 1.98-3.918a24.768 24.768 0 0 1 2.567-3.215 14.996 14.996 0 0 1 3.12-2.531c1.157-.707 2.349-1.367 3.458-2.13 2.219-1.523 4.476-3 6.765-4.437 2.297-1.425 4.59-2.863 6.954-4.21zm0 0" fill="url(#A)"/><path d="M483.105 268.992a183.977 183.977 0 0 1-1.27 9.442 214.824 214.824 0 0 1-8.483 34.77c-20.102 60.14-65.844 108.519-124.262 132.175-25.106 10.176-52.559 15.773-81.309 15.773-.61 0-1.207 0-1.816-.011-23.754-.188-46.594-4.211-67.934-11.457 41.723-106.176 145.137-181.332 266.11-181.332 6.375 0 12.699.218 18.964.64zm0 0" fill="url(#B)"/><path d="M481.836 278.434a214.824 214.824 0 0 1-8.484 34.77c-20.102 60.136-65.844 108.515-124.258 132.175-25.11 10.176-52.559 15.773-81.313 15.773-.61 0-1.207 0-1.816-.011 39.789-89.711 119.113-157.989 215.87-182.707zm0 0" fill="url(#C)"/><path d="M349.094 445.379c28.035-54.984 71.312-100.906 124.258-132.176-20.102 60.14-65.844 108.516-124.258 132.176zm0 0" fill="url(#D)"/><path d="M266.648 453.43L94.484 284.238l-.617-.445a17.231 17.231 0 0 0-4.187-4.36l-29.36-21.226-1.355-.977c6.594 109.168 96.972 195.72 207.683 196.2zm0 0" fill="url(#E)"/><path d="M267.566 488.879c-134.785 0-244.441-109.652-244.441-244.438S132.781 0 267.566 0c134.782 0 244.438 109.656 244.438 244.441S402.348 488.88 267.566 488.88zm0-453.832c-115.46 0-209.394 93.933-209.394 209.394 0 115.457 93.933 209.391 209.394 209.391 115.457 0 209.391-93.934 209.391-209.39 0-115.462-93.934-209.395-209.39-209.395zm0 0" fill="url(#F)"/><path d="M58.172 244.441c0-25.953 4.758-50.808 13.426-73.761h-37.09c-7.387 23.285-11.383 48.066-11.383 73.761 0 12.762.988 25.297 2.883 37.536H61.55a209.712 209.712 0 0 1-3.38-37.536zm0 0" fill="url(#G)"/><path d="M67.383 305.883l2.078 1.508c7.727 5.578 18.492 3.855 24.086-3.871 5.582-7.711 3.844-18.504-3.867-24.086l-29.36-21.227-6.812-4.918c-.074-.059-.16-.11-.246-.172a6.18 6.18 0 0 0-.532-.344c-.246-.16-.503-.32-.75-.468-.199-.11-.394-.223-.593-.32-.27-.15-.54-.27-.813-.395-.183-.086-.383-.184-.578-.27a18.247 18.247 0 0 0-1.332-.484c-.207-.059-.406-.11-.613-.172-.297-.086-.594-.16-.903-.234a11.166 11.166 0 0 0-.628-.121 13.065 13.065 0 0 0-.985-.149c-.183-.023-.37-.05-.555-.074a21.33 21.33 0 0 0-1.578-.074c-.527 0-1.058.035-1.574.074-.2.023-.383.05-.582.074-.195.024-.394.035-.578.074-.11.012-.223.051-.32.063-.332.058-.653.133-.973.207-.223.05-.445.113-.664.176-.332.086-.652.195-.988.304-.196.075-.407.149-.614.223-.308.137-.629.273-.937.406-.195.102-.406.188-.602.297-.297.149-.582.309-.863.469-.2.125-.406.246-.605.367-.258.176-.516.348-.766.531-.207.149-.418.297-.613.457a13.38 13.38 0 0 0-.68.567c-.195.172-.395.355-.59.543-.21.195-.406.406-.617.625-.172.187-.36.383-.531.582-.196.234-.38.48-.567.715-.11.132-.222.257-.32.394l-3.879 5.36-22.266 30.8c-5.578 7.723-3.855 18.504 3.868 24.086 7.714 5.578 18.507 3.844 24.086-3.87l1.023-1.43.305-.415C61.84 413.875 156.094 488.88 267.562 488.88v-35.047c-94.082 0-173.859-62.379-200.18-147.95zm0 0" fill="url(#H)"/></svg>