<svg width="189" height="188" fill="none" xmlns="http://www.w3.org/2000/svg"><g clip-path="url(#clip0)"><path d="M153.693 188h-117.5c-19.47 0-35.25-15.78-35.25-35.25V35.25C.943 15.78 16.723 0 36.193 0h117.5c19.469 0 35.25 15.78 35.25 35.25v117.5c0 19.47-15.781 35.25-35.25 35.25z" fill="#F5E6FE"/><path d="M94.943 47c-25.914 0-47 21.086-47 47s21.086 47 47 47 47-21.086 47-47-21.086-47-47-47zm22.354 71.31a3.9 3.9 0 0 1-2.767 1.146 3.89 3.89 0 0 1-2.767-1.146L92.182 98.729a3.908 3.908 0 0 1-1.146-2.767V70.5a3.917 3.917 0 1 1 7.837 0v23.834l18.435 18.437a3.931 3.931 0 0 1-.011 5.539z" fill="#BE63F9"/></g><defs><clipPath id="clip0"><path fill="#fff" transform="translate(.943)" d="M0 0h188v188H0z"/></clipPath></defs></svg>