<svg height="512" viewBox="0 0 510 510" width="512" xmlns="http://www.w3.org/2000/svg" xmlns:xlink="http://www.w3.org/1999/xlink"><linearGradient id="g" gradientUnits="userSpaceOnUse" x1="70.035" x2="70.035" y1="98.836" y2="191.315"><stop offset="0" stop-color="#ffce47"/><stop offset="1" stop-color="#ff9356"/></linearGradient><linearGradient id="a"><stop offset="0" stop-color="#ff755c"/><stop offset="1" stop-color="#ff4181"/></linearGradient><linearGradient id="h" gradientUnits="userSpaceOnUse" x1="439.965" x2="439.965" xlink:href="#a" y1="80.348" y2="135.099"/><linearGradient id="i" gradientUnits="userSpaceOnUse" x1="143.819" x2="143.819" y1="87.459" y2="211.925"><stop offset="0" stop-color="#e4e08e"/><stop offset="1" stop-color="#6fa953"/></linearGradient><linearGradient id="j" gradientUnits="userSpaceOnUse" x1="366.181" x2="366.181" y1="118.745" y2="232.303"><stop offset="0" stop-color="#ff4181"/><stop offset="1" stop-color="#843561"/></linearGradient><linearGradient id="k" gradientUnits="userSpaceOnUse" x1="255" x2="255" y1="64.705" y2="189.139"><stop offset="0" stop-color="#7acbff"/><stop offset="1" stop-color="#45a2e0"/></linearGradient><linearGradient id="l" gradientUnits="userSpaceOnUse" x1="107.397" x2="107.397" y1="179.184" y2="225.629"><stop offset="0" stop-color="#ff9356" stop-opacity="0"/><stop offset="1" stop-color="#ff755c"/></linearGradient><linearGradient id="m" gradientUnits="userSpaceOnUse" x1="178.439" x2="178.439" y1="173.318" y2="266.656"><stop offset="0" stop-color="#43765a" stop-opacity="0"/><stop offset="1" stop-color="#43765a"/></linearGradient><linearGradient id="n" gradientUnits="userSpaceOnUse" x1="255" x2="255" y1="177.051" y2="310.454"><stop offset="0" stop-color="#174461" stop-opacity="0"/><stop offset="1" stop-color="#174461"/></linearGradient><linearGradient id="b"><stop offset="0" stop-color="#843561" stop-opacity="0"/><stop offset="1" stop-color="#3a2f4d"/></linearGradient><linearGradient id="o" gradientUnits="userSpaceOnUse" x1="331.561" x2="331.561" xlink:href="#b" y1="198.947" y2="244.782"/><linearGradient id="p" gradientUnits="userSpaceOnUse" x1="402.603" x2="402.603" xlink:href="#b" y1="174.384" y2="253.356"/><linearGradient id="c"><stop offset="0" stop-color="#ffdecf"/><stop offset="1" stop-color="#faa68e"/></linearGradient><linearGradient id="q" gradientUnits="userSpaceOnUse" x1="79.241" x2="120.642" xlink:href="#c" y1="306.014" y2="398.863"/><linearGradient id="r" gradientUnits="userSpaceOnUse" x1="412.922" x2="454.323" xlink:href="#c" y1="306.014" y2="398.863"/><linearGradient id="s" gradientUnits="userSpaceOnUse" x1="246.787" x2="417.139" xlink:href="#c" y1="302.614" y2="472.965"/><linearGradient id="d"><stop offset="0" stop-color="#ff9356" stop-opacity="0"/><stop offset="1" stop-color="#ff4181"/></linearGradient><linearGradient id="t" gradientUnits="userSpaceOnUse" x1="264.826" x2="251.323" xlink:href="#d" y1="356.462" y2="207.214"/><linearGradient id="e"><stop offset="0" stop-color="#5a7587"/><stop offset="1" stop-color="#092a40"/></linearGradient><linearGradient id="u" gradientUnits="userSpaceOnUse" x1="244.064" x2="306.163" xlink:href="#e" y1="192.562" y2="360.594"/><linearGradient id="f"><stop offset="0" stop-color="#092a40" stop-opacity="0"/><stop offset="1" stop-color="#092a40"/></linearGradient><linearGradient id="v" gradientUnits="userSpaceOnUse" x1="116.187" x2="198.828" xlink:href="#f" y1="253.15" y2="322.282"/><linearGradient id="w" gradientUnits="userSpaceOnUse" x1="170.79" x2="203.295" xlink:href="#e" y1="356.404" y2="388.91"/><linearGradient id="x" gradientUnits="userSpaceOnUse" x1="181.052" x2="215.55" xlink:href="#f" y1="375.413" y2="311.252"/><linearGradient id="y" gradientUnits="userSpaceOnUse" x1="324.916" x2="357.422" xlink:href="#e" y1="356.404" y2="388.91"/><linearGradient id="z" gradientUnits="userSpaceOnUse" x1="335.178" x2="369.676" xlink:href="#f" y1="375.413" y2="311.252"/><linearGradient id="A" gradientUnits="userSpaceOnUse" x1="250.677" x2="276.442" xlink:href="#a" y1="439.006" y2="482.807"/><linearGradient id="B" gradientUnits="userSpaceOnUse" x1="257.243" x2="257.243" xlink:href="#d" y1="405.866" y2="344.304"/><path d="M115.331 85.288L67.486 0H28.831C5.319 0-8.272 22.904 5.544 39.244L36.717 76.11c29.28 34.628 45.05 76.326 45.05 119.123v28.886l58.303 28.699V183.89c0-35.424-8.659-69.94-24.739-98.602z" fill="url(#g)"/><path d="M481.169 0h-38.655l-47.845 85.288c-16.079 28.663-24.739 63.178-24.739 98.602v68.928l58.303-28.699v-28.886c0-42.797 15.77-84.495 45.05-119.123l31.173-36.865C518.272 22.904 504.681 0 481.169 0z" fill="url(#h)"/><path d="M220.152 183.89c0-35.424-2.626-69.939-7.501-98.602L198.144 0H67.486l47.845 85.288c16.079 28.663 24.739 63.178 24.739 98.602v68.928l80.082 39.42z" fill="url(#i)"/><path d="M394.669 85.288L442.514 0H311.855l-14.507 85.288c-4.875 28.663-7.501 63.178-7.501 98.602v108.348l80.082-39.42V183.89c0-35.424 8.66-69.94 24.74-98.602z" fill="url(#j)"/><path d="M289.847 183.89c0-35.424 2.626-69.939 7.501-98.602L311.855 0H198.144l14.507 85.288c4.875 28.663 7.501 63.178 7.501 98.602v108.348L255 309.391l34.847-17.153z" fill="url(#k)"/><path d="M81.767 195.232v28.886l58.303 28.699V183.89c0-12.788-1.145-25.452-3.344-37.771H74.724c4.644 15.971 7.043 32.458 7.043 49.113z" fill="url(#l)"/><path d="M140.07 183.89v68.928l80.082 39.42V183.89c0-12.788-.347-25.452-1.014-37.771h-82.412a215.153 215.153 0 0 1 3.344 37.771z" fill="url(#m)"/><path d="M219.139 146.119a700.586 700.586 0 0 1 1.014 37.771v108.348L255 309.391l34.847-17.153V183.89c0-12.788.347-25.452 1.014-37.771z" fill="url(#n)"/><path d="M290.861 146.119a700.586 700.586 0 0 0-1.014 37.771v108.348l80.082-39.42V183.89c0-12.788 1.145-25.452 3.344-37.771z" fill="url(#o)"/><path d="M373.274 146.119a215.162 215.162 0 0 0-3.344 37.771v68.928l58.303-28.699v-28.886c0-16.656 2.399-33.143 7.043-49.114z" fill="url(#p)"/><path d="M52.842 347.72v-33.347c0-20.744 16.816-37.561 37.561-37.561 20.744 0 37.561 16.816 37.561 37.561v33.347c0 20.744-16.816 37.561-37.561 37.561-20.744 0-37.561-16.817-37.561-37.561z" fill="url(#q)"/><path d="M386.523 347.72v-33.347c0-20.744 16.816-37.561 37.561-37.561 20.744 0 37.561 16.816 37.561 37.561v33.347c0 20.744-16.816 37.561-37.561 37.561-20.744 0-37.561-16.817-37.561-37.561z" fill="url(#r)"/><path d="M431.456 267.853v67.944c0 14.772-1.841 29.119-5.294 42.823C407.076 454.126 338.685 510 257.243 510S107.411 454.126 88.336 378.621a174.548 174.548 0 0 1-5.305-42.823v-67.944c0-25.829 5.621-43.34 15.709-65.378h317.009c10.086 22.037 15.707 39.548 15.707 65.377z" fill="url(#s)"/><path d="M431.456 267.853v67.944c0 14.772-1.841 29.119-5.316 42.823-15.415 61.016-63.053 109.221-123.742 125.464L176.935 378.621 83.03 284.717v-16.864c0-25.829 5.621-43.34 15.709-65.378h317.009c10.087 22.038 15.708 39.549 15.708 65.378z" fill="url(#t)"/><path d="M444.728 195.475c10.712 0 18.372 10.521 14.906 20.657-16.338 47.78-61.627 82.137-114.925 82.137H238.408c-22.714 0-43.956-6.242-62.138-17.092a78.882 78.882 0 0 1-22.605 12.561 78.834 78.834 0 0 1-26.766 4.531c-43.604-.195-78.544-36.316-78.544-79.92v-7.17c0-8.672 7.03-15.703 15.703-15.703h380.67z" fill="url(#u)"/><path d="M176.27 281.176a78.882 78.882 0 0 1-22.605 12.561 78.834 78.834 0 0 1-26.766 4.531c-43.604-.195-78.544-36.316-78.544-79.92v-7.17c0-8.672 7.03-15.703 15.703-15.703h54.344c5.622 36.44 27.442 67.541 57.868 85.701z" fill="url(#v)"/><path d="M205.278 365.795c0 13.861-11.237 25.098-25.098 25.098s-25.098-11.237-25.098-25.098 11.237-25.098 25.098-25.098 25.098 11.236 25.098 25.098z" fill="url(#w)"/><path d="M191.407 343.344a24.986 24.986 0 0 1 2.647 11.227c0 13.861-11.237 25.098-25.098 25.098-4.036 0-7.849-.954-11.227-2.647 4.12 8.224 12.626 13.871 22.451 13.871 13.861 0 25.098-11.237 25.098-25.098 0-9.826-5.647-18.331-13.871-22.451z" fill="url(#x)"/><path d="M359.404 365.795c0 13.861-11.237 25.098-25.098 25.098s-25.098-11.237-25.098-25.098 11.237-25.098 25.098-25.098c13.862 0 25.098 11.236 25.098 25.098z" fill="url(#y)"/><path d="M345.533 343.344a24.986 24.986 0 0 1 2.647 11.227c0 13.861-11.237 25.098-25.098 25.098-4.036 0-7.849-.954-11.227-2.647 4.121 8.224 12.626 13.871 22.451 13.871 13.861 0 25.098-11.237 25.098-25.098 0-9.826-5.646-18.331-13.871-22.451z" fill="url(#z)"/><path d="M291.808 439.267a81.714 81.714 0 0 0-69.129 0c-5.667 2.645-8.201 9.34-5.651 15.05 5.836 13.069 18.471 33.619 40.216 33.619s34.379-20.55 40.216-33.619c2.549-5.71.015-12.405-5.652-15.05z" fill="url(#A)"/><ellipse cx="257.243" cy="398.012" fill="url(#B)" rx="22.514" ry="19.386"/></svg>