<svg width="189" height="188" fill="none" xmlns="http://www.w3.org/2000/svg"><g clip-path="url(#clip0)"><path d="M153.159 188h-117.5c-19.47 0-35.25-15.78-35.25-35.25V35.25C.409 15.78 16.189 0 35.659 0h117.5c19.469 0 35.25 15.78 35.25 35.25v117.5c0 19.47-15.781 35.25-35.25 35.25z" fill="#FFE6E2"/><path d="M137.35 104.481l-.019-.018-6.021-5.533c.205-1.664.311-3.32.311-4.93 0-1.61-.106-3.266-.311-4.93l6.04-5.55a5.94 5.94 0 0 0 1.092-7.263l-6.645-11.497c-1.334-2.38-4.235-3.49-6.879-2.667l-7.814 2.468a35.881 35.881 0 0 0-8.518-4.948l-1.811-8.025c-.588-2.662-2.99-4.588-5.704-4.588h-13.32c-2.719 0-5.121 1.926-5.703 4.583l-1.816 8.03a36.054 36.054 0 0 0-8.519 4.948l-7.82-2.468c-2.632-.823-5.539.3-6.856 2.65L50.37 76.275a5.943 5.943 0 0 0 1.123 7.262l6.022 5.533a39.317 39.317 0 0 0-.312 4.93c0 1.61.106 3.266.312 4.93l-6.04 5.551a5.939 5.939 0 0 0-1.092 7.262l6.644 11.497c1.334 2.38 4.235 3.496 6.88 2.672l7.813-2.467a35.866 35.866 0 0 0 8.519 4.947l1.81 8.02c.588 2.662 2.99 4.594 5.71 4.594h13.319c2.719 0 5.123-1.932 5.704-4.583l1.816-8.031a35.936 35.936 0 0 0 8.518-4.947l7.82 2.467c2.627.818 5.534-.298 6.857-2.655l6.668-11.532a5.954 5.954 0 0 0-1.11-7.244zm-42.941 11.063c-11.88 0-21.544-9.665-21.544-21.544 0-11.88 9.665-21.544 21.544-21.544 11.879 0 21.543 9.665 21.543 21.544 0 11.879-9.664 21.544-21.543 21.544z" fill="#FC573B"/><path d="M101.265 104.769a3.895 3.895 0 0 1-2.767-1.146l-6.856-6.856A3.908 3.908 0 0 1 90.496 94V83.231a3.918 3.918 0 1 1 7.837 0v9.148l5.705 5.704a3.922 3.922 0 0 1 0 5.54 3.93 3.93 0 0 1-2.773 1.146z" fill="#FD907E"/></g><defs><clipPath id="clip0"><path fill="#fff" transform="translate(.409)" d="M0 0h188v188H0z"/></clipPath></defs></svg>