<svg width="91" height="90" fill="none" xmlns="http://www.w3.org/2000/svg"><circle cx="45.293" cy="44.887" r="44.887" fill="#3B72FF"/><g filter="url(#filter0_d)"><path d="M55.158 53.059c1.395 0 2.418.279 3.068.837.651.558.977 1.395.977 2.51 0 2.294-1.349 3.44-4.045 3.44H39.026c-2.696 0-4.044-1.146-4.044-3.44 0-1.115.325-1.952.976-2.51.65-.558 1.674-.837 3.068-.837h3.766V36.276l-3.72 2.185a3.17 3.17 0 0 1-1.626.465c-.868 0-1.612-.372-2.232-1.116-.62-.774-.93-1.627-.93-2.556 0-1.271.543-2.232 1.627-2.883l7.439-4.323c1.364-.775 2.65-1.163 3.858-1.163 1.24 0 2.232.372 2.976 1.116.775.744 1.162 1.751 1.162 3.022v22.036h3.812z" fill="#fff"/><path d="M58.226 53.896l-.65.759.65-.76zm-22.268 0l.65.759-.65-.76zm6.834-.837v1h1v-1h-1zm0-16.783h1V34.53l-1.507.885.507.862zm-3.72 2.185l-.506-.862.507.862zm-3.858-.65l-.78.624.006.008.006.008.768-.64zm.697-5.44l-.502-.865-.012.008.514.857zm7.439-4.323l-.494-.87-.009.005.503.865zM50.184 28l-.707.707.007.008.007.007.693-.722zm1.162 25.058h-1v1h1v-1zm3.812 1c1.296 0 2.032.265 2.418.596l1.301-1.519c-.916-.784-2.225-1.077-3.719-1.077v2zm2.418.596c.366.314.627.833.627 1.751h2c0-1.313-.39-2.468-1.326-3.27l-1.301 1.519zm.627 1.751c0 .947-.27 1.488-.66 1.819-.419.356-1.155.621-2.385.621v2c1.466 0 2.753-.308 3.681-1.098.96-.816 1.364-1.995 1.364-3.342h-2zm-3.045 2.44H39.026v2h16.132v-2zm-16.132 0c-1.23 0-1.966-.265-2.385-.621-.389-.33-.66-.872-.66-1.819h-2c0 1.347.404 2.526 1.364 3.342.929.79 2.215 1.098 3.681 1.098v-2zm-3.044-2.44c0-.918.26-1.437.627-1.751l-1.302-1.519c-.935.802-1.325 1.957-1.325 3.27h2zm.627-1.751c.386-.33 1.121-.596 2.417-.596v-2c-1.493 0-2.803.293-3.719 1.078l1.302 1.518zm2.417-.596h3.766v-2h-3.766v2zm4.766-1V36.276h-2V53.06h2zm-1.507-17.645L38.566 37.6l1.013 1.725 3.72-2.185-1.014-1.725zm-3.72 2.185a2.166 2.166 0 0 1-1.12.327v2c.754 0 1.47-.211 2.135-.603L38.566 37.6zm-1.12.327c-.534 0-1.008-.21-1.463-.756l-1.536 1.28c.785.943 1.798 1.476 3 1.476v-2zm-1.45-.74c-.488-.61-.71-1.246-.71-1.932h-2c0 1.172.397 2.242 1.148 3.181l1.562-1.25zm-.71-1.932c0-.922.36-1.556 1.141-2.025l-1.029-1.715c-1.388.832-2.113 2.12-2.113 3.74h2zm1.129-2.018l7.438-4.324-1.005-1.729-7.438 4.324 1.005 1.729zm7.43-4.319c1.257-.714 2.373-1.032 3.364-1.032v-2c-1.426 0-2.882.458-4.352 1.293l.988 1.74zm3.364-1.032c1.026 0 1.745.3 2.269.823l1.414-1.414c-.965-.965-2.229-1.409-3.683-1.409v2zm2.283.838c.543.52.855 1.248.855 2.3h2c0-1.49-.463-2.776-1.47-3.743l-1.385 1.443zm.855 2.3v22.036h2V31.023h-2zm1 23.036h3.812v-2h-3.812v2z" fill="#000" fill-opacity=".14"/></g><defs><filter id="filter0_d" x="23.284" y="20.885" width="46.918" height="54.961" filterUnits="userSpaceOnUse" color-interpolation-filters="sRGB"><feFlood flood-opacity="0" result="BackgroundImageFix"/><feColorMatrix in="SourceAlpha" values="0 0 0 0 0 0 0 0 0 0 0 0 0 0 0 0 0 0 127 0"/><feOffset dy="5"/><feGaussianBlur stdDeviation="5"/><feColorMatrix values="0 0 0 0 0 0 0 0 0 0 0 0 0 0 0 0 0 0 0.39 0"/><feBlend in2="BackgroundImageFix" result="effect1_dropShadow"/><feBlend in="SourceGraphic" in2="effect1_dropShadow" result="shape"/></filter></defs></svg>