<svg width="90" height="90" fill="none" xmlns="http://www.w3.org/2000/svg"><circle cx="45.032" cy="44.887" r="44.887" fill="#54E78F"/><g filter="url(#filter0_d)"><path d="M53.666 53.059c1.364 0 2.37.279 3.022.837.681.527 1.022 1.364 1.022 2.51 0 1.178-.34 2.046-1.022 2.604-.651.558-1.659.836-3.022.836H36.697c-1.116 0-1.999-.325-2.65-.976-.65-.682-.976-1.534-.976-2.557 0-1.333.527-2.541 1.58-3.626l9.856-10.274c2.046-2.139 3.069-4.107 3.069-5.904 0-1.054-.31-1.86-.93-2.418-.589-.558-1.441-.837-2.557-.837a7.35 7.35 0 0 0-2.51.419c-.744.248-1.612.62-2.604 1.116l-.93.465c-.124.062-.372.201-.744.418a5.81 5.81 0 0 1-.93.418c-.278.093-.573.14-.883.14-.774 0-1.425-.341-1.952-1.023-.527-.713-.79-1.55-.79-2.51 0-.682.093-1.24.279-1.674.217-.434.604-.837 1.162-1.209 1.456-.991 3.084-1.766 4.881-2.324 1.829-.558 3.626-.837 5.393-.837 2.293 0 4.308.387 6.044 1.162 1.735.744 3.068 1.829 3.998 3.255.96 1.394 1.44 3.006 1.44 4.834 0 1.891-.387 3.627-1.161 5.207-.744 1.55-2.03 3.286-3.86 5.207l-6.6 6.741h9.344z" fill="#fff"/><path d="M56.688 53.896l-.651.759.02.017.02.015.61-.791zm0 5.114l-.634-.774-.009.007-.008.007.65.76zm-22.64-.14l-.724.69.008.009.008.008.707-.707zm.604-6.183l.717.697.004-.005-.721-.692zm9.855-10.274l.722.692h.001l-.723-.692zm2.139-8.322l-.688.726.01.009.009.009.669-.744zm-5.067-.418l.316.949.011-.004.011-.004-.338-.941zm-2.604 1.116l-.447-.895.447.895zm-.93.465l-.447-.895.447.895zm-.744.418l.48.878.012-.007.012-.007-.504-.864zm-.93.418l-.316-.948.317.948zm-2.835-.883l-.804.594.006.009.007.008.79-.611zm-.511-4.184l-.895-.447-.013.026-.012.027.92.394zm1.162-1.209l.555.832.008-.005-.563-.827zm4.881-2.324l-.292-.957-.004.002.296.955zm11.437.325l-.408.913.007.003.007.003.394-.919zm3.998 3.255l-.838.546.007.01.007.01.824-.566zm.279 10.041l-.898-.44-.004.008.902.432zm-3.86 5.207l.715.7.005-.005.005-.006-.724-.689zm-6.6 6.741l-.715-.7-1.664 1.7h2.378v-1zm9.344 1c1.258 0 1.982.262 2.37.596l1.302-1.519c-.912-.782-2.203-1.077-3.672-1.077v2zm2.41.628c.361.279.634.772.634 1.72h2c0-1.347-.408-2.528-1.41-3.302l-1.224 1.582zm.634 1.72c0 .985-.278 1.52-.656 1.829l1.267 1.548c.986-.807 1.39-2.008 1.39-3.378h-2zm-.673 1.843c-.39.334-1.113.596-2.371.596v2c1.47 0 2.76-.295 3.672-1.077l-1.301-1.519zm-2.371.596H36.697v2h16.969v-2zm-16.969 0c-.91 0-1.518-.258-1.943-.683l-1.414 1.414c.877.877 2.036 1.27 3.357 1.27v-2zm-1.926-.666c-.458-.48-.7-1.077-.7-1.867h-2c0 1.256.409 2.363 1.253 3.248l1.447-1.381zm-.7-1.867c0-1.037.399-2.004 1.298-2.93l-1.435-1.393c-1.208 1.244-1.863 2.695-1.863 4.323h2zm1.302-2.934l9.856-10.274-1.443-1.384-9.856 10.274 1.443 1.384zm9.857-10.275c2.115-2.21 3.346-4.417 3.346-6.595h-2c0 1.417-.815 3.147-2.791 5.213l1.445 1.382zm3.346-6.595c0-1.258-.378-2.366-1.261-3.161l-1.338 1.487c.356.32.599.823.599 1.674h2zm-1.242-3.144c-.835-.79-1.97-1.11-3.245-1.11v2c.957 0 1.526.237 1.87.562l1.375-1.452zm-3.245-1.11a8.355 8.355 0 0 0-2.85.477l.678 1.882a6.36 6.36 0 0 1 2.172-.36v-2zm-2.827.47c-.803.267-1.716.66-2.734 1.17l.894 1.788c.966-.483 1.788-.833 2.473-1.061l-.633-1.898zm-2.734 1.17l-.93.464.895 1.789.93-.465-.895-1.789zm-.93.464c-.158.079-.434.235-.8.45l1.007 1.727c.378-.22.598-.343.688-.388l-.895-1.789zm-.775.435a4.836 4.836 0 0 1-.767.348l.632 1.897c.35-.117.715-.283 1.092-.49l-.957-1.755zm-.767.348a1.777 1.777 0 0 1-.567.088v2c.411 0 .813-.062 1.199-.191l-.633-1.897zm-.567.088c-.428 0-.8-.166-1.162-.634l-1.582 1.223c.692.895 1.621 1.41 2.744 1.41v-2zm-1.149-.617c-.389-.526-.594-1.15-.594-1.916h-2c0 1.155.32 2.205.986 3.104l1.608-1.188zm-.594-1.916c0-.602.083-1.013.198-1.28l-1.839-.788c-.257.6-.36 1.306-.36 2.068h2zm.173-1.227c.115-.23.357-.513.823-.824l-1.11-1.664c-.65.434-1.183.956-1.502 1.594l1.789.894zm.83-.83c1.37-.931 2.906-1.665 4.615-2.195l-.592-1.91c-1.886.585-3.604 1.401-5.148 2.453l1.125 1.653zm4.61-2.194c1.743-.531 3.442-.793 5.102-.793v-2c-1.873 0-3.77.296-5.685.88l.584 1.913zm5.102-.793c2.181 0 4.052.368 5.636 1.075l.815-1.826c-1.887-.843-4.046-1.249-6.451-1.249v2zm5.65 1.081c1.574.675 2.744 1.64 3.554 2.882l1.675-1.093c-1.049-1.609-2.545-2.814-4.442-3.627l-.787 1.838zm3.568 2.903c.837 1.214 1.265 2.624 1.265 4.267h2c0-2.014-.533-3.827-1.618-5.402l-1.647 1.135zm1.265 4.267c0 1.75-.358 3.333-1.06 4.767l1.795.88c.847-1.727 1.265-3.615 1.265-5.647h-2zm-1.064 4.774c-.681 1.42-1.89 3.068-3.681 4.95l1.448 1.38c1.866-1.962 3.23-3.784 4.036-5.464l-1.803-.865zm-3.672 4.94l-6.601 6.741 1.429 1.4 6.601-6.741-1.428-1.4zm-5.887 8.441h9.345v-2H44.32v2z" fill="#000" fill-opacity=".14"/></g><defs><filter id="filter0_d" x="21.746" y="20.653" width="46.965" height="55.193" filterUnits="userSpaceOnUse" color-interpolation-filters="sRGB"><feFlood flood-opacity="0" result="BackgroundImageFix"/><feColorMatrix in="SourceAlpha" values="0 0 0 0 0 0 0 0 0 0 0 0 0 0 0 0 0 0 127 0"/><feOffset dy="5"/><feGaussianBlur stdDeviation="5"/><feColorMatrix values="0 0 0 0 0 0 0 0 0 0 0 0 0 0 0 0 0 0 0.39 0"/><feBlend in2="BackgroundImageFix" result="effect1_dropShadow"/><feBlend in="SourceGraphic" in2="effect1_dropShadow" result="shape"/></filter></defs></svg>