<svg width="91" height="91" fill="none" xmlns="http://www.w3.org/2000/svg"><circle cx="45.293" cy="45.627" r="44.887" fill="#CFD300"/><g filter="url(#filter0_d)"><path d="M51.206 43.71c1.83.528 3.255 1.488 4.277 2.883 1.054 1.395 1.581 3.084 1.581 5.067 0 1.891-.511 3.534-1.534 4.928-1.023 1.395-2.48 2.48-4.37 3.255-1.86.743-4.045 1.115-6.555 1.115-2.014 0-3.952-.263-5.811-.79-1.86-.558-3.471-1.348-4.835-2.371-.527-.403-.899-.821-1.116-1.255-.217-.465-.325-1.008-.325-1.627 0-.961.263-1.767.79-2.418.527-.682 1.178-1.023 1.953-1.023.433 0 .82.078 1.162.233.34.124.806.34 1.395.65.123.063.263.14.418.233.186.062.387.14.604.233a25.1 25.1 0 0 0 2.65 1.162c.806.248 1.705.372 2.697.372 1.735 0 2.975-.28 3.719-.837.775-.558 1.162-1.488 1.162-2.79 0-1.208-.387-2.076-1.162-2.603-.775-.527-2.046-.79-3.812-.79H41.21c-.93 0-1.658-.326-2.185-.976-.527-.651-.79-1.426-.79-2.325 0-.899.263-1.674.79-2.324.527-.651 1.255-.977 2.185-.977h2.046c1.704 0 2.944-.248 3.719-.743.775-.496 1.162-1.287 1.162-2.371 0-1.147-.34-2.03-1.023-2.65-.681-.651-1.627-.977-2.835-.977-.868 0-1.69.14-2.464.419a26.18 26.18 0 0 0-2.51 1.116l-.977.464a28.77 28.77 0 0 1-1.395.698 3.387 3.387 0 0 1-1.162.186c-.775 0-1.426-.326-1.953-.977-.526-.681-.79-1.503-.79-2.463 0-.651.109-1.194.326-1.628.217-.434.588-.852 1.115-1.255 1.333-.992 2.898-1.766 4.696-2.324a18.867 18.867 0 0 1 5.532-.837c2.294 0 4.308.372 6.044 1.116 1.766.744 3.114 1.797 4.044 3.16.961 1.365 1.441 2.945 1.441 4.743 0 1.705-.449 3.208-1.348 4.51-.868 1.27-2.092 2.2-3.672 2.789z" fill="#fff"/><path d="M51.206 43.71l-.349-.936-2.84 1.058 2.913.84.276-.961zm4.277 2.883l-.806.591.004.006.005.006.797-.603zm.047 9.995l.806.592-.806-.592zm-4.37 3.255l.371.928.008-.003-.379-.925zm-12.366.325l-.287.958.007.002.007.002.273-.962zm-4.835-2.371l-.608.794.008.006.6-.8zm-1.116-1.255l-.906.423.006.012.006.012.894-.447zm.465-4.045l.777.63.007-.01.007-.008-.79-.612zm3.115-.79l-.414.91.035.016.037.014.342-.94zm1.395.65l-.466.886.009.005.01.004.447-.894zm.418.233l-.514.858.094.056.104.035.316-.949zm.604.233l.447-.895-.026-.013-.027-.011-.394.919zm2.65 1.162l-.339.94.023.009.022.007.294-.956zm6.416-.465l-.584-.812-.009.006-.007.006.6.8zm0-5.393l-.563.827.563-.827zm-.79-13.156l-.691.723.009.008.009.009.672-.74zm-5.3-.558l-.34-.941-.011.005.35.936zm-2.51 1.116l.43.902.008-.004.008-.004-.447-.894zm-.977.464l-.43-.902-.018.008-.018.01.466.884zm-1.395.698l.342.94.037-.014.035-.016-.414-.91zm-3.114-.79l-.792.61.007.01.007.009.777-.63zm.65-5.347l-.597-.802-.01.008.607.794zm4.696-2.324l-.292-.957-.005.002.297.955zm11.576.279l-.394.919.006.002.388-.921zm4.044 3.16l-.826.564.004.007.005.006.817-.576zm.093 9.252l-.823-.568-.003.004.826.564zm-3.95 3.75c1.64.473 2.87 1.315 3.748 2.513l1.613-1.182c-1.167-1.591-2.788-2.67-4.807-3.252l-.553 1.922zm3.757 2.525c.905 1.198 1.378 2.668 1.378 4.464h2c0-2.17-.58-4.078-1.783-5.67l-1.595 1.206zm1.378 4.464c0 1.7-.455 3.13-1.34 4.337l1.612 1.183c1.16-1.583 1.728-3.437 1.728-5.52h-2zm-1.34 4.337c-.896 1.221-2.192 2.202-3.943 2.92l.758 1.85c2.03-.831 3.647-2.02 4.797-3.587l-1.612-1.183zm-3.935 2.917c-1.716.686-3.77 1.044-6.184 1.044v2c2.607 0 4.923-.386 6.926-1.187l-.742-1.857zm-6.184 1.044c-1.926 0-3.771-.252-5.539-.752l-.545 1.924c1.952.553 3.981.828 6.084.828v-2zm-5.524-.748c-1.762-.529-3.265-1.27-4.522-2.213l-1.2 1.6c1.47 1.102 3.19 1.942 5.148 2.529l.574-1.916zm-4.515-2.207c-.448-.343-.7-.651-.828-.908l-1.79.894c.306.61.798 1.14 1.404 1.602l1.214-1.588zm-.817-.884c-.143-.308-.231-.7-.231-1.204h-2c0 .736.129 1.428.419 2.05l1.812-.846zm-.231-1.204c0-.768.205-1.342.567-1.789l-1.554-1.258c-.692.855-1.013 1.892-1.013 3.047h2zm.581-1.806c.362-.469.734-.635 1.162-.635v-2c-1.123 0-2.052.516-2.744 1.412l1.582 1.223zm1.162-.635c.313 0 .556.056.748.143l.828-1.82a3.776 3.776 0 0 0-1.576-.323v2zm.82.173c.277.1.695.293 1.27.596l.932-1.77c-.602-.317-1.114-.559-1.518-.706l-.684 1.88zm1.29.605c.095.048.211.112.35.196l1.03-1.715a7.364 7.364 0 0 0-.486-.27l-.895 1.79zm.549.287c.155.051.33.119.526.203l.788-1.838a8.81 8.81 0 0 0-.682-.263l-.632 1.898zm.473.178c1.016.508 1.937.913 2.758 1.209l.678-1.882a23.938 23.938 0 0 1-2.541-1.116l-.895 1.79zm2.803 1.224c.916.281 1.916.416 2.99.416v-2c-.909 0-1.706-.114-2.402-.328l-.588 1.912zm2.99.416c1.79 0 3.307-.277 4.32-1.037l-1.2-1.6c-.475.356-1.438.637-3.12.637v2zm4.304-1.026c1.124-.809 1.578-2.104 1.578-3.6h-2c0 1.106-.32 1.67-.746 1.977l1.168 1.623zm1.578-3.6c0-1.433-.473-2.665-1.6-3.43l-1.125 1.653c.423.288.725.792.725 1.777h2zm-1.6-3.43c-1.033-.703-2.559-.964-4.374-.964v2c1.717 0 2.732.265 3.25.617l1.124-1.654zm-4.374-.964H41.21v2h2.883v-2zm-2.883 0c-.666 0-1.093-.217-1.407-.606l-1.555 1.259c.74.913 1.768 1.347 2.962 1.347v-2zm-1.407-.606c-.372-.459-.568-1.007-.568-1.695h-2c0 1.11.331 2.111 1.013 2.954l1.554-1.259zm-.568-1.695c0-.688.196-1.236.568-1.695l-1.555-1.258c-.682.842-1.013 1.843-1.013 2.953h2zm.568-1.695c.314-.389.741-.606 1.407-.606v-2c-1.194 0-2.223.434-2.962 1.348l1.554 1.258zm1.407-.606h2.046v-2H41.21v2zm2.046 0c1.756 0 3.236-.247 4.258-.901l-1.078-1.685c-.527.338-1.527.586-3.18.586v2zm4.258-.901c1.117-.715 1.623-1.859 1.623-3.213h-2c0 .814-.269 1.252-.701 1.528l1.078 1.685zm1.623-3.213c0-1.355-.41-2.536-1.35-3.39l-1.345 1.48c.424.385.695.97.695 1.91h2zm-1.332-3.374c-.916-.874-2.136-1.253-3.526-1.253v2c1.027 0 1.697.273 2.145.7l1.38-1.447zm-3.526-1.253c-.977 0-1.914.158-2.803.478l.677 1.882a6.22 6.22 0 0 1 2.126-.36v-2zm-2.816.483c-.784.294-1.654.681-2.606 1.157l.894 1.789a25.55 25.55 0 0 1 2.415-1.074l-.703-1.872zm-2.589 1.149l-.976.465.86 1.805.976-.465-.86-1.805zm-1.012.483c-.582.306-1.028.528-1.343.671l.828 1.821c.367-.167.852-.41 1.447-.723l-.932-1.77zm-1.27.642a2.404 2.404 0 0 1-.821.126v2c.528 0 1.034-.076 1.504-.246l-.684-1.88zm-.821.126c-.446 0-.82-.168-1.175-.606l-1.555 1.259c.7.863 1.627 1.347 2.73 1.347v-2zm-1.161-.588c-.376-.487-.582-1.086-.582-1.852h-2c0 1.155.321 2.198 1 3.075l1.582-1.223zm-.582-1.852c0-.547.092-.924.22-1.18l-1.789-.895c-.306.612-.43 1.319-.43 2.075h2zm.22-1.18c.129-.258.38-.566.829-.908l-1.215-1.59c-.606.464-1.098.993-1.403 1.603l1.789.895zm.818-.9c1.231-.916 2.691-1.643 4.395-2.172l-.593-1.91c-1.891.587-3.561 1.41-4.996 2.477l1.194 1.604zm4.39-2.17a17.865 17.865 0 0 1 5.241-.794v-2c-1.961 0-3.904.294-5.824.88l.584 1.913zm5.241-.794c2.186 0 4.062.354 5.65 1.035l.788-1.838c-1.884-.808-4.038-1.197-6.438-1.197v2zm5.656 1.037c1.618.682 2.801 1.623 3.606 2.803l1.652-1.126c-1.055-1.548-2.568-2.714-4.482-3.52l-.776 1.843zm3.615 2.816c.832 1.182 1.258 2.558 1.258 4.166h2c0-1.987-.534-3.773-1.623-5.318l-1.635 1.152zm1.258 4.166c0 1.518-.396 2.82-1.17 3.941l1.645 1.136c1.023-1.481 1.525-3.186 1.525-5.077h-2zm-1.174 3.945c-.74 1.084-1.79 1.893-3.196 2.417l.699 1.874c1.754-.654 3.153-1.705 4.149-3.163l-1.652-1.128z" fill="#000" fill-opacity=".14"/></g><defs><filter id="filter0_d" x="21.518" y="21.393" width="46.546" height="55.565" filterUnits="userSpaceOnUse" color-interpolation-filters="sRGB"><feFlood flood-opacity="0" result="BackgroundImageFix"/><feColorMatrix in="SourceAlpha" values="0 0 0 0 0 0 0 0 0 0 0 0 0 0 0 0 0 0 127 0"/><feOffset dy="5"/><feGaussianBlur stdDeviation="5"/><feColorMatrix values="0 0 0 0 0 0 0 0 0 0 0 0 0 0 0 0 0 0 0.39 0"/><feBlend in2="BackgroundImageFix" result="effect1_dropShadow"/><feBlend in="SourceGraphic" in2="effect1_dropShadow" result="shape"/></filter></defs></svg>