<svg width="90" height="91" fill="none" xmlns="http://www.w3.org/2000/svg"><circle cx="45.032" cy="45.627" r="44.887" fill="#E94646"/><g filter="url(#filter0_d)"><path d="M55.037 48.546c2.696 0 4.044 1.069 4.044 3.207 0 2.2-1.348 3.301-4.044 3.301h-1.023v1.58c0 1.395-.388 2.45-1.162 3.162-.775.713-1.782 1.07-3.022 1.07-1.24 0-2.247-.357-3.022-1.07-.744-.713-1.116-1.767-1.116-3.161v-1.58H35.325c-1.116 0-1.999-.342-2.65-1.024-.65-.681-.976-1.534-.976-2.557 0-1.084.34-2.107 1.023-3.068L46.018 29.44a4.135 4.135 0 0 1 1.627-1.395 4.63 4.63 0 0 1 2.092-.512c1.178 0 2.185.372 3.022 1.116.837.744 1.255 1.782 1.255 3.115v16.783h1.023zm-14.923 0h5.578v-8.043l-5.578 8.043z" fill="#fff"/><path d="M54.014 55.054v-1h-1v1h1zm-1.162 4.742l.677.736-.677-.736zm-6.044 0l-.692.722.008.007.007.007.677-.736zm-1.116-4.742h1v-1h-1v1zm-12.97-6.648l.815.579.004-.005-.82-.574zM46.018 29.44l.819.573-.82-.573zm1.627-1.395l.43.903.008-.005.01-.004-.448-.894zm6.369 20.502h-1v1h1v-1zm-13.9 0l-.822-.57-1.09 1.57h1.912v-1zm5.578 0v1h1v-1h-1zm0-8.043h1v-3.196l-1.821 2.626.821.57zm9.345 9.043c1.243 0 1.99.25 2.412.585.377.3.632.777.632 1.622h2c0-1.293-.419-2.42-1.39-3.189-.926-.735-2.2-1.018-3.654-1.018v2zm3.044 2.207c0 .887-.261 1.39-.643 1.701-.42.343-1.163.6-2.401.6v2c1.458 0 2.738-.293 3.665-1.05.967-.789 1.38-1.936 1.38-3.25h-2zm-3.044 2.301h-1.023v2h1.023v-2zm-2.023 1v1.58h2v-1.58h-2zm0 1.58c0 1.211-.331 1.959-.84 2.426l1.355 1.472c1.041-.958 1.485-2.318 1.485-3.897h-2zm-.84 2.426c-.557.514-1.308.805-2.344.805v2c1.443 0 2.707-.42 3.699-1.333l-1.354-1.472zm-2.344.805c-1.036 0-1.787-.291-2.345-.805l-1.354 1.472c.992.912 2.256 1.333 3.699 1.333v-2zm-2.33-.79c-.485-.466-.808-1.218-.808-2.44h-2c0 1.567.422 2.922 1.424 3.883l1.384-1.444zm-.808-2.44v-1.58h-2v1.58h2zm-1-2.58H35.325v2h10.367v-2zm-10.367 0c-.897 0-1.499-.266-1.926-.714l-1.447 1.38c.874.917 2.038 1.333 3.373 1.333v-2zM33.4 53.34c-.458-.48-.7-1.077-.7-1.867h-2c0 1.256.409 2.363 1.253 3.248L33.4 53.34zm-.7-1.867c0-.859.266-1.682.838-2.49l-1.63-1.157c-.792 1.115-1.208 2.337-1.208 3.647h2zm.842-2.494l13.296-18.967-1.638-1.149-13.296 18.968 1.638 1.148zm13.296-18.968a3.12 3.12 0 0 1 1.238-1.065l-.86-1.806a5.135 5.135 0 0 0-2.017 1.724l1.639 1.147zm1.255-1.074a3.63 3.63 0 0 1 1.645-.406v-2c-.879 0-1.729.212-2.54.617l.895 1.79zm1.645-.406c.947 0 1.714.291 2.357.863l1.33-1.494c-1.03-.916-2.278-1.369-3.687-1.369v2zm2.357.863c.583.518.92 1.261.92 2.368h2c0-1.559-.5-2.893-1.59-3.862l-1.33 1.494zm.92 2.368v16.783h2V31.763h-2zm1 17.783h1.023v-2h-1.023v2zm-13.9 0h5.578v-2h-5.578v2zm6.578-1v-8.043h-2v8.043h2zm-1.821-8.613l-5.58 8.043 1.644 1.14 5.579-8.043-1.643-1.14z" fill="#000" fill-opacity=".14"/></g><defs><filter id="filter0_d" x="20.699" y="21.532" width="49.382" height="55.333" filterUnits="userSpaceOnUse" color-interpolation-filters="sRGB"><feFlood flood-opacity="0" result="BackgroundImageFix"/><feColorMatrix in="SourceAlpha" values="0 0 0 0 0 0 0 0 0 0 0 0 0 0 0 0 0 0 127 0"/><feOffset dy="5"/><feGaussianBlur stdDeviation="5"/><feColorMatrix values="0 0 0 0 0 0 0 0 0 0 0 0 0 0 0 0 0 0 0.39 0"/><feBlend in2="BackgroundImageFix" result="effect1_dropShadow"/><feBlend in="SourceGraphic" in2="effect1_dropShadow" result="shape"/></filter></defs></svg>