<svg width="91" height="91" viewBox="0 0 91 91" fill="none" xmlns="http://www.w3.org/2000/svg">
<circle cx="45.2933" cy="45.3672" r="44.8874" fill="#C941D5"/>
<g filter="url(#filter0_d)">
<path d="M47.5803 38.8946C49.5949 38.8946 51.377 39.344 52.9266 40.2428C54.5073 41.1106 55.7315 42.3503 56.5993 43.9619C57.4981 45.5426 57.9475 47.3712 57.9475 49.4477C57.9475 51.6792 57.4206 53.6472 56.3668 55.3518C55.3131 57.0565 53.8254 58.3737 51.9038 59.3035C49.9823 60.2332 47.7663 60.6981 45.2559 60.6981C43.3343 60.6981 41.4437 60.4192 39.5842 59.8613C37.7556 59.3035 36.1749 58.5286 34.8422 57.5369C34.3463 57.1339 33.9744 56.7155 33.7265 56.2816C33.5095 55.8167 33.4011 55.2744 33.4011 54.6545C33.4011 53.6937 33.6645 52.8879 34.1914 52.2371C34.7183 51.5552 35.3691 51.2143 36.1439 51.2143C36.6088 51.2143 36.9962 51.2763 37.3062 51.4003C37.6161 51.5242 38.081 51.7567 38.7009 52.0976L39.6306 52.5625C40.5914 53.0274 41.4592 53.3993 42.234 53.6782C43.0399 53.9572 43.9077 54.0966 44.8375 54.0966C46.5731 54.0966 47.8593 53.7557 48.6961 53.0739C49.5329 52.361 49.9513 51.2608 49.9513 49.7731C49.9513 48.3784 49.5174 47.2937 48.6496 46.5189C47.7818 45.744 46.5731 45.3566 45.0234 45.3566C44.0936 45.3566 43.2413 45.4341 42.4665 45.5891C41.7227 45.744 40.8394 46.023 39.8166 46.4259C39.1657 46.7668 38.4684 46.9373 37.7246 46.9373C36.8568 46.9373 36.1284 46.6893 35.5396 46.1934C34.9507 45.6666 34.6563 44.9847 34.6563 44.1479V31.5493C34.6563 30.2476 34.9972 29.2558 35.679 28.5739C36.3609 27.8921 37.3372 27.5512 38.6079 27.5512H53.0196C55.716 27.5512 57.0642 28.6204 57.0642 30.7589C57.0642 32.9285 55.716 34.0132 53.0196 34.0132H42.9779V39.7314C44.2796 39.1735 45.8137 38.8946 47.5803 38.8946Z" fill="white"/>
<path d="M52.9266 40.2428L52.4249 41.1078L52.4351 41.1137L52.4454 41.1194L52.9266 40.2428ZM56.5993 43.9619L55.7188 44.436L55.7243 44.4462L55.73 44.4562L56.5993 43.9619ZM56.3668 55.3518L57.2174 55.8777L57.2174 55.8777L56.3668 55.3518ZM51.9038 59.3035L52.3394 60.2036L52.3394 60.2036L51.9038 59.3035ZM39.5842 59.8613L39.2923 60.8178L39.2968 60.8191L39.5842 59.8613ZM34.8422 57.5369L34.2116 58.313L34.2282 58.3264L34.2452 58.3391L34.8422 57.5369ZM33.7265 56.2816L32.8203 56.7045L32.8378 56.7419L32.8582 56.7778L33.7265 56.2816ZM34.1914 52.2371L34.9686 52.8663L34.9757 52.8575L34.9827 52.8485L34.1914 52.2371ZM37.3062 51.4003L36.9348 52.3287L36.9348 52.3287L37.3062 51.4003ZM38.7009 52.0976L38.2189 52.9738L38.2361 52.9833L38.2536 52.992L38.7009 52.0976ZM39.6306 52.5625L39.1834 53.457L39.1951 53.4626L39.6306 52.5625ZM42.234 53.6782L41.8953 54.6192L41.9069 54.6232L42.234 53.6782ZM48.6961 53.0739L49.3278 53.8491L49.3362 53.8422L49.3445 53.8351L48.6961 53.0739ZM42.4665 45.5891L42.2704 44.6085L42.2625 44.6101L42.4665 45.5891ZM39.8166 46.4259L39.4501 45.4955L39.4001 45.5151L39.3526 45.5401L39.8166 46.4259ZM35.5396 46.1934L34.8728 46.9387L34.884 46.9487L34.8954 46.9583L35.5396 46.1934ZM42.9779 34.0132V33.0132H41.9779V34.0132H42.9779ZM42.9779 39.7314H41.9779V41.2479L43.3718 40.6506L42.9779 39.7314ZM47.5803 39.8946C49.4411 39.8946 51.046 40.308 52.4249 41.1078L53.4283 39.3778C51.708 38.38 49.7487 37.8946 47.5803 37.8946V39.8946ZM52.4454 41.1194C53.8542 41.8929 54.941 42.9915 55.7188 44.436L57.4798 43.4878C56.522 41.7091 55.1603 40.3283 53.4079 39.3662L52.4454 41.1194ZM55.73 44.4562C56.5316 45.8659 56.9475 47.5195 56.9475 49.4477H58.9475C58.9475 47.2228 58.4646 45.2193 57.4686 43.4676L55.73 44.4562ZM56.9475 49.4477C56.9475 51.5152 56.4615 53.2969 55.5162 54.826L57.2174 55.8777C58.3797 53.9976 58.9475 51.8432 58.9475 49.4477H56.9475ZM55.5162 54.826C54.569 56.3583 53.2304 57.5507 51.4683 58.4033L52.3394 60.2036C54.4204 59.1967 56.0571 57.7547 57.2174 55.8777L55.5162 54.826ZM51.4683 58.4033C49.7044 59.2568 47.6418 59.6981 45.2559 59.6981V61.6981C47.8908 61.6981 50.2601 61.2097 52.3394 60.2036L51.4683 58.4033ZM45.2559 59.6981C43.4326 59.6981 41.6388 59.4337 39.8715 58.9035L39.2968 60.8191C41.2486 61.4047 43.236 61.6981 45.2559 61.6981V59.6981ZM39.876 58.9048C38.1409 58.3755 36.6671 57.6484 35.4392 56.7346L34.2452 58.3391C35.6828 59.4089 37.3702 60.2314 39.2923 60.8178L39.876 58.9048ZM35.4728 56.7607C35.0473 56.415 34.767 56.087 34.5947 55.7855L32.8582 56.7778C33.1819 57.3441 33.6454 57.8529 34.2116 58.313L35.4728 56.7607ZM34.6327 55.8588C34.489 55.5509 34.4011 55.1582 34.4011 54.6545H32.4011C32.4011 55.3906 32.53 56.0825 32.8203 56.7045L34.6327 55.8588ZM34.4011 54.6545C34.4011 53.8872 34.6067 53.3133 34.9686 52.8663L33.4141 51.6079C32.7223 52.4625 32.4011 53.5002 32.4011 54.6545H34.4011ZM34.9827 52.8485C35.3445 52.3803 35.7165 52.2143 36.1439 52.2143V50.2143C35.0217 50.2143 34.092 50.7301 33.4001 51.6256L34.9827 52.8485ZM36.1439 52.2143C36.528 52.2143 36.7795 52.2666 36.9348 52.3287L37.6776 50.4718C37.213 50.2859 36.6896 50.2143 36.1439 50.2143V52.2143ZM36.9348 52.3287C37.1845 52.4286 37.6045 52.6359 38.2189 52.9738L39.1828 51.2214C38.5575 50.8775 38.0477 50.6198 37.6776 50.4718L36.9348 52.3287ZM38.2536 52.992L39.1834 53.4569L40.0779 51.6681L39.1481 51.2032L38.2536 52.992ZM39.1951 53.4626C40.1787 53.9386 41.0796 54.3254 41.8953 54.6191L42.5728 52.7373C41.8389 52.4731 41.0041 52.1162 40.0662 51.6623L39.1951 53.4626ZM41.9069 54.6232C42.8271 54.9417 43.8064 55.0966 44.8375 55.0966V53.0966C44.009 53.0966 43.2527 52.9726 42.5612 52.7332L41.9069 54.6232ZM44.8375 55.0966C46.6726 55.0966 48.2324 54.7416 49.3278 53.8491L48.0644 52.2986C47.4862 52.7698 46.4735 53.0966 44.8375 53.0966V55.0966ZM49.3445 53.8351C50.4759 52.8713 50.9513 51.4446 50.9513 49.7731H48.9513C48.9513 51.077 48.5899 51.8507 48.0476 52.3126L49.3445 53.8351ZM50.9513 49.7731C50.9513 48.1553 50.438 46.7751 49.3156 45.7729L47.9836 47.2648C48.5968 47.8123 48.9513 48.6015 48.9513 49.7731H50.9513ZM49.3156 45.7729C48.2109 44.7866 46.7358 44.3566 45.0234 44.3566V46.3566C46.4103 46.3566 47.3527 46.7015 47.9836 47.2648L49.3156 45.7729ZM45.0234 44.3566C44.039 44.3566 43.1199 44.4386 42.2704 44.6085L42.6626 46.5697C43.3627 46.4296 44.1483 46.3566 45.0234 46.3566V44.3566ZM42.2625 44.6101C41.4447 44.7805 40.5044 45.0801 39.4501 45.4955L40.1831 47.3563C41.1743 46.9658 42.0006 46.7076 42.6705 46.5681L42.2625 44.6101ZM39.3526 45.5401C38.8467 45.805 38.3089 45.9373 37.7246 45.9373V47.9373C38.6279 47.9373 39.4847 47.7286 40.2806 47.3117L39.3526 45.5401ZM37.7246 45.9373C37.0606 45.9373 36.5693 45.7532 36.1837 45.4285L34.8954 46.9583C35.6876 47.6254 36.653 47.9373 37.7246 47.9373V45.9373ZM36.2064 45.4482C35.8433 45.1233 35.6563 44.7192 35.6563 44.1479H33.6563C33.6563 45.2502 34.0581 46.2098 34.8728 46.9387L36.2064 45.4482ZM35.6563 44.1479V31.5493H33.6563V44.1479H35.6563ZM35.6563 31.5493C35.6563 30.4173 35.95 29.7172 36.3861 29.2811L34.9719 27.8668C34.0444 28.7944 33.6563 30.0778 33.6563 31.5493H35.6563ZM36.3861 29.2811C36.8266 28.8406 37.5149 28.5512 38.6079 28.5512V26.5512C37.1594 26.5512 35.8952 26.9436 34.9719 27.8668L36.3861 29.2811ZM38.6079 28.5512H53.0196V26.5512H38.6079V28.5512ZM53.0196 28.5512C54.2624 28.5512 55.0098 28.8021 55.4316 29.1366C55.8092 29.4361 56.0642 29.9134 56.0642 30.7589H58.0642C58.0642 29.466 57.645 28.3394 56.6744 27.5696C55.748 26.8349 54.4731 26.5512 53.0196 26.5512V28.5512ZM56.0642 30.7589C56.0642 31.625 55.8058 32.1151 55.4262 32.4205C55.005 32.7594 54.2599 33.0132 53.0196 33.0132V35.0132C54.4756 35.0132 55.7529 34.7246 56.6799 33.9788C57.6484 33.1995 58.0642 32.0624 58.0642 30.7589H56.0642ZM53.0196 33.0132H42.9779V35.0132H53.0196V33.0132ZM41.9779 34.0132V39.7314H43.9779V34.0132H41.9779ZM43.3718 40.6506C44.5223 40.1575 45.9167 39.8946 47.5803 39.8946V37.8946C45.7107 37.8946 44.0368 38.1896 42.584 38.8123L43.3718 40.6506Z" fill="black" fill-opacity="0.14"/>
</g>
<defs>
<filter id="filter0_d" x="22.401" y="21.5512" width="46.5464" height="55.147" filterUnits="userSpaceOnUse" color-interpolation-filters="sRGB">
<feFlood flood-opacity="0" result="BackgroundImageFix"/>
<feColorMatrix in="SourceAlpha" type="matrix" values="0 0 0 0 0 0 0 0 0 0 0 0 0 0 0 0 0 0 127 0"/>
<feOffset dy="5"/>
<feGaussianBlur stdDeviation="5"/>
<feColorMatrix type="matrix" values="0 0 0 0 0 0 0 0 0 0 0 0 0 0 0 0 0 0 0.39 0"/>
<feBlend mode="normal" in2="BackgroundImageFix" result="effect1_dropShadow"/>
<feBlend mode="normal" in="SourceGraphic" in2="effect1_dropShadow" result="shape"/>
</filter>
</defs>
</svg>
