<svg width="90" height="91" viewBox="0 0 90 91" fill="none" xmlns="http://www.w3.org/2000/svg">
<circle cx="45.0323" cy="45.3672" r="44.8874" fill="#5CEAEA"/>
<g filter="url(#filter0_d)">
<path d="M47.8309 38.7551C49.6904 38.7551 51.364 39.22 52.8517 40.1498C54.3394 41.0486 55.5016 42.3193 56.3384 43.9619C57.2062 45.5736 57.6401 47.4022 57.6401 49.4477C57.6401 51.6172 57.1442 53.5698 56.1525 55.3054C55.1917 57.01 53.8435 58.3427 52.1079 59.3035C50.3723 60.2642 48.4042 60.7446 46.2037 60.7446C41.8337 60.7446 38.4555 59.3189 36.069 56.4676C33.6826 53.6162 32.4893 49.5562 32.4893 44.2874C32.4893 40.8162 33.0472 37.7943 34.163 35.2219C35.3097 32.6185 36.9058 30.6195 38.9514 29.2248C41.0279 27.8301 43.4454 27.1328 46.2037 27.1328C47.9393 27.1328 49.7059 27.4117 51.5035 27.9696C53.3321 28.5275 54.8972 29.3023 56.1989 30.2941C56.7258 30.697 57.0977 31.1154 57.3147 31.5493C57.5626 31.9832 57.6866 32.5255 57.6866 33.1764C57.6866 34.1372 57.4077 34.9585 56.8498 35.6403C56.3229 36.2912 55.6721 36.6166 54.8972 36.6166C54.4633 36.6166 54.0759 36.5546 53.735 36.4307C53.3941 36.2757 52.9292 36.0432 52.3403 35.7333L51.3176 35.2219C50.2948 34.726 49.4425 34.3541 48.7606 34.1062C48.0788 33.8582 47.366 33.7343 46.6221 33.7343C45.0415 33.7343 43.7553 34.4626 42.7635 35.9193C41.8027 37.3449 41.2294 39.3595 41.0434 41.9629C41.7562 40.9711 42.7015 40.1963 43.8793 39.6384C45.088 39.0496 46.4052 38.7551 47.8309 38.7551ZM45.6923 54.1896C46.9011 54.1896 47.8618 53.7867 48.5747 52.9809C49.2875 52.1751 49.6439 51.1058 49.6439 49.7731C49.6439 48.4094 49.2875 47.3402 48.5747 46.5654C47.8928 45.7595 46.9321 45.3566 45.6923 45.3566C44.4836 45.3566 43.5073 45.7595 42.7635 46.5654C42.0507 47.3712 41.6942 48.4404 41.6942 49.7731C41.6942 51.0748 42.0662 52.1441 42.81 52.9809C43.5538 53.7867 44.5146 54.1896 45.6923 54.1896Z" fill="white"/>
<path d="M52.8517 40.1498L52.3217 40.9978L52.3281 41.0018L52.3346 41.0057L52.8517 40.1498ZM56.3384 43.9619L55.4474 44.4159L55.4525 44.426L55.4579 44.436L56.3384 43.9619ZM56.1525 55.3054L55.2842 54.8092L55.2813 54.8143L56.1525 55.3054ZM52.1079 59.3035L51.6236 58.4286L52.1079 59.3035ZM36.069 56.4676L35.3022 57.1094L36.069 56.4676ZM34.163 35.2219L33.2478 34.8188L33.2455 34.824L34.163 35.2219ZM38.9514 29.2248L38.3938 28.3946L38.388 28.3986L38.9514 29.2248ZM51.5035 27.9696L51.2071 28.9247L51.2117 28.9261L51.5035 27.9696ZM56.1989 30.2941L56.8064 29.4997L56.805 29.4986L56.1989 30.2941ZM57.3147 31.5493L56.4203 31.9965L56.4327 32.0213L56.4464 32.0454L57.3147 31.5493ZM56.8498 35.6403L56.0758 35.0071L56.0726 35.0111L56.8498 35.6403ZM53.735 36.4307L53.3212 37.341L53.3567 37.3571L53.3933 37.3705L53.735 36.4307ZM52.3403 35.7333L52.8061 34.8484L52.7969 34.8435L52.7875 34.8389L52.3403 35.7333ZM51.3176 35.2219L51.7648 34.3274L51.7538 34.3221L51.3176 35.2219ZM48.7606 34.1062L48.4189 35.046L48.4189 35.046L48.7606 34.1062ZM42.7635 35.9193L41.9369 35.3565L41.9342 35.3604L42.7635 35.9193ZM41.0434 41.9629L40.0459 41.8917L39.7943 45.4141L41.8554 42.5465L41.0434 41.9629ZM43.8793 39.6384L44.3074 40.5422L44.3172 40.5374L43.8793 39.6384ZM48.5747 46.5654L47.8113 47.2113L47.8247 47.2271L47.8388 47.2424L48.5747 46.5654ZM42.7635 46.5654L42.0287 45.8871L42.0215 45.8948L42.0145 45.9028L42.7635 46.5654ZM42.81 52.9809L42.0626 53.6453L42.0688 53.6523L42.0752 53.6592L42.81 52.9809ZM47.8309 39.7551C49.5148 39.7551 51.0027 40.1734 52.3217 40.9978L53.3817 39.3018C51.7254 38.2666 49.8661 37.7551 47.8309 37.7551V39.7551ZM52.3346 41.0057C53.6527 41.8021 54.6899 42.929 55.4474 44.4159L57.2295 43.508C56.3133 41.7097 55.026 40.2951 53.3688 39.2939L52.3346 41.0057ZM55.4579 44.436C56.2384 45.8855 56.6401 47.5479 56.6401 49.4477H58.6401C58.6401 47.2564 58.174 45.2617 57.2189 43.4878L55.4579 44.436ZM56.6401 49.4477C56.6401 51.4585 56.1824 53.2375 55.2842 54.8092L57.0207 55.8015C58.1061 53.9021 58.6401 51.7759 58.6401 49.4477H56.6401ZM55.2813 54.8143C54.4128 56.3553 53.1995 57.5561 51.6236 58.4286L52.5922 60.1783C54.4874 59.1292 55.9706 57.6646 57.0236 55.7964L55.2813 54.8143ZM51.6236 58.4286C50.0519 59.2986 48.2537 59.7446 46.2037 59.7446V61.7446C48.5548 61.7446 50.6927 61.2299 52.5922 60.1783L51.6236 58.4286ZM46.2037 59.7446C42.0722 59.7446 38.9982 58.4094 36.8359 55.8258L35.3022 57.1094C37.9127 60.2285 41.5953 61.7446 46.2037 61.7446V59.7446ZM36.8359 55.8258C34.6521 53.2166 33.4893 49.4179 33.4893 44.2874H31.4893C31.4893 49.6945 32.7131 54.0159 35.3022 57.1094L36.8359 55.8258ZM33.4893 44.2874C33.4893 40.9214 34.0304 38.0406 35.0804 35.6199L33.2455 34.824C32.064 37.5481 31.4893 40.7109 31.4893 44.2874H33.4893ZM35.0781 35.625C36.1609 33.1667 37.6457 31.3254 39.5147 30.051L38.388 28.3986C36.166 29.9136 34.4585 32.0703 33.2478 34.8188L35.0781 35.625ZM39.5089 30.0549C41.4038 28.7823 43.6227 28.1328 46.2037 28.1328V26.1328C43.268 26.1328 40.652 26.878 38.3938 28.3947L39.5089 30.0549ZM46.2037 28.1328C47.8307 28.1328 49.4974 28.3941 51.2071 28.9246L51.7999 27.0145C49.9144 26.4294 48.0479 26.1328 46.2037 26.1328V28.1328ZM51.2117 28.9261C52.9456 29.455 54.4 30.1806 55.5929 31.0895L56.805 29.4986C55.3945 28.424 53.7186 27.5999 51.7953 27.0131L51.2117 28.9261ZM55.5915 31.0884C56.0395 31.431 56.2916 31.7391 56.4203 31.9965L58.2091 31.1021C57.9039 30.4917 57.4121 29.9629 56.8064 29.4997L55.5915 31.0884ZM56.4464 32.0454C56.5858 32.2892 56.6866 32.6483 56.6866 33.1764H58.6866C58.6866 32.4028 58.5395 31.6771 58.1829 31.0531L56.4464 32.0454ZM56.6866 33.1764C56.6866 33.9287 56.474 34.5205 56.0758 35.0071L57.6238 36.2736C58.3414 35.3965 58.6866 34.3457 58.6866 33.1764H56.6866ZM56.0726 35.0111C55.718 35.4491 55.3435 35.6166 54.8972 35.6166V37.6166C56.0006 37.6166 56.9278 37.1333 57.627 36.2695L56.0726 35.0111ZM54.8972 35.6166C54.5576 35.6166 54.289 35.5681 54.0767 35.4909L53.3933 37.3705C53.8628 37.5412 54.369 37.6166 54.8972 37.6166V35.6166ZM54.1488 35.5203C53.8339 35.3771 53.3888 35.1551 52.8061 34.8484L51.8746 36.6182C52.4696 36.9314 52.9543 37.1742 53.3212 37.341L54.1488 35.5203ZM52.7875 34.8389L51.7648 34.3275L50.8703 36.1164L51.8931 36.6277L52.7875 34.8389ZM51.7538 34.3221C50.7154 33.8186 49.8291 33.4306 49.1024 33.1664L48.4189 35.046C49.0559 35.2776 49.8742 35.6335 50.8813 36.1217L51.7538 34.3221ZM49.1024 33.1664C48.3082 32.8776 47.4795 32.7343 46.6221 32.7343V34.7343C47.2524 34.7343 47.8494 34.8389 48.4189 35.046L49.1024 33.1664ZM46.6221 32.7343C44.6684 32.7343 43.0899 33.6631 41.9369 35.3565L43.5901 36.4821C44.4207 35.2621 45.4145 34.7343 46.6221 34.7343V32.7343ZM41.9342 35.3604C40.8378 36.9874 40.2384 39.1971 40.0459 41.8917L42.0409 42.0341C42.2203 39.5219 42.7677 37.7025 43.5928 36.4781L41.9342 35.3604ZM41.8554 42.5465C42.4628 41.7014 43.272 41.0326 44.3073 40.5422L43.4512 38.7347C42.131 39.36 41.0496 40.2408 40.2314 41.3793L41.8554 42.5465ZM44.3172 40.5374C45.3813 40.019 46.5476 39.7551 47.8309 39.7551V37.7551C46.2628 37.7551 44.7946 38.0801 43.4413 38.7394L44.3172 40.5374ZM45.6923 55.1896C47.1481 55.1896 48.3964 54.6917 49.3237 53.6435L47.8257 52.3183C47.3273 52.8817 46.654 53.1896 45.6923 53.1896V55.1896ZM49.3237 53.6435C50.2343 52.614 50.6439 51.2893 50.6439 49.7731H48.6439C48.6439 50.9223 48.3407 51.7361 47.8257 52.3183L49.3237 53.6435ZM50.6439 49.7731C50.6439 48.2349 50.2387 46.8971 49.3106 45.8883L47.8388 47.2424C48.3363 47.7833 48.6439 48.5839 48.6439 49.7731H50.6439ZM49.3381 45.9194C48.4323 44.849 47.1694 44.3566 45.6923 44.3566V46.3566C46.6947 46.3566 47.3533 46.6701 47.8113 47.2113L49.3381 45.9194ZM45.6923 44.3566C44.2362 44.3566 42.9823 44.854 42.0287 45.8871L43.4983 47.2436C44.0323 46.6651 44.731 46.3566 45.6923 46.3566V44.3566ZM42.0145 45.9028C41.1038 46.9322 40.6942 48.257 40.6942 49.7731H42.6942C42.6942 48.6239 42.9975 47.8101 43.5125 47.2279L42.0145 45.9028ZM40.6942 49.7731C40.6942 51.2774 41.13 52.5961 42.0626 53.6453L43.5574 52.3165C43.0024 51.6921 42.6942 50.8722 42.6942 49.7731H40.6942ZM42.0752 53.6592C43.0235 54.6865 44.2586 55.1896 45.6923 55.1896V53.1896C44.7706 53.1896 44.0842 52.8869 43.5448 52.3026L42.0752 53.6592Z" fill="black" fill-opacity="0.14"/>
</g>
<defs>
<filter id="filter0_d" x="21.4894" y="21.1328" width="47.1973" height="55.6118" filterUnits="userSpaceOnUse" color-interpolation-filters="sRGB">
<feFlood flood-opacity="0" result="BackgroundImageFix"/>
<feColorMatrix in="SourceAlpha" type="matrix" values="0 0 0 0 0 0 0 0 0 0 0 0 0 0 0 0 0 0 127 0"/>
<feOffset dy="5"/>
<feGaussianBlur stdDeviation="5"/>
<feColorMatrix type="matrix" values="0 0 0 0 0 0 0 0 0 0 0 0 0 0 0 0 0 0 0.39 0"/>
<feBlend mode="normal" in2="BackgroundImageFix" result="effect1_dropShadow"/>
<feBlend mode="normal" in="SourceGraphic" in2="effect1_dropShadow" result="shape"/>
</filter>
</defs>
</svg>
