<svg width="179" height="179" fill="none" xmlns="http://www.w3.org/2000/svg"><circle cx="89.393" cy="89.821" r="88.948" fill="#000" fill-opacity=".25"/><mask id="a" maskUnits="userSpaceOnUse" x="0" y="0" width="179" height="179"><circle cx="89.393" cy="89.821" r="88.948" fill="#C4C4C4"/></mask><g mask="url(#a)"><path fill-rule="evenodd" clip-rule="evenodd" d="M34.071 135.58l18.524 15.33 17.068-15.33c2.084-2.559 3.95-5.77 4.635-9.641 3.114-17.655 9.439-21.807 3.975-23.908-5.182-1.987-11.41 2.97-11.41 10.317v-36.3c0-2.841-2.327-5.167-5.167-5.167s-5.166 2.326-5.166 5.166v-6.526c0-2.849-2.326-5.174-5.166-5.174-2.84 0-5.166 2.325-5.166 5.174v3.79c0-2.84-2.326-5.166-5.167-5.166-2.848 0-5.174 2.326-5.174 5.166v11.853a4.317 4.317 0 0 0-4.305-4.313c-2.366 0-4.506 1.94-4.506 4.314l.008 20.584c.073 11.137.435 22.838 7.017 29.831z" fill="#D19A6E"/><path fill-rule="evenodd" clip-rule="evenodd" d="M35.857 85.165a4.317 4.317 0 0 0-4.305-4.313c-.072 0-.144.008-.225.008v17.735c0 2.978 4.53 2.978 4.53 0v-13.43zm10.341 11.79V73.312c0-2.623-1.988-4.812-4.53-5.126v28.77a2.263 2.263 0 0 0 2.26 2.26 2.27 2.27 0 0 0 2.27-2.261zm10.332-1.297V69.489A5.188 5.188 0 0 0 52 64.387v31.27a2.277 2.277 0 0 0 2.269 2.27 2.276 2.276 0 0 0 2.261-2.27zm21.743 6.373c-1.666-.643-3.436-.563-5.078.081 5.094 2.124-1.11 6.405-4.184 23.827-.942 5.32-4.112 9.408-7.025 12.24h5.287c2.913-2.832 6.083-6.92 7.025-12.24 3.114-17.655 9.439-21.807 3.975-23.908z" fill="#C38C66"/><path fill-rule="evenodd" clip-rule="evenodd" d="M105.029 115.519l21.421 9.777 17.494-9.777c2.277-2.801 4.321-6.317 5.061-10.542 3.412-19.305 10.324-23.852 4.353-26.145-5.665-2.173-12.472 3.25-12.472 11.282V50.426c0-3.107-2.543-5.65-5.649-5.65s-5.649 2.543-5.649 5.65v-7.138c0-3.106-2.543-5.65-5.649-5.65-3.114 0-5.657 2.544-5.657 5.65v4.144c0-3.106-2.543-5.649-5.649-5.649s-5.649 2.543-5.649 5.65v12.955c0-2.583-2.116-4.707-4.707-4.707-2.591 0-4.933 2.124-4.933 4.707l.016 22.508c.073 12.183.475 24.978 7.669 32.623z" fill="#FFE4C1"/><path fill-rule="evenodd" clip-rule="evenodd" d="M106.985 60.387c0-2.583-2.116-4.707-4.707-4.707-.081 0-.161.008-.242.008V75.08c0 3.251 4.949 3.251 4.949 0V60.387zm11.298 12.893V47.431a5.666 5.666 0 0 0-4.949-5.609V73.28a2.48 2.48 0 0 0 2.478 2.479c1.36 0 2.471-1.11 2.471-2.479zm11.305-1.41V43.256c-.016-2.857-2.18-5.23-4.957-5.576v34.19a2.49 2.49 0 0 0 2.479 2.479 2.49 2.49 0 0 0 2.478-2.48zm23.771 6.962c-1.819-.692-3.758-.611-5.552.097 5.568 2.318-1.215 6.993-4.579 26.048-1.022 5.81-4.49 10.285-7.677 13.383h5.786c3.179-3.098 6.647-7.573 7.669-13.383 3.411-19.305 10.324-23.851 4.353-26.145z" fill="#F1D0A5"/><path fill-rule="evenodd" clip-rule="evenodd" d="M30.08 135.579h41.86c.764 0 1.384.628 1.384 1.392v40.365c0 .764-.62 1.392-1.384 1.392H30.08a1.398 1.398 0 0 1-1.392-1.392v-40.365c0-.764.628-1.392 1.392-1.392z" fill="#C3DDFF"/><path fill-rule="evenodd" clip-rule="evenodd" d="M62.783 178.728h9.158c.764 0 1.384-.628 1.384-1.392v-40.365c0-.764-.62-1.392-1.384-1.392h-9.174c.459 0 .87.234 1.127.58.16.233.257.514.257.812v40.365c0 .756-.612 1.384-1.368 1.392z" fill="#9DC6FB"/><path fill-rule="evenodd" clip-rule="evenodd" d="M79.432 63.358l9.206-9.134 1.255-1.239c3.098-3.21 3.098-8.458 0-11.66-2.808-2.913-7.355-2.19-10.356.523-.556.499-.749.748-.902.748-.145 0-.346-.25-.901-.748-3.002-2.712-7.54-3.436-10.356-.523-3.09 3.202-3.09 8.449 0 11.66l1.255 1.24 9.214 9.133c.394.314.595.483.788.49.201-.007.402-.176.797-.49z" fill="#FF8086"/><path fill-rule="evenodd" clip-rule="evenodd" d="M79.431 63.358l9.206-9.134 1.255-1.239c3.099-3.21 3.099-8.458 0-11.66a5.777 5.777 0 0 0-1.005-.845c-1.674-1.119-3.726-1.272-5.673-.708.177.225.346.466.499.708 1.995 3.187 1.65 7.532-1.046 10.324l-1.256 1.248-7.492 7.42 3.927 3.886c.394.314.596.483.789.491.201-.008.402-.177.796-.491z" fill="#E5646E"/><path fill-rule="evenodd" clip-rule="evenodd" d="M100.716 115.519h45.666c.862 0 1.57.708 1.57 1.577v60.096c0 .869-.708 1.577-1.57 1.577h-45.666a1.573 1.573 0 0 1-1.569-1.577v-60.096c0-.869.7-1.577 1.569-1.577z" fill="#ECEAED"/><path fill-rule="evenodd" clip-rule="evenodd" d="M133.886 178.769h12.496c.862 0 1.57-.708 1.57-1.577v-60.096c0-.869-.708-1.577-1.57-1.577h-12.52a1.58 1.58 0 0 1 1.577 1.577v60.096c0 .861-.701 1.561-1.553 1.577z" fill="#DAD8DB"/><path fill-rule="evenodd" clip-rule="evenodd" d="M109.187 158.794l12.908-12.795 1.762-1.738c4.337-4.498 4.337-11.853 0-16.344-3.943-4.08-10.308-3.058-14.517.733-.78.7-1.054 1.054-1.263 1.046-.209.008-.483-.346-1.263-1.046-4.209-3.79-10.574-4.813-14.509-.733-4.337 4.491-4.337 11.846 0 16.344l1.754 1.738 12.908 12.795c.555.443.837.684 1.11.692.282-.008.555-.249 1.11-.692z" fill="#FF8086"/><path fill-rule="evenodd" clip-rule="evenodd" d="M123.857 144.262c4.337-4.498 4.337-11.854 0-16.344-1.585-1.642-3.565-2.454-5.633-2.599-1.199-.081-2.43.064-3.637.402.024.016.04.04.064.056 4.338 4.499 4.338 11.854 0 16.344l-12.255 12.143 4.571 4.531c.555.442.837.684 1.11.692.282-.008.555-.25 1.111-.692L122.095 146l1.762-1.738z" fill="#E5646E"/><path d="M140.886 87.986v-37.56c0-2.873-2.172-5.264-4.957-5.61v45.298c0 .137.015.272.036.403-3.774 2.64-6.871 6.144-7.778 9.04-.349 1.115.195 2.352 1.298 2.737a2.13 2.13 0 0 0 2.751-1.412c.587-2.008 4.491-6.459 8.231-8.588a.842.842 0 0 0 .419-.733v-3.576z" fill="#F1D0A5"/><path d="M66.863 110.22V76.048a5.179 5.179 0 0 0-4.53-5.126v41a.853.853 0 0 1-.335.675c-2.165 1.674-6.201 5.872-6.956 8.457a2.13 2.13 0 0 0 4.088 1.194c.524-1.796 2.908-5.2 7.255-7.404a.859.859 0 0 0 .477-.765v-3.859z" fill="#C38C66"/></g></svg>