<svg width="107" height="107" fill="none" xmlns="http://www.w3.org/2000/svg"><g clip-path="url(#clip0)"><path d="M38.96 96.713a1.441 1.441 0 0 1-1.235-2.184c2.979-4.965 3.184-9.624 3.186-9.67a1.442 1.442 0 0 1 2.882.107c-.008.22-.24 5.453-3.596 11.047-.27.45-.748.7-1.237.7z" fill="#8EE388"/><path d="M62.304 68.304a.232.232 0 0 0-.384-.17c-.776.674-2.861 2.002-7.051 1.736-4.025-.255-8.5 2.216-9.71 7.376-.073.312.317.52.533.282 2.437-2.694 5.52-3.793 7.691-4.239.257-.054.363.318.115.407-2.534.925-7.03 3.319-9.715 7.814a15.485 15.485 0 0 0-.886 1.721 19.906 19.906 0 0 0-1.986-3.538c-2.971-4.212-6.957-6.277-9.618-7.246-.274-.1-.157-.513.129-.454 2.417.498 5.85 1.72 8.561 4.72.24.264.676.032.594-.315-1.347-5.743-6.329-8.493-10.807-8.21-4.665.297-6.987-1.182-7.849-1.932a.259.259 0 0 0-.429.189C21.165 81.6 33.016 83.69 38.167 81.98c.287-.097.627-.037.969.099 1.084.43 1.775 1.508 1.775 2.676v.328c0 .772.592 1.437 1.363 1.475a1.438 1.438 0 0 0 1.481-1.151c.052-.265.12-.528.232-.773.938-2.053 2.514-2.648 3.337-2.374 4.628 1.538 15.274-.34 14.98-13.956z" fill="url(#paint0_linear)"/><path d="M62.304 68.304a.23.23 0 0 0-.295-.216c-.61 1.31-2.587 4.2-8.51 5.608-2.535.925-7.032 3.318-9.716 7.814a15.27 15.27 0 0 0-.885 1.721l-.007-.014a12.619 12.619 0 0 0-.628 3.34h.011a1.436 1.436 0 0 0 1.481-1.15 3.49 3.49 0 0 1 .233-.773c.938-2.053 2.514-2.648 3.336-2.374 4.628 1.538 15.274-.34 14.98-13.956z" fill="url(#paint1_linear)"/><path d="M42.443 82.258a19.654 19.654 0 0 0-1.532-2.566c-2.971-4.211-6.957-6.276-9.618-7.245-6.444-1.422-8.876-4.943-9.576-6.253a.258.258 0 0 0-.225.25C21.165 81.6 33.016 83.692 38.167 81.98c.287-.097.627-.037.969.099 1.084.43 1.775 1.508 1.775 2.676v.328c0 .772.592 1.436 1.363 1.475a1.9 1.9 0 0 0 .169-.003v-4.297z" fill="url(#paint2_linear)"/><path d="M40.502 87.555a23.685 23.685 0 0 1-2.777 6.974 1.441 1.441 0 1 0 2.473 1.484 26.549 26.549 0 0 0 3.047-7.519l-2.743-.939z" fill="url(#paint3_linear)"/><path d="M43.987 84.635c.033-.073.067-.143.102-.212l-1.192-1.192s.78 1.591.71 3.229l.03-.006c.07-.47.108-.845.13-1.101.051-.247.115-.49.22-.718z" fill="url(#paint4_linear)"/><path d="M41.633 68.278a.54.54 0 1 1-1.08.001.54.54 0 0 1 1.08 0z" fill="url(#paint5_linear)"/><path d="M44.028 73.376a.857.857 0 1 1-1.714-.002.857.857 0 0 1 1.714.002z" fill="url(#paint6_linear)"/><path d="M45.372 70.252a1.318 1.318 0 1 1-2.636 0 1.318 1.318 0 0 1 2.636 0z" fill="url(#paint7_linear)"/><path d="M23.382 88.33c1.777 3.29 1.439 6.919-.755 8.103-2.193 1.186-5.413-.521-7.19-3.812-1.777-3.29-1.44-6.919.754-8.104 2.194-1.184 5.413.523 7.19 3.813z" fill="url(#paint8_linear)"/><path d="M16.336 84.446l6.43 11.906c2.068-1.262 2.355-4.803.616-8.022-1.739-3.22-4.857-4.922-7.046-3.884z" fill="url(#paint9_linear)"/><path d="M13.281 94.974c-.802 3.08-3.117 5.143-5.17 4.608-2.053-.535-3.067-3.465-2.265-6.544.802-3.08 3.117-5.143 5.17-4.607 2.054.534 3.067 3.464 2.265 6.543z" fill="url(#paint10_linear)"/><path d="M11.147 88.47L8.244 99.612c2.02.414 4.252-1.624 5.037-4.638.785-3.013-.17-5.88-2.134-6.504z" fill="url(#paint11_linear)"/><path d="M8.025 93.805c1.02 0 1.999.18 2.905.509a2.238 2.238 0 0 0 2.386-.56 6.398 6.398 0 0 1 4.646-1.991c.577 0 1.138.077 1.671.22a2.235 2.235 0 0 0 2.195-.628A12.352 12.352 0 0 1 30.8 87.51c4.217 0 7.942 2.108 10.18 5.328a2.277 2.277 0 0 0 1.948.97 8.506 8.506 0 0 1 8.208 5.472 1.148 1.148 0 0 1-1.072 1.558H1.149a1.148 1.148 0 0 1-1.072-1.557 8.505 8.505 0 0 1 7.948-5.476z" fill="url(#paint12_linear)"/><path d="M43.187 93.805c.133 0 .265.004.397.01l.12.007a8.022 8.022 0 0 1 .713.073l.082.01a8.343 8.343 0 0 1 .755.154c.04.01.082.02.123.032l.266.075a8.529 8.529 0 0 1 .812.29l.11.048c.082.035.162.071.242.11l.11.051c.094.047.188.095.28.144l.052.027c.108.06.215.12.32.184.031.019.062.04.094.058a12.65 12.65 0 0 1 .33.215c.073.05.147.103.219.156.028.02.057.04.085.062a7.8 7.8 0 0 1 .285.224l.069.059a6.36 6.36 0 0 1 .308.272c.062.056.122.114.182.173l.09.088c.077.079.153.158.227.239.015.016.03.031.044.048.075.082.147.167.22.253l.082.1.15.192.084.112c.051.07.101.14.15.211l.064.093c.066.097.13.197.192.298l.064.109a7.773 7.773 0 0 1 .362.679c.051.106.1.214.146.323.015.033.027.066.04.1.03.072.059.144.086.217a1.148 1.148 0 0 1-1.079 1.536h-15.25a8.502 8.502 0 0 1 8.374-7.032z" fill="url(#paint13_linear)"/><path d="M18.411 99.897c0-3.307 1.296-6.311 3.408-8.533l.01-.01a12.53 12.53 0 0 1 1.856-1.6l.004-.002a12.847 12.847 0 0 1 .501-.334l.027-.017.232-.142.036-.022c.075-.044.15-.088.226-.13a11.57 11.57 0 0 1 .267-.147c.018-.01.035-.02.053-.028l.218-.112.06-.03c.07-.035.142-.07.215-.104l.064-.03.214-.097.07-.03a8.82 8.82 0 0 1 .287-.12c.07-.029.14-.057.212-.084l.078-.03.21-.077c.028-.01.056-.02.083-.028.07-.025.14-.048.21-.071l.086-.028.21-.064.089-.027.21-.06c.032-.007.062-.016.092-.024a16.438 16.438 0 0 1 .518-.124l.093-.02.218-.044c.03-.005.062-.01.092-.017l.222-.038.09-.015c.076-.012.152-.023.228-.032.029-.004.058-.01.088-.013a7.3 7.3 0 0 1 .236-.027l.08-.01.252-.023.068-.006.28-.019.041-.002a12.476 12.476 0 0 1 1.021-.011l.096.003c.09.004.18.007.269.013l.114.007.258.02.104.01c.107.01.212.02.317.034l.038.004c.119.016.238.032.356.05l.08.014a15.981 15.981 0 0 1 .377.067c.083.016.165.033.248.051l.104.022c.093.021.185.043.277.066l.064.016c.115.03.23.06.343.093l.043.012c.097.029.194.058.291.09.03.008.06.019.092.028a9.784 9.784 0 0 1 .597.212l.067.025c.22.086.435.177.647.274l.068.032.248.119.078.039c.083.041.165.084.247.127l.063.033c.206.11.41.228.61.35l.038.025a13.673 13.673 0 0 1 .553.361l.054.039c.194.135.384.276.57.423l.002.002c.089.07.177.142.264.215l.046.04c.075.063.15.126.222.19a30.878 30.878 0 0 1 .286.261l.015.016c.172.162.34.33.503.503l.034.037c.068.073.136.146.202.221l.042.048c.068.077.135.155.201.233l.025.031c.152.182.3.368.44.558l.024.034a12.334 12.334 0 0 1 2.37 8.274H18.445c-.023-.31-.035-.623-.035-.94z" fill="url(#paint14_linear)"/><path d="M16.4 100.837H1.149A1.146 1.146 0 0 1 .07 99.302c.027-.074.057-.146.086-.219l.04-.099a9.56 9.56 0 0 1 .146-.323l.062-.127c.035-.07.07-.14.107-.209l.071-.13a9.037 9.037 0 0 1 .379-.62c.02-.032.042-.062.064-.092.049-.072.098-.142.15-.212l.084-.112c.049-.065.1-.127.15-.19l.083-.102a9.276 9.276 0 0 1 .49-.54l.09-.088a7.39 7.39 0 0 1 .181-.173l.097-.088c.069-.063.14-.124.212-.184.023-.02.045-.04.068-.058.093-.078.189-.152.286-.225L3 95.45c.073-.053.146-.106.22-.157l.106-.071c.073-.05.148-.096.224-.143l.093-.059c.106-.063.213-.125.32-.183l.051-.028a8.464 8.464 0 0 1 1.822-.718l.123-.032a9.87 9.87 0 0 1 .28-.064 9.353 9.353 0 0 1 .474-.089c.028-.004.055-.008.082-.01.102-.016.204-.028.306-.04.042-.005.085-.008.127-.012a7.89 7.89 0 0 1 .28-.021l.12-.008a8.03 8.03 0 0 1 .81 0l.13.01c.093.005.185.011.276.02l.155.017a11.62 11.62 0 0 1 .409.057 10.44 10.44 0 0 1 .397.074c.08.017.159.035.238.055.05.012.1.023.15.037.087.023.171.047.257.072.04.013.083.024.123.036a8.516 8.516 0 0 1 5.827 6.644z" fill="url(#paint15_linear)"/><path d="M51.136 99.28a1.148 1.148 0 0 1-1.073 1.557H1.15a1.147 1.147 0 0 1-1.072-1.556 8.522 8.522 0 0 1 2.719-3.677h45.62a8.53 8.53 0 0 1 2.72 3.677z" fill="url(#paint16_linear)"/><path d="M61.92 68.134c-.776.674-2.862 2.002-7.051 1.737a9.081 9.081 0 0 0-1.164.002l6.876 6.876c1.123-2.107 1.8-4.87 1.723-8.445a.232.232 0 0 0-.384-.17z" fill="url(#paint17_linear)"/><path d="M76.724 74.398c.282.057.584.025.88-.108.87-.392 1.35-1.517 1.073-2.513-2.013-7.243-1.014-13.468-1.003-13.53.176-1.061-.403-2.034-1.301-2.17-.895-.138-1.764.612-1.94 1.673-.05.294-1.172 7.285 1.096 15.445.182.658.649 1.095 1.195 1.203z" fill="#8EE388"/><path d="M58.182 31.554c.056-.26.342-.345.474-.14.686 1.065 2.662 3.29 7.405 3.866 4.555.554 8.895 4.821 8.883 11.932 0 .43-.491.62-.668.256-2.008-4.113-5.156-6.254-7.46-7.327-.273-.128-.488.342-.236.516 2.583 1.786 6.967 5.958 8.774 12.515.218.79.398 1.617.534 2.478a28.634 28.634 0 0 1 3.148-4.251c4.425-4.926 9.413-6.78 12.636-7.474.333-.073.31-.646-.024-.632-2.827.124-6.976.984-10.79 4.36-.339.297-.763-.107-.58-.55 3.017-7.315 9.297-9.856 14.217-8.487 5.123 1.427 8.102-.02 9.261-.822.223-.155.482.054.429.346-3.633 20.167-17.398 20.311-22.692 16.899-.295-.19-.69-.188-1.106-.083-1.324.331-2.378 1.606-2.687 3.155l-.086.435c-.204 1.023-1.039 1.773-1.908 1.653-.821-.113-1.376-.923-1.349-1.855a5.423 5.423 0 0 0-.054-1.076c-.505-2.93-2.106-4.068-3.095-3.888-5.567 1.013-16.944-3.838-13.026-21.826z" fill="url(#paint18_linear)"/><path d="M58.182 31.554c.045-.213.244-.304.386-.221.334 1.872 1.778 6.142 8.011 9.323 2.584 1.787 6.967 5.959 8.775 12.516.218.79.399 1.617.533 2.478a.059.059 0 0 0 .01-.017 19.895 19.895 0 0 1-.179 4.567l-.012-.001c-.822-.113-1.376-.923-1.349-1.855a5.5 5.5 0 0 0-.054-1.076c-.506-2.93-2.106-4.068-3.095-3.888-5.567 1.013-16.944-3.839-13.026-21.826z" fill="url(#paint19_linear)"/><path d="M76.651 54.46a28.073 28.073 0 0 1 2.385-3.062c4.424-4.925 9.413-6.779 12.636-7.473 7.562-.457 11.203-4.586 12.329-6.167.127.047.217.198.184.382-3.633 20.167-17.398 20.311-22.692 16.899-.295-.19-.69-.188-1.106-.084-1.324.332-2.378 1.607-2.687 3.156l-.086.435c-.203 1.023-1.038 1.773-1.908 1.653a1.414 1.414 0 0 1-.188-.04l1.133-5.699z" fill="url(#paint20_linear)"/><path d="M77.42 61.914c-.028 2.5.195 6.04 1.258 9.863.276.996-.204 2.121-1.074 2.513a1.435 1.435 0 0 1-.88.108c-.546-.108-1.013-.545-1.195-1.202-1.13-4.067-1.418-7.843-1.417-10.644l3.308-.638z" fill="url(#paint21_linear)"/><path d="M70.695 94.56a2.207 2.207 0 0 1-1.89-3.341c4.558-7.597 4.873-14.727 4.876-14.8a2.207 2.207 0 0 1 4.41.164c-.013.338-.367 8.347-5.502 16.907a2.204 2.204 0 0 1-1.894 1.07z" fill="#8EE388"/><path d="M106.418 51.09a.356.356 0 0 0-.59-.262c-1.186 1.032-4.378 3.065-10.79 2.657-6.157-.39-13.006 3.39-14.858 11.287-.111.477.487.797.816.432 3.73-4.123 8.448-5.805 11.77-6.487.393-.083.555.486.177.623-3.878 1.414-10.76 5.077-14.867 11.957-.496.83-.951 1.708-1.355 2.634a30.439 30.439 0 0 0-3.04-5.415c-4.548-6.445-10.645-9.605-14.718-11.087-.42-.154-.24-.785.197-.696 3.7.761 8.95 2.633 13.1 7.223.368.404 1.035.05.909-.482-2.061-8.789-9.684-12.995-16.538-12.562-7.138.453-10.69-1.81-12.01-2.957a.396.396 0 0 0-.656.288c-.5 23.191 17.633 26.39 25.516 23.772.44-.146.96-.057 1.482.15 1.661.662 2.718 2.31 2.718 4.097v.502c0 1.181.905 2.198 2.085 2.257a2.199 2.199 0 0 0 2.267-1.761c.08-.405.183-.807.355-1.182 1.436-3.143 3.847-4.052 5.106-3.634 7.082 2.355 23.374-.52 22.924-21.355z" fill="url(#paint22_linear)"/><path d="M106.418 51.09a.353.353 0 0 0-.453-.332c-.933 2.005-3.958 6.427-13.022 8.582-3.878 1.414-10.76 5.077-14.867 11.957-.496.83-.951 1.708-1.355 2.634l-.01-.02c-.572 1.744-.888 3.478-.962 5.108l.017.002a2.198 2.198 0 0 0 2.267-1.761c.081-.405.183-.807.355-1.182 1.436-3.142 3.848-4.052 5.106-3.634 7.082 2.355 23.373-.52 22.924-21.355z" fill="url(#paint23_linear)"/><path d="M76.025 72.442a30.25 30.25 0 0 0-2.343-3.926c-4.549-6.445-10.646-9.605-14.719-11.087-9.86-2.177-13.582-7.565-14.654-9.57a.394.394 0 0 0-.344.384c-.499 23.192 17.633 26.391 25.517 23.772.44-.146.96-.057 1.482.151 1.66.661 2.717 2.31 2.717 4.097v.502c0 1.18.906 2.198 2.086 2.256.087.004.173.002.258-.004v-6.575z" fill="url(#paint24_linear)"/><path d="M73.055 80.547a36.235 36.235 0 0 1-4.25 10.672 2.206 2.206 0 0 0 3.783 2.27 40.621 40.621 0 0 0 4.665-11.504l-4.198-1.438z" fill="url(#paint25_linear)"/><path d="M78.388 76.078c.051-.111.103-.218.156-.324l-1.823-1.823s1.194 2.435 1.085 4.941l.047-.009c.106-.72.165-1.294.199-1.686.078-.377.177-.75.336-1.1z" fill="url(#paint26_linear)"/><path d="M83.184 26.006c1.276 2.78 4.986 12.939-5.067 19.86a.354.354 0 0 1-.478-.073 19.162 19.162 0 0 1-2.168-3.554 10.123 10.123 0 0 1 2.94-12.305 21.044 21.044 0 0 0 3.959-4.017.476.476 0 0 1 .814.088z" fill="url(#paint27_linear)"/><path d="M83.184 26.006a.471.471 0 0 0-.327-.267c-.71 3.12-2.562 6.925-4.366 10.419-2.033 3.936-1.041 8.53-.724 9.734.11.053.243.048.35-.026 10.053-6.921 6.343-17.08 5.067-19.86z" fill="url(#paint28_linear)"/><path d="M97.344 92.376a10.2 10.2 0 0 0-3.495.613 2.694 2.694 0 0 1-2.87-.676 7.696 7.696 0 0 0-5.59-2.394 7.74 7.74 0 0 0-2.01.264 2.69 2.69 0 0 1-2.642-.755 14.863 14.863 0 0 0-10.793-4.627c-5.074 0-9.556 2.537-12.249 6.412a2.741 2.741 0 0 1-2.343 1.168 9.793 9.793 0 0 0-.312-.005 10.234 10.234 0 0 0-9.564 6.589 1.38 1.38 0 0 0 1.29 1.872h58.852a1.38 1.38 0 0 0 1.29-1.872 10.234 10.234 0 0 0-9.564-6.589z" fill="url(#paint29_linear)"/><path d="M55.04 92.376c-.16 0-.32.005-.478.012l-.144.008a9.277 9.277 0 0 0-.338.026l-.152.015c-.124.014-.247.03-.37.047l-.097.014c-.153.023-.304.05-.455.08l-.116.026a10.908 10.908 0 0 0-.805.207l-.125.038a9.589 9.589 0 0 0-.429.145l-.059.022a10.88 10.88 0 0 0-.364.144l-.133.057a10.54 10.54 0 0 0-.76.367l-.063.033c-.13.07-.258.144-.384.221l-.113.07-.27.172c-.042.03-.084.058-.126.086-.09.061-.178.124-.265.189l-.101.073c-.117.088-.232.179-.345.271l-.082.07a9.302 9.302 0 0 0-.255.22l-.116.107a8.81 8.81 0 0 0-.326.315c-.094.094-.185.19-.274.287l-.052.057c-.09.1-.178.202-.264.304l-.1.123a12.298 12.298 0 0 0-.281.364 9.045 9.045 0 0 0-.181.255l-.077.11a6.272 6.272 0 0 0-.308.491c-.05.084-.1.17-.147.256-.03.052-.057.104-.086.157l-.129.252c-.025.05-.05.1-.074.152-.061.128-.12.257-.176.388l-.048.12a9.39 9.39 0 0 0-.104.262 1.38 1.38 0 0 0 1.298 1.848h18.35c-.84-4.806-5.03-8.461-10.076-8.461z" fill="url(#paint30_linear)"/><path d="M84.85 99.706a14.85 14.85 0 0 0-4.101-10.266l-.012-.013a15.028 15.028 0 0 0-2.233-1.924 14.886 14.886 0 0 0-.301-.206l-.02-.013a23.23 23.23 0 0 0-.287-.186l-.033-.02a16.185 16.185 0 0 0-.278-.172l-.044-.026c-.09-.053-.18-.106-.272-.157l-.055-.03c-.088-.05-.177-.098-.266-.147l-.064-.033c-.087-.046-.174-.09-.262-.135l-.072-.036a15.39 15.39 0 0 0-.258-.124l-.079-.037a12.53 12.53 0 0 0-.257-.116l-.084-.038a14.36 14.36 0 0 0-.256-.108l-.089-.036-.254-.1-.095-.036a9.56 9.56 0 0 0-.353-.127 14.17 14.17 0 0 0-.253-.085c-.034-.011-.068-.023-.103-.033a12.357 12.357 0 0 0-.253-.078l-.107-.032a12.506 12.506 0 0 0-.253-.07c-.036-.01-.073-.021-.11-.03a8.76 8.76 0 0 0-.255-.065l-.111-.027a8.855 8.855 0 0 0-.257-.058l-.112-.024c-.088-.019-.175-.035-.262-.052l-.111-.022a14.2 14.2 0 0 0-.376-.063l-.273-.04-.106-.014-.285-.034-.097-.011-.302-.028c-.027-.001-.055-.005-.081-.007a15.803 15.803 0 0 0-.387-.025 14.807 14.807 0 0 0-1.229-.014l-.115.005a14.267 14.267 0 0 0-.77.048l-.127.011c-.128.012-.254.026-.38.042l-.046.005c-.144.019-.287.039-.43.06l-.094.016a21.051 21.051 0 0 0-.456.082c-.1.019-.198.04-.297.06l-.125.028c-.112.025-.224.052-.335.08l-.075.018a14.32 14.32 0 0 0-.414.112l-.051.015c-.118.034-.235.07-.35.106-.037.012-.074.023-.11.036a9.285 9.285 0 0 0-.408.139c-.105.037-.208.076-.312.115-.026.011-.053.02-.08.03-.263.103-.522.214-.778.33l-.081.039a14.058 14.058 0 0 0-.691.343l-.074.039c-.25.134-.495.275-.736.422a15.195 15.195 0 0 0-.352.223l-.075.05c-.095.063-.19.126-.283.192l-.065.044c-.234.164-.462.334-.684.51l-.005.003c-.107.085-.212.17-.316.258l-.057.048c-.09.075-.178.152-.266.23l-.058.051c-.096.087-.192.175-.286.264l-.018.016c-.208.197-.41.398-.605.606l-.041.045c-.082.087-.163.176-.242.265l-.053.059a13.179 13.179 0 0 0-.272.316c-.182.22-.359.444-.528.673l-.03.04a14.833 14.833 0 0 0-2.85 9.956h29.725c.029-.374.043-.752.043-1.132z" fill="url(#paint31_linear)"/><path d="M87.269 100.837h18.349a1.38 1.38 0 0 0 1.298-1.848 10.822 10.822 0 0 0-.104-.262l-.048-.12a9.334 9.334 0 0 0-.38-.792c-.027-.053-.056-.105-.085-.157-.048-.086-.097-.17-.147-.256l-.077-.131a10.091 10.091 0 0 0-.231-.36l-.077-.11a8.45 8.45 0 0 0-.181-.254l-.101-.135a10.898 10.898 0 0 0-.87-1l-.107-.107a9.537 9.537 0 0 0-.219-.208l-.116-.106a8.52 8.52 0 0 0-.255-.222c-.028-.022-.055-.047-.082-.07a9.999 9.999 0 0 0-.345-.27l-.101-.074a14.317 14.317 0 0 0-.392-.275 12.795 12.795 0 0 0-.268-.172l-.114-.07c-.126-.076-.255-.15-.384-.221-.021-.012-.041-.021-.062-.032a9.178 9.178 0 0 0-.339-.174l-.131-.062a8.89 8.89 0 0 0-.291-.132c-.044-.019-.088-.039-.133-.057a9.01 9.01 0 0 0-.364-.143l-.058-.023a9.043 9.043 0 0 0-.43-.145l-.126-.038a11.019 11.019 0 0 0-.92-.232 9.329 9.329 0 0 0-.921-.142l-.153-.014a9.227 9.227 0 0 0-.481-.035 10.37 10.37 0 0 0-.974.001c-.053.002-.105.007-.158.01a11.69 11.69 0 0 0-.331.025 13.036 13.036 0 0 0-.965.14l-.191.038c-.096.02-.191.043-.286.066l-.181.045a9.757 9.757 0 0 0-.309.088c-.05.014-.1.027-.148.043a10.243 10.243 0 0 0-7.011 7.993z" fill="url(#paint32_linear)"/><path d="M45.476 98.964a1.381 1.381 0 0 0 1.29 1.873h58.852c.967 0 1.634-.97 1.29-1.873a10.257 10.257 0 0 0-3.272-4.423H48.748a10.252 10.252 0 0 0-3.272 4.423z" fill="url(#paint33_linear)"/><path d="M63.62 91.039a.752.752 0 1 1-1.505-.001.752.752 0 0 1 1.504 0zm7.989 1.259a1.19 1.19 0 1 1-2.382 0 1.19 1.19 0 0 1 2.382 0zM69.2 88.973a1.833 1.833 0 1 1-3.666 0 1.833 1.833 0 0 1 3.665 0zm-44.662 5.015a.751.751 0 1 1-1.503.001.751.751 0 0 1 1.503 0zm7.99 1.26a1.191 1.191 0 1 1-2.383 0 1.191 1.191 0 0 1 2.383 0zm-2.41-3.325a1.833 1.833 0 1 1-3.665 0 1.833 1.833 0 0 1 3.665 0z" fill="#827A74"/><path d="M15.538 64.787c-.204.31-.641.896-1.387 1.538a2.91 2.91 0 0 0-1.01 2.193v.018a2.551 2.551 0 0 0 5.101-.014v-.02a2.904 2.904 0 0 0-1.023-2.186c-.75-.637-1.19-1.22-1.396-1.53a.17.17 0 0 0-.285 0z" fill="url(#paint34_linear)"/><path d="M10.498 75.02c-.205.312-.642.898-1.387 1.538a2.907 2.907 0 0 0-1.01 2.194v.018a2.55 2.55 0 0 0 5.1-.015v-.018a2.908 2.908 0 0 0-1.023-2.188c-.748-.636-1.19-1.22-1.396-1.53a.17.17 0 0 0-.284.001z" fill="url(#paint35_linear)"/><path d="M4.102 68.625c-.204.311-.64.897-1.387 1.538a2.907 2.907 0 0 0-1.009 2.194v.018a2.549 2.549 0 1 0 5.1-.015v-.019a2.908 2.908 0 0 0-1.023-2.187c-.75-.636-1.19-1.22-1.396-1.53a.17.17 0 0 0-.285.001z" fill="url(#paint36_linear)"/><path d="M58.359 20.256a3.634 3.634 0 0 1-5.073-.814l-.216-.301-.062-.088C47.278 39.047 29.738 54.1 8.455 56.14c-2.163.207-4.03-1.504-4.03-3.676 0-1.892 1.43-3.49 3.314-3.67 17.948-1.72 32.787-14.24 37.93-30.966l-.437.318a3.632 3.632 0 0 1-5.073-.816 3.637 3.637 0 0 1 .814-5.074l6.185-4.47 1.436-1.036c.016-.014.033-.024.051-.037.038-.025.074-.05.113-.071a1.85 1.85 0 0 1 .282-.166c.056-.034.114-.057.172-.084.037-.018.079-.04.121-.057.093-.036.186-.074.281-.102.044-.012.084-.022.128-.036a5.85 5.85 0 0 1 .19-.048c.045-.012.09-.018.133-.027a2.33 2.33 0 0 1 .209-.031l.114-.016a4.031 4.031 0 0 1 .666 0l.122.016c.042.004.084.006.121.015.025.003.047.012.069.013.069.014.137.03.204.045.046.008.095.022.141.035.069.018.137.042.209.066.04.016.084.031.128.047.064.028.133.055.196.084.042.022.087.04.129.064.062.03.121.064.182.098l.125.077c.056.038.111.073.162.113a2.4 2.4 0 0 1 .13.095 5.403 5.403 0 0 1 .268.234c.044.042.084.085.129.134.037.037.075.079.112.121.043.048.08.099.12.15.022.029.046.054.066.082l.818 1.13 4.69 6.489a3.632 3.632 0 0 1-.816 5.072z" fill="url(#paint37_linear)"/><path d="M97.475 20.731c-2.54-.887-4.573-3.228-5.444-6.232a.409.409 0 0 0-.392-.299h-.138a.409.409 0 0 0-.391.3c-.871 3.003-2.904 5.344-5.445 6.231a.411.411 0 0 0-.281.386c0 .177.114.33.28.387 2.542.887 4.575 3.228 5.446 6.232.05.176.208.299.39.299h.14c.182 0 .34-.123.39-.299.871-3.004 2.904-5.345 5.445-6.232a.411.411 0 0 0 .281-.387.411.411 0 0 0-.28-.386z" fill="url(#paint38_linear)"/><path d="M104.074 24.596c-1.509-.527-2.714-1.916-3.231-3.698a.242.242 0 0 0-.232-.177h-.082a.242.242 0 0 0-.232.177c-.517 1.782-1.723 3.172-3.23 3.698a.244.244 0 0 0-.168.23c0 .104.069.194.168.228 1.507.527 2.713 1.916 3.23 3.699.03.103.124.177.232.177h.082a.242.242 0 0 0 .232-.177c.517-1.783 1.723-3.172 3.231-3.699a.244.244 0 0 0 .167-.229.244.244 0 0 0-.167-.23z" fill="url(#paint39_linear)"/><path d="M100.608 12.186c-1.508-.527-2.715-1.916-3.23-3.698a.242.242 0 0 0-.232-.178h-.083a.242.242 0 0 0-.231.178c-.517 1.782-1.724 3.171-3.232 3.698a.244.244 0 0 0-.166.229c0 .105.068.195.166.23 1.508.525 2.715 1.915 3.232 3.697.03.104.123.177.231.177h.083a.243.243 0 0 0 .232-.177c.516-1.782 1.722-3.172 3.23-3.698a.244.244 0 0 0 .167-.229.245.245 0 0 0-.167-.23z" fill="url(#paint40_linear)"/></g><defs><linearGradient id="paint0_linear" x1="41.898" y1="74.222" x2="41.898" y2="85.011" gradientUnits="userSpaceOnUse"><stop stop-color="#CFFFB4"/><stop offset="1" stop-color="#8EE388"/></linearGradient><linearGradient id="paint1_linear" x1="52.366" y1="76.075" x2="53.025" y2="60.548" gradientUnits="userSpaceOnUse"><stop stop-color="#8EE388" stop-opacity="0"/><stop offset="1" stop-color="#4B9345"/></linearGradient><linearGradient id="paint2_linear" x1="32.002" y1="75.696" x2="32.666" y2="60.031" gradientUnits="userSpaceOnUse"><stop stop-color="#8EE388" stop-opacity="0"/><stop offset="1" stop-color="#4B9345"/></linearGradient><linearGradient id="paint3_linear" x1="41.847" y1="88.602" x2="40.833" y2="90.952" gradientUnits="userSpaceOnUse"><stop stop-color="#8EE388" stop-opacity="0"/><stop offset="1" stop-color="#4B9345"/></linearGradient><linearGradient id="paint4_linear" x1="44.989" y1="85.676" x2="42.568" y2="84.519" gradientUnits="userSpaceOnUse"><stop stop-color="#8EE388" stop-opacity="0"/><stop offset="1" stop-color="#4B9345"/></linearGradient><linearGradient id="paint5_linear" x1="40.551" y1="68.278" x2="41.633" y2="68.278" gradientUnits="userSpaceOnUse"><stop stop-color="#FFF9B4"/><stop offset="1" stop-color="#FFF465"/></linearGradient><linearGradient id="paint6_linear" x1="42.315" y1="73.375" x2="44.028" y2="73.375" gradientUnits="userSpaceOnUse"><stop stop-color="#FFF9B4"/><stop offset="1" stop-color="#FFF465"/></linearGradient><linearGradient id="paint7_linear" x1="42.736" y1="70.252" x2="45.372" y2="70.252" gradientUnits="userSpaceOnUse"><stop stop-color="#FFF9B4"/><stop offset="1" stop-color="#FFF465"/></linearGradient><linearGradient id="paint8_linear" x1="16.864" y1="88.443" x2="23.406" y2="93.664" gradientUnits="userSpaceOnUse"><stop stop-color="#FFB92D"/><stop offset="1" stop-color="#F59500"/></linearGradient><linearGradient id="paint9_linear" x1="21.031" y1="89.599" x2="15.651" y2="92.504" gradientUnits="userSpaceOnUse"><stop stop-color="#BE3F45" stop-opacity="0"/><stop offset="1" stop-color="#BE3F45"/></linearGradient><linearGradient id="paint10_linear" x1="9.156" y1="91.276" x2="10.201" y2="98.32" gradientUnits="userSpaceOnUse"><stop stop-color="#FFB92D"/><stop offset="1" stop-color="#F59500"/></linearGradient><linearGradient id="paint11_linear" x1="11.08" y1="94.412" x2="6.045" y2="93.101" gradientUnits="userSpaceOnUse"><stop stop-color="#BE3F45" stop-opacity="0"/><stop offset="1" stop-color="#BE3F45"/></linearGradient><linearGradient id="paint12_linear" x1="17.093" y1="107.749" x2="45.788" y2="79.054" gradientUnits="userSpaceOnUse"><stop stop-color="#827A74"/><stop offset="1" stop-color="#605B55"/></linearGradient><linearGradient id="paint13_linear" x1="42.709" y1="101.205" x2="45.574" y2="91.995" gradientUnits="userSpaceOnUse"><stop stop-color="#605B55" stop-opacity="0"/><stop offset="1" stop-color="#4C4843"/></linearGradient><linearGradient id="paint14_linear" x1="28.599" y1="94.653" x2="22.566" y2="83.313" gradientUnits="userSpaceOnUse"><stop stop-color="#605B55" stop-opacity="0"/><stop offset="1" stop-color="#4C4843"/></linearGradient><linearGradient id="paint15_linear" x1="8.571" y1="98.293" x2="10.097" y2="90.388" gradientUnits="userSpaceOnUse"><stop stop-color="#605B55" stop-opacity="0"/><stop offset="1" stop-color="#4C4843"/></linearGradient><linearGradient id="paint16_linear" x1="25.606" y1="96.974" x2="25.606" y2="101.12" gradientUnits="userSpaceOnUse"><stop stop-color="#605B55" stop-opacity="0"/><stop offset="1" stop-color="#4C4843"/></linearGradient><linearGradient id="paint17_linear" x1="64.136" y1="75.174" x2="57.26" y2="68.298" gradientUnits="userSpaceOnUse"><stop stop-color="#8EE388" stop-opacity="0"/><stop offset="1" stop-color="#4B9345"/></linearGradient><linearGradient id="paint18_linear" x1="79.376" y1="43.924" x2="76.53" y2="58.23" gradientUnits="userSpaceOnUse"><stop stop-color="#CFFFB4"/><stop offset="1" stop-color="#8EE388"/></linearGradient><linearGradient id="paint19_linear" x1="67.193" y1="44.066" x2="70.392" y2="23.449" gradientUnits="userSpaceOnUse"><stop stop-color="#8EE388" stop-opacity="0"/><stop offset="1" stop-color="#4B9345"/></linearGradient><linearGradient id="paint20_linear" x1="90.018" y1="48.066" x2="93.291" y2="26.97" gradientUnits="userSpaceOnUse"><stop stop-color="#8EE388" stop-opacity="0"/><stop offset="1" stop-color="#4B9345"/></linearGradient><linearGradient id="paint21_linear" x1="76.447" y1="67.877" x2="77.576" y2="74.198" gradientUnits="userSpaceOnUse"><stop stop-color="#8EE388" stop-opacity="0"/><stop offset="1" stop-color="#4B9345"/></linearGradient><linearGradient id="paint22_linear" x1="75.191" y1="60.145" x2="75.191" y2="76.655" gradientUnits="userSpaceOnUse"><stop stop-color="#CFFFB4"/><stop offset="1" stop-color="#8EE388"/></linearGradient><linearGradient id="paint23_linear" x1="91.21" y1="62.98" x2="92.219" y2="39.219" gradientUnits="userSpaceOnUse"><stop stop-color="#8EE388" stop-opacity="0"/><stop offset="1" stop-color="#4B9345"/></linearGradient><linearGradient id="paint24_linear" x1="60.047" y1="62.4" x2="61.065" y2="38.429" gradientUnits="userSpaceOnUse"><stop stop-color="#8EE388" stop-opacity="0"/><stop offset="1" stop-color="#4B9345"/></linearGradient><linearGradient id="paint25_linear" x1="75.114" y1="82.15" x2="73.561" y2="85.745" gradientUnits="userSpaceOnUse"><stop stop-color="#8EE388" stop-opacity="0"/><stop offset="1" stop-color="#4B9345"/></linearGradient><linearGradient id="paint26_linear" x1="79.921" y1="77.671" x2="76.217" y2="75.901" gradientUnits="userSpaceOnUse"><stop stop-color="#8EE388" stop-opacity="0"/><stop offset="1" stop-color="#4B9345"/></linearGradient><linearGradient id="paint27_linear" x1="77.42" y1="39.648" x2="87.207" y2="26.017" gradientUnits="userSpaceOnUse"><stop stop-color="#CFFFB4"/><stop offset="1" stop-color="#8EE388"/></linearGradient><linearGradient id="paint28_linear" x1="82.863" y1="34.892" x2="59.205" y2="44.045" gradientUnits="userSpaceOnUse"><stop stop-color="#8EE388" stop-opacity="0"/><stop offset="1" stop-color="#4B9345"/></linearGradient><linearGradient id="paint29_linear" x1="86.434" y1="109.153" x2="51.91" y2="74.629" gradientUnits="userSpaceOnUse"><stop stop-color="#827A74"/><stop offset="1" stop-color="#605B55"/></linearGradient><linearGradient id="paint30_linear" x1="55.614" y1="101.28" x2="52.168" y2="90.198" gradientUnits="userSpaceOnUse"><stop stop-color="#605B55" stop-opacity="0"/><stop offset="1" stop-color="#4C4843"/></linearGradient><linearGradient id="paint31_linear" x1="72.591" y1="93.397" x2="79.849" y2="79.753" gradientUnits="userSpaceOnUse"><stop stop-color="#605B55" stop-opacity="0"/><stop offset="1" stop-color="#4C4843"/></linearGradient><linearGradient id="paint32_linear" x1="96.688" y1="97.776" x2="94.851" y2="88.265" gradientUnits="userSpaceOnUse"><stop stop-color="#605B55" stop-opacity="0"/><stop offset="1" stop-color="#4C4843"/></linearGradient><linearGradient id="paint33_linear" x1="76.192" y1="96.189" x2="76.192" y2="101.177" gradientUnits="userSpaceOnUse"><stop stop-color="#605B55" stop-opacity="0"/><stop offset="1" stop-color="#4C4843"/></linearGradient><linearGradient id="paint34_linear" x1="14.829" y1="67.53" x2="19.118" y2="71.793" gradientUnits="userSpaceOnUse"><stop stop-color="#62E1FB"/><stop offset="1" stop-color="#00A2F3"/></linearGradient><linearGradient id="paint35_linear" x1="9.788" y1="77.763" x2="14.077" y2="82.026" gradientUnits="userSpaceOnUse"><stop stop-color="#62E1FB"/><stop offset="1" stop-color="#00A2F3"/></linearGradient><linearGradient id="paint36_linear" x1="3.393" y1="71.368" x2="7.682" y2="75.631" gradientUnits="userSpaceOnUse"><stop stop-color="#62E1FB"/><stop offset="1" stop-color="#00A2F3"/></linearGradient><linearGradient id="paint37_linear" x1="34.326" y1="35.548" x2="41.847" y2="42.332" gradientUnits="userSpaceOnUse"><stop stop-color="#FF4C54"/><stop offset="1" stop-color="#BE3F45"/></linearGradient><linearGradient id="paint38_linear" x1="85.383" y1="21.118" x2="97.756" y2="21.118" gradientUnits="userSpaceOnUse"><stop stop-color="#FFF9B4"/><stop offset="1" stop-color="#FFF465"/></linearGradient><linearGradient id="paint39_linear" x1="96.899" y1="24.825" x2="104.241" y2="24.825" gradientUnits="userSpaceOnUse"><stop stop-color="#FFF9B4"/><stop offset="1" stop-color="#FFF465"/></linearGradient><linearGradient id="paint40_linear" x1="93.433" y1="12.415" x2="100.775" y2="12.415" gradientUnits="userSpaceOnUse"><stop stop-color="#FFF9B4"/><stop offset="1" stop-color="#FFF465"/></linearGradient><clipPath id="clip0"><path fill="#fff" d="M0 0h107v107H0z"/></clipPath></defs></svg>