<svg height="512" width="512" xmlns="http://www.w3.org/2000/svg" xmlns:xlink="http://www.w3.org/1999/xlink" data-name="Layer 1"><linearGradient id="a" gradientUnits="userSpaceOnUse" x1="24.422" x2="24.422" y1="480" y2="69.634"><stop offset=".322" stop-color="#a163f5"/><stop offset=".466" stop-color="#b074ee"/><stop offset=".752" stop-color="#d8a1dd"/><stop offset=".898" stop-color="#efbad3"/></linearGradient><linearGradient id="b" x1="50.04" x2="50.04" xlink:href="#a" y1="480" y2="69.634"/><linearGradient id="c" x1="242" x2="242" xlink:href="#a" y1="480" y2="69.634"/><linearGradient id="d" x1="349.104" x2="349.104" xlink:href="#a" y1="480" y2="69.634"/><linearGradient id="e" x1="298.996" x2="298.996" xlink:href="#a" y1="480" y2="69.634"/><linearGradient id="f" x1="115.354" x2="115.354" xlink:href="#a" y1="480" y2="69.634"/><linearGradient id="g" x1="129.672" x2="129.672" xlink:href="#a" y1="480" y2="69.634"/><linearGradient id="h" x1="74.163" x2="74.163" xlink:href="#a" y1="480" y2="69.634"/><linearGradient id="i" x1="15.691" x2="15.691" xlink:href="#a" y1="480" y2="69.634"/><linearGradient id="j" x1="261.598" x2="261.598" xlink:href="#a" y1="480" y2="69.634"/><linearGradient id="k" x1="373.326" x2="373.326" xlink:href="#a" y1="480" y2="69.634"/><linearGradient id="l" x1="423.706" x2="423.706" xlink:href="#a" y1="480" y2="69.634"/><linearGradient id="m" x1="320.877" x2="320.877" xlink:href="#a" y1="480" y2="69.634"/><linearGradient id="n" x1="305.694" x2="305.694" xlink:href="#a" y1="480" y2="69.634"/><path d="M22.534 403.492l-2.634 1.665a6 6 0 1 0 6.41 10.143l2.634-1.665a6 6 0 1 0-6.41-10.145z" fill="url(#a)"/><path d="M54.566 383.262L39.1 393.027a6 6 0 1 0 6.409 10.145l15.461-9.765a6 6 0 1 0-6.409-10.145z" fill="url(#b)"/><path d="M242 485.913a6 6 0 0 0-6 6v2.633a6 6 0 1 0 12 0v-2.633a6 6 0 0 0-6-6z" fill="url(#c)"/><path d="M353.071 459.943A6 6 0 1 0 342.6 465.8l2.541 4.546a6 6 0 1 0 10.474-5.854z" fill="url(#d)"/><path d="M295.466 42.45a5.99 5.99 0 0 0 7.251-4.407l4.216-17.285a6 6 0 0 0-11.659-2.843L291.059 35.2a6 6 0 0 0 4.407 7.25z" fill="url(#e)"/><path d="M120.113 485.782a6 6 0 0 0-8.281 1.851l-3.09 4.869a6 6 0 1 0 10.133 6.43l3.09-4.869a6 6 0 0 0-1.852-8.281z" fill="url(#f)"/><path d="M135.688 461.24a6 6 0 0 0-8.28 1.851l-5.6 8.829a6 6 0 1 0 10.131 6.431l5.6-8.83a6 6 0 0 0-1.851-8.281z" fill="url(#g)"/><path d="M72.851 80.034a6 6 0 1 0 8.836-8.119l-6.212-6.761a6 6 0 0 0-8.836 8.119z" fill="url(#h)"/><path d="M20.38 181.873a6 6 0 0 0 2.279-11.552l-9.382-3.849a6 6 0 1 0-4.554 11.1l9.381 3.849a5.965 5.965 0 0 0 2.276.452z" fill="url(#i)"/><path d="M362.975 111.975a143.565 143.565 0 0 0-40.871 5.916 39.367 39.367 0 0 1-25.212-37.582l.25-19.16a6 6 0 0 0-11.357-2.78l-8.617 17.082a39.236 39.236 0 0 1-70.207 0l-7.9-15.649c0-.02 0-.04-.01-.061l-10.174-44.788a6 6 0 1 0-11.7 2.659l9.832 43.261c0 .093-.022.183-.021.276l.251 19.16a39.06 39.06 0 0 1-21.267 35.791 38.463 38.463 0 0 1-40.9-2.868l-15.511-11.091c-.072-.051-.151-.086-.225-.133L95.333 86.766a6 6 0 1 0-8.833 8.119l14.75 16.051c.081.088.168.165.253.247l8.351 15.528a39.286 39.286 0 0 1-2.346 41.7 38.6 38.6 0 0 1-37.531 16.6l-17.2-2.336-12.01-4.927a6 6 0 0 0-4.555 11.1l10.476 4.3c.092.072.173.154.272.221l15.8 10.676a39.861 39.861 0 0 1-8.461 70.317l-17.873 6.559a5.963 5.963 0 0 0-.967.46l-14 1.749a6 6 0 0 0 .736 11.955 6.172 6.172 0 0 0 .752-.047L39.228 293a5.989 5.989 0 0 0 1.01-.222l16.508 1.8a38.775 38.775 0 0 1 32.536 25.242 39.264 39.264 0 0 1-7.644 40.99l-12.8 14.173a6 6 0 0 0 6.668 9.6l17.7-7.03a38.489 38.489 0 0 1 40.362 7.055 39.208 39.208 0 0 1 12.185 39.922l-4.8 18.543a6 6 0 0 0 10.366 5.4l12.426-14.509a39.271 39.271 0 0 1 68.165 16.954l4.309 18.664a6 6 0 0 0 11.693 0l4.31-18.664a39.272 39.272 0 0 1 68.166-16.954l12.425 14.509a6 6 0 0 0 10.366-5.406l-4.8-18.542a39.653 39.653 0 0 1 2.1-26.261 144.49 144.49 0 0 0 22.5 1.76C442.391 400.025 507 335.416 507 256s-64.609-144.025-144.025-144.025zm-7.787 12.235c2.578-.15 5.172-.235 7.787-.235a131.6 131.6 0 0 1 39.015 5.885 23.674 23.674 0 0 1-46.818-4.985c0-.221.011-.443.016-.665zm-29.531 297.916a51.257 51.257 0 0 0-83.593 20.737 51.255 51.255 0 0 0-83.6-20.731A51.6 51.6 0 0 0 141.5 375.6a50.909 50.909 0 0 0-47.533-10.96 51.825 51.825 0 0 0-30.585-81.13 51.9 51.9 0 0 0 10.4-86.16 51.017 51.017 0 0 0 43.587-22.1 51.694 51.694 0 0 0 5.388-49.279 50.855 50.855 0 0 0 48.774.77A51.43 51.43 0 0 0 199.02 85.7a51.216 51.216 0 0 0 86.084.009 51.027 51.027 0 0 0 21.819 37.624 144.086 144.086 0 0 0-30.717 17.794 128.145 128.145 0 1 0 17.224 240.958 143.1 143.1 0 0 0 35.07 13.759 51.348 51.348 0 0 0-2.843 26.282zm-44.885-47.933A116.162 116.162 0 1 1 242.064 148.5a116.8 116.8 0 0 1 22.717 2.239 143.843 143.843 0 0 0 15.991 223.451zm-49.518-109.318a25.049 25.049 0 1 1 12.225 47.225 131.024 131.024 0 0 1-12.225-47.225zm263.74-9.3a25.052 25.052 0 1 1-7.824-44.375 131.388 131.388 0 0 1 7.824 44.377zM480.3 198.24a37.056 37.056 0 1 0 14 71.36c-6.828 66.435-63.12 118.428-131.329 118.428A132.081 132.081 0 0 1 249.553 323.5a37.05 37.05 0 1 0-18.536-71.539c1.941-64.261 50.022-117.122 112.17-126.5a35.669 35.669 0 0 0 70.157 8.511 132.827 132.827 0 0 1 68.348 64.3 40.461 40.461 0 0 0-1.392-.032z" fill="url(#j)"/><path d="M373.326 227.226a26.014 26.014 0 1 0 26.014 26.013 26.043 26.043 0 0 0-26.014-26.013zm0 40.027a14.014 14.014 0 1 1 14.014-14.014 14.03 14.03 0 0 1-14.014 14.014z" fill="url(#k)"/><path d="M423.706 323.844a19.8 19.8 0 1 0 19.8 19.8 19.825 19.825 0 0 0-19.8-19.8zm0 27.605a7.8 7.8 0 1 1 7.8-7.8 7.811 7.811 0 0 1-7.8 7.8z" fill="url(#l)"/><circle cx="320.877" cy="338.815" fill="url(#m)" r="11"/><path d="M325.5 190.438a19.8 19.8 0 1 0-19.8 19.8 19.826 19.826 0 0 0 19.8-19.8zm-19.8 7.8a7.8 7.8 0 1 1 7.8-7.8 7.811 7.811 0 0 1-7.807 7.802z" fill="url(#n)"/></svg>