<svg width="178" height="179" fill="none" xmlns="http://www.w3.org/2000/svg"><circle cx="88.958" cy="89.821" r="88.948" fill="#000" fill-opacity=".25"/><mask id="a" maskUnits="userSpaceOnUse" x="0" y="0" width="178" height="179"><circle cx="88.958" cy="89.821" r="88.948" fill="#C4C4C4"/></mask><g mask="url(#a)"><path fill-rule="evenodd" clip-rule="evenodd" d="M84.695 52.002c-3.93 0-7.143 3.212-7.143 7.15v9.254l4.938 5.527c3.88 0 9.355-2.273 9.355-2.273l5.399-7.457-5.4-5.05c0-3.939-3.212-7.151-7.15-7.151z" fill="#C38C66"/><path fill-rule="evenodd" clip-rule="evenodd" d="M70.401 52.002c-3.93 0-7.15 3.22-7.15 7.15v9.796c4.757 4.981 7.584 7.466 8.536 7.457l5.765-8 3.678-5.44-3.678-3.813c0-3.938-3.22-7.15-7.15-7.15z" fill="#C38C66"/><path fill-rule="evenodd" clip-rule="evenodd" d="M63.251 68.948a7.361 7.361 0 0 0-4.58 6.65l-.02 13.683c-.241 9.179 11.425 13.084 11.425 25.416v6.583l16.39 12.186 20.706-12.186v-7.075c0-17.455 10.588-13.283 10.588-29.754V73.93c0 3.195-2.612 5.807-5.807 5.807-3.196 0-5.807-2.611-5.807-5.807 0 3.588-3.221 6.516-7.15 6.516-3.93 0-7.151-2.928-7.151-6.516v-2.27c0-3.287-3.513-3.254-7.393-3.254H65.963a7.38 7.38 0 0 0-2.712.542z" fill="#D19A6E"/><path fill-rule="evenodd" clip-rule="evenodd" d="M66.038 123.049v56.045c0 .968.793 1.761 1.769 1.761h26.049c-.434-.843 19.059-15.874 17.346-44.072v-13.734c0-.976-.793-1.769-1.761-1.769H67.806a1.77 1.77 0 0 0-1.768 1.769z" fill="#C3DDFF"/><path fill-rule="evenodd" clip-rule="evenodd" d="M77.551 68.406v-9.254c0-3.938-3.22-7.15-7.15-7.15-1.652 0-3.17.559-4.38 1.51 3.237.676 5.681 3.563 5.681 6.992v7.902h5.85z" fill="#B57F5F"/><path fill-rule="evenodd" clip-rule="evenodd" d="M107.172 114.205c0-17.455 10.588-13.283 10.588-29.754V73.93c0 3.195-2.612 5.807-5.807 5.807-.768 0-1.494-.15-2.17-.417a6.537 6.537 0 0 1-.959-.5v2.928c0 16.47-10.588 12.307-10.588 29.754v9.779h8.936v-7.076z" fill="#C38C66"/><path fill-rule="evenodd" clip-rule="evenodd" d="M111.202 123.049c0-.976-.793-1.769-1.761-1.769H98.236v24.372a31.632 31.632 0 0 1 12.966-8.869v-13.734z" fill="#9DC6FB"/><path d="M91.844 59.312c0-3.78-2.87-7.028-6.641-7.292a7.081 7.081 0 0 0-4.63 1.3c2.794.968 4.813 3.638 4.813 6.75v8.336c.191 0 .38.003.568.005.81.011 1.45.684 1.44 1.495l-.002.413c-.003 2.465-.372 4.538-1.73 6.028-1.217 1.335-2.965 2.07-4.92 2.07h-4.325c-3.949 0-6.309 3.132-6.309 6.16v1.918c0 .089-.003.17-.005.243-.091 2.943 2.37 3.174 3.303 3.262a11.661 11.661 0 0 1 10.287 8.9 2.205 2.205 0 0 0 2.692 1.62c1.181-.303 1.858-1.591 1.563-2.775a16.065 16.065 0 0 0-13.433-12.054v-1.114c0-.704.507-1.752 1.902-1.752h4.325c3.21 0 6.114-1.246 8.177-3.508 1.865-2.046 2.874-4.78 2.92-7.82.002.055.005.108.005.163V59.312z" fill="#B57F5F"/><path fill-rule="evenodd" clip-rule="evenodd" d="M106.146 62.982V73.93c0 3.196 2.611 5.808 5.807 5.808 3.195 0 5.807-2.612 5.807-5.808V62.982c0-3.187-2.612-5.798-5.807-5.798-3.196 0-5.807 2.611-5.807 5.798z" fill="#C38C66"/><path fill-rule="evenodd" clip-rule="evenodd" d="M117.76 62.982c0-3.187-2.612-5.798-5.808-5.798a5.77 5.77 0 0 0-2.653.642c2.128.868 3.638 2.954 3.638 5.39v10.94a5.823 5.823 0 0 1-3.154 5.164 5.872 5.872 0 0 0 2.169.417c3.196 0 5.808-2.611 5.808-5.807V62.982z" fill="#B57F5F"/><path fill-rule="evenodd" clip-rule="evenodd" d="M91.844 71.66v2.27c0 3.587 3.22 6.516 7.15 6.516s7.151-2.929 7.151-6.517l5.398-4.981-5.398-5.966v-4.464c0-3.587-3.221-6.516-7.15-6.516-3.93 0-7.15 2.929-7.15 6.516V71.66z" fill="#C38C66"/><path fill-rule="evenodd" clip-rule="evenodd" d="M106.145 62.982v-4.464c0-3.587-3.221-6.516-7.15-6.516-.977 0-1.911.175-2.762.509 2.094 1.135 3.504 3.22 3.504 5.598V73.53c0 2.686-1.819 5.014-4.389 5.999a7.6 7.6 0 0 0 3.646.917c3.93 0 7.151-2.928 7.151-6.516V62.982z" fill="#B57F5F"/><path fill-rule="evenodd" clip-rule="evenodd" d="M31.253 112.363L14.566 132.83c-.35.434-.409.743.284.743h6.891c.735 0 1.344.609 1.344 1.352v42.595c0 .776.634 1.41 1.41 1.41h15.419c.776 0 1.41-.634 1.41-1.41v-42.596c0-.742.61-1.351 1.352-1.351h6.883c.701 0 .634-.309.284-.743l-16.679-20.468c-.61-.742-1.31-.742-1.911.001zm2.228-58.25L18.771 72.17c-.316.384-.366.65.251.65h6.066c.659 0 1.193.535 1.193 1.194v23.93c0 .684.559 1.243 1.243 1.243h13.6c.676 0 1.243-.559 1.243-1.243v-23.93c0-.66.534-1.193 1.185-1.193h6.074c.61 0 .56-.267.25-.651l-14.71-18.056c-.533-.65-1.15-.65-1.684 0zm113.506 20.309l-14.718 18.056c-.309.375-.359.65.259.65h6.065c.651 0 1.193.534 1.193 1.194v23.93c0 .684.559 1.243 1.244 1.243h13.591c.684 0 1.244-.559 1.244-1.243v-23.93c0-.66.542-1.194 1.193-1.194h6.065c.618 0 .568-.275.259-.65l-14.71-18.056c-.534-.651-1.16-.651-1.685 0z" fill="#C3DDFF"/><path fill-rule="evenodd" clip-rule="evenodd" d="M96.754 128.69c-9.979 5.306-16.778 15.803-16.778 27.893a31.431 31.431 0 0 0 3.462 14.385c5.223 10.179 15.811 17.154 28.034 17.18h.142c17.397-.042 31.497-14.16 31.497-31.565 0-17.43-14.134-31.564-31.572-31.564-3.771 0-7.4.659-10.755 1.877a32.394 32.394 0 0 0-4.03 1.794z" fill="#FFE07D"/><path fill-rule="evenodd" clip-rule="evenodd" d="M96.755 146.813c-2.979 3.779-2.979 9.286 0 13.066.208.267.434.525.676.776l1.568 1.56 1.786 1.769 9.762 9.679c.5.392.751.609.993.617.25-.008.5-.225 1.001-.617l11.539-11.448 1.577-1.56c3.88-4.022 3.88-10.597 0-14.619-3.521-3.654-9.22-2.736-12.983.66-.701.625-.943.934-1.134.934-.184 0-.426-.309-1.127-.934-2.72-2.454-6.441-3.613-9.628-2.687a7.438 7.438 0 0 0-3.354 2.027c-.242.251-.468.51-.676.777z" fill="#FF8086"/><path fill-rule="evenodd" clip-rule="evenodd" d="M118.015 143.909c2.87 4.038 2.544 9.787-.977 13.434l-1.577 1.56-9.895 9.82 4.981 4.94c.501.392.751.609.993.617.25-.008.5-.225 1.001-.617l11.539-11.448 1.577-1.56c3.88-4.022 3.88-10.596 0-14.618-2.069-2.145-4.897-2.712-7.642-2.128z" fill="#E5646E"/><path fill-rule="evenodd" clip-rule="evenodd" d="M143.111 156.583c0-17.43-14.134-31.564-31.572-31.564-2.227 0-4.413.233-6.516.676 16.07 1.468 28.66 14.977 28.66 31.431 0 15.193-10.747 27.884-25.047 30.888.934.084 1.877.134 2.836.134h.142c17.397-.042 31.497-14.16 31.497-31.565z" fill="#FFD064"/></g></svg>