<svg width="106" height="107" fill="none" xmlns="http://www.w3.org/2000/svg"><path d="M90.964 53.64c0 21.206-16.997 38.397-37.964 38.397S15.036 74.846 15.036 53.639c0-21.206 16.997-38.397 37.964-38.397S90.964 32.433 90.964 53.64z" fill="#fff"/><path d="M37.741 46.83h-5.77c-.817 0-1.48-.67-1.48-1.495v-9.309c0-.826.663-1.495 1.48-1.495h5.77c.816 0 1.479.67 1.479 1.495v9.31c0 .825-.663 1.495-1.479 1.495z" fill="#605B55"/><path d="M78.835 50.151v40.226H27.172V50.151l25.831-26.284L78.835 50.15z" fill="url(#paint0_linear)"/><path d="M27.172 57.649v32.728h32.426L27.172 57.649z" fill="url(#paint1_linear)"/><path d="M78.835 50.151v40.226H62.524L27.172 54.622v-4.47l25.831-26.285L78.835 50.15z" fill="url(#paint2_linear)"/><path d="M78.836 60.758L54.368 36.012a1.468 1.468 0 0 0-1.368-.95c-.811 0-1.468.666-1.468 1.486v.45c-.333.163-.646.38-.92.658L37.077 51.344a1.497 1.497 0 0 0 .032 2.132l36.647 36.9h5.08V60.758z" fill="url(#paint3_linear)"/><path d="M70.852 90.377H45.586L31.696 76.33a2.253 2.253 0 0 1-1.018-1.887V63.138c0-1.238.997-2.247 2.222-2.247h8.059c.782 0 1.47.411 1.866 1.03l-.06.048 28.087 28.408z" fill="url(#paint4_linear)"/><path d="M40.96 75.373H32.9a.925.925 0 0 1-.92-.93V63.139c0-.514.412-.931.92-.931h8.06c.507 0 .919.417.919.93v11.305c0 .513-.412.93-.92.93z" fill="#605B55"/><path d="M32.901 75.373h8.058c.508 0 .92-.417.92-.93v-1.95l-9.756-9.848a.932.932 0 0 0-.142.494v11.304c0 .513.411.93.92.93z" fill="url(#paint5_linear)"/><path d="M40.959 76.69h-8.058c-1.226 0-2.223-1.007-2.223-2.247V63.139c0-1.24.997-2.248 2.223-2.248h8.058c1.225 0 2.222 1.009 2.222 2.248v11.304c0 1.24-.997 2.247-2.222 2.247zm-7.676-2.634h7.293v-10.53h-7.293v10.53z" fill="#fff"/><path d="M32.9 76.69h8.059c1.225 0 2.222-1.007 2.222-2.247v-.635l-2.605-2.63v2.879h-7.293v-10.24l-2.093-2.112c-.32.39-.512.889-.512 1.434v11.304c0 1.24.997 2.247 2.223 2.247z" fill="url(#paint6_linear)"/><path d="M78.836 65.554v24.823h-.793L64.155 76.33a2.253 2.253 0 0 1-1.021-1.887V63.138c0-1.238.997-2.247 2.224-2.247h8.056c.782 0 1.47.411 1.867 1.03l.032.025-.022.023 3.545 3.585z" fill="url(#paint7_linear)"/><path d="M73.415 75.373h-8.058a.926.926 0 0 1-.92-.93V63.139c0-.514.412-.931.92-.931h8.058c.508 0 .92.417.92.93v11.305c0 .513-.412.93-.92.93z" fill="#605B55"/><path d="M73.415 76.69h-8.058c-1.225 0-2.222-1.007-2.222-2.247V63.139c0-1.24.997-2.248 2.222-2.248h8.058c1.226 0 2.223 1.009 2.223 2.248v11.304c0 1.24-.997 2.247-2.223 2.247zm-7.675-2.634h7.293v-10.53H65.74v10.53z" fill="#fff"/><path d="M84.677 53.785l-30.12-30.472a2.181 2.181 0 0 0-3.108 0l-30.125 30.47a1.467 1.467 0 0 0 0 2.056l1.283 1.3a1.428 1.428 0 0 0 2.034 0l27.953-28.273a.573.573 0 0 1 .819 0l27.946 28.275a1.427 1.427 0 0 0 2.034 0l1.284-1.3a1.467 1.467 0 0 0 0-2.056z" fill="url(#paint8_linear)"/><path d="M54.558 23.313a2.176 2.176 0 0 0-1.555-.651v6.032a.57.57 0 0 1 .41.172l27.946 28.275a1.428 1.428 0 0 0 2.034 0l1.284-1.3a1.467 1.467 0 0 0 0-2.056l-30.12-30.472z" fill="url(#paint9_linear)"/><path d="M47.62 90.376v-25.38c0-3.007 2.41-5.445 5.383-5.445 2.974 0 5.384 2.438 5.384 5.445v25.38H47.621z" fill="url(#paint10_linear)"/><path d="M59.72 90.376h-2.666v-25.41c0-2.236-1.809-4.066-4.02-4.066h-.06c-2.22 0-4.02 1.82-4.02 4.066v25.41h-2.667v-25.38c0-3.752 3.008-6.793 6.717-6.793 3.709 0 6.717 3.041 6.717 6.793v25.38z" fill="#605B55"/><path d="M52.31 70.265c0 .68-.545 1.23-1.217 1.23-.671 0-1.215-.55-1.215-1.23 0-.678.544-1.229 1.215-1.229.672 0 1.216.55 1.216 1.23z" fill="#fff"/><path d="M40.662 50.413L53 37.935l12.338 12.478H40.662z" fill="#605B55"/><path d="M53 35.063c-.811 0-1.468.665-1.468 1.485v14.064c0 .82.657 1.485 1.468 1.485.811 0 1.469-.665 1.469-1.485V36.548c0-.82-.658-1.485-1.469-1.485z" fill="url(#paint11_linear)"/><path d="M40.271 49.522h25.458c.811 0 1.47.665 1.47 1.486 0 .82-.659 1.485-1.47 1.485H40.271c-.811 0-1.47-.665-1.47-1.485 0-.82.659-1.486 1.47-1.486z" fill="url(#paint12_linear)"/><path d="M67.884 53.88c-.376 0-.752-.145-1.039-.436L54.127 40.581a1.581 1.581 0 0 0-2.253 0L39.199 53.4c-.569.574-1.503.633-2.089.075a1.498 1.498 0 0 1-.032-2.133L50.61 37.656a3.352 3.352 0 0 1 4.78 0l13.532 13.687c.574.58.574 1.521 0 2.101-.286.29-.662.435-1.038.435z" fill="url(#paint13_linear)"/><path d="M68.921 53.444a1.45 1.45 0 0 1-2.076 0L54.47 40.927v-3.933c.333.163.644.382.92.662l13.532 13.688c.575.58.575 1.52 0 2.1z" fill="url(#paint14_linear)"/><path d="M98.35 55.076c-.748 24.429-20.509 44.1-44.783 44.347-.177 0-.354.004-.531.004-20.332-.03-37.569-13.687-43.231-32.41l-.147.205-.307.433c-1.672 2.335-4.903 2.861-7.212 1.17-2.313-1.69-2.83-4.954-1.159-7.294l6.667-9.328L8.81 50.58c.03-.041.063-.079.096-.12.056-.07.11-.145.17-.215.051-.06.106-.12.158-.176.063-.067.122-.13.184-.19a6.64 6.64 0 0 1 .38-.336c.06-.048.123-.093.185-.139a5.76 5.76 0 0 1 .229-.16c.059-.037.122-.074.18-.112.086-.048.17-.096.259-.141.059-.034.122-.06.181-.09l.28-.123.185-.067c.1-.034.196-.067.295-.093.067-.02.133-.038.2-.053.095-.022.19-.045.291-.063.03-.004.062-.015.096-.02.055-.01.114-.014.173-.021l.173-.022a6.14 6.14 0 0 1 .473-.023c.158 0 .314.011.472.023l.166.022c.096.011.196.026.295.045.063.011.125.022.188.037.093.022.18.044.27.07.062.02.121.034.184.053.133.04.266.093.398.146.06.026.118.055.174.081.08.038.162.076.243.12a4.71 4.71 0 0 1 .56.343c.027.02.053.034.075.053l2.04 1.488 8.791 6.43c2.31 1.69 2.83 4.959 1.16 7.294a5.128 5.128 0 0 1-7.214 1.172l-.682-.5C24.814 78.855 37.47 88.668 52.39 88.971c.21.003.42.007.631.007.137 0 .277-.004.413-.004 11.584-.108 21.84-5.947 28.123-14.846a35.353 35.353 0 0 0 6.379-17.75l2.04 1.492c.026.019.052.034.074.052l.16.104c.076.05.15.098.227.142.06.033.118.068.177.097.078.045.159.082.24.12.06.026.114.055.177.081.13.053.262.105.398.146.06.019.123.034.182.052a5.06 5.06 0 0 0 .461.108c.099.02.195.034.295.045l.166.022c.155.012.313.022.473.022.154 0 .313-.01.471-.022l.174-.022c.055-.008.114-.011.173-.023.033-.003.063-.014.096-.018.096-.019.192-.04.288-.063.07-.015.136-.034.202-.053.1-.026.196-.06.292-.093l.185-.067a15.5 15.5 0 0 0 .28-.124c.063-.03.122-.055.18-.089.09-.045.175-.093.26-.141l.184-.112c.078-.053.155-.105.229-.16.062-.046.121-.09.184-.139.066-.056.137-.112.203-.172.06-.052.118-.108.177-.164.062-.06.121-.123.18-.19.056-.056.108-.116.159-.176.063-.07.118-.145.174-.216.029-.04.062-.078.092-.119l1.161-1.623z" fill="url(#paint15_linear)"/><path d="M7.65 52.203c.749-24.43 20.509-44.101 44.783-44.347.177 0 .354-.004.532-.004 20.33.03 37.567 13.687 43.23 32.41l.148-.205.306-.433a5.13 5.13 0 0 1 7.212-1.17c2.313 1.689 2.83 4.954 1.158 7.294l-6.666 9.328L97.19 56.7c-.03.04-.063.079-.096.12-.055.07-.11.145-.17.215-.051.06-.106.12-.158.176-.063.067-.122.13-.184.19a6.489 6.489 0 0 1-.38.336c-.06.048-.123.093-.185.138a4.236 4.236 0 0 1-.229.16l-.18.113c-.085.048-.17.096-.258.141-.06.034-.122.06-.181.09l-.28.123-.185.067c-.1.034-.196.067-.295.093-.067.019-.133.038-.2.053-.096.022-.191.044-.29.063-.03.004-.064.015-.097.018-.055.012-.114.015-.174.023l-.173.022a6.662 6.662 0 0 1-.472.022 6.21 6.21 0 0 1-.472-.022l-.166-.023a3.95 3.95 0 0 1-.295-.044 3.921 3.921 0 0 1-.458-.109l-.184-.051c-.133-.04-.266-.093-.399-.146-.059-.026-.118-.056-.173-.082a3.35 3.35 0 0 1-.243-.12 3.677 3.677 0 0 1-.402-.239 2.2 2.2 0 0 1-.159-.103c-.026-.02-.052-.034-.074-.053l-2.04-1.488-8.791-6.43c-2.31-1.69-2.83-4.959-1.16-7.294a5.127 5.127 0 0 1 7.214-1.172l.682.5C81.187 28.423 68.53 18.61 53.611 18.307c-.21-.004-.42-.007-.631-.007l-.413.003c-11.584.109-21.84 5.948-28.123 14.847a35.349 35.349 0 0 0-6.38 17.75l-2.04-1.492c-.025-.019-.051-.034-.074-.053a7.255 7.255 0 0 0-.158-.104c-.078-.048-.151-.097-.229-.142-.06-.033-.118-.067-.177-.097-.077-.044-.159-.082-.24-.12-.059-.026-.114-.055-.177-.081a4.559 4.559 0 0 0-.398-.146c-.06-.019-.122-.033-.18-.052-.09-.026-.182-.048-.27-.07-.063-.016-.13-.027-.193-.038a4.061 4.061 0 0 0-.295-.045l-.165-.022a6.383 6.383 0 0 0-.473-.023 6.58 6.58 0 0 0-.472.023l-.173.022c-.056.007-.115.011-.174.022-.033.004-.062.016-.095.019a7.464 7.464 0 0 0-.491.116c-.1.025-.196.06-.291.093a5.959 5.959 0 0 0-.185.067c-.096.041-.188.082-.28.123-.063.03-.122.056-.18.09a6.085 6.085 0 0 0-.26.141l-.184.112a7.92 7.92 0 0 0-.413.299c-.067.056-.137.112-.203.172-.06.052-.118.108-.177.163-.063.06-.122.124-.18.19a3.239 3.239 0 0 0-.16.176c-.062.071-.117.146-.173.217-.03.04-.062.078-.092.12L7.65 52.202z" fill="url(#paint16_linear)"/><path d="M97.096 56.818c-.056.072-.11.146-.174.217-.05.06-.102.12-.158.175-.06.067-.118.131-.18.19-.06.056-.119.112-.178.164-.067.06-.136.117-.203.172-.063.05-.122.093-.184.138-.074.056-.152.108-.229.16-.059.038-.122.075-.184.113-.085.048-.17.097-.26.141-.058.034-.117.06-.18.09-.092.041-.184.082-.28.123-.06.023-.122.045-.184.067a3.572 3.572 0 0 1-.292.094c-.067.018-.133.037-.203.052a6.164 6.164 0 0 1-.287.063c-.034.005-.064.015-.097.02-.059.01-.118.014-.173.021-.059.008-.115.016-.174.022a6.58 6.58 0 0 1-.472.023c-.158 0-.317-.011-.471-.023l-.167-.022a3.75 3.75 0 0 1-.295-.044 3.424 3.424 0 0 1-.192-.038c-.088-.022-.181-.044-.27-.07-.058-.02-.121-.034-.18-.053a4.8 4.8 0 0 1-.398-.145c-.063-.026-.118-.056-.177-.082a2.657 2.657 0 0 1-.24-.12 3.82 3.82 0 0 1-.178-.096c-.077-.045-.15-.094-.228-.142a9.246 9.246 0 0 1-.159-.105c-.022-.018-.048-.033-.074-.052l-2.04-1.493v.008l8.919 9.02a46.097 46.097 0 0 0 1.496-10.33L97.188 56.7c-.03.042-.063.079-.092.12z" fill="url(#paint17_linear)"/><path d="M53.133 18.302l-5.965-6.326a.32.32 0 0 0-.142-.09.317.317 0 0 0-.146-.013c-.588.098-1.987.379-3.644 1.06-3.623 1.492-5.872 5.113-5.728 8.985a34.39 34.39 0 0 1 15.058-3.614c.136 0 .276-.004.413-.004l.154.002z" fill="url(#paint18_linear)"/><path d="M37.522 21.911l-4.652-4.71a13.242 13.242 0 0 0-3.438-2.703 45.792 45.792 0 0 0-11.829 10.5 15.344 15.344 0 0 0 2.81 3.592c.144.15.29.299.44.443l3.793 3.837a35.29 35.29 0 0 1 12.876-10.96z" fill="url(#paint19_linear)"/><path d="M36.279 34.531h-2.493a2.716 2.716 0 0 0-2.454-1.438c-6.8.185-20.256-6.706-14.36-24.973a.317.317 0 0 1 .355-.221c.017.002.032.006.048.01a.303.303 0 0 1 .179.139c.763 1.226 3.01 3.872 8.713 5.228 5.477 1.301 10.454 6.467 9.985 13.929-.029.452-.636.574-.827.164-2.164-4.635-5.836-7.378-8.555-8.871-.322-.177-.613.281-.32.504 3.302 2.504 8.213 7.458 9.729 15.53z" fill="url(#paint20_linear)"/><path d="M38.41 28.75c2.568-1.091 11.314-5.67 8.835-16.628a.322.322 0 0 0-.365-.249c-.588.098-1.987.379-3.644 1.061-3.994 1.644-6.319 5.875-5.607 10.178.248 1.498.378 3.278.18 5.19a.435.435 0 0 0 .6.447z" fill="url(#paint21_linear)"/><path d="M36.279 34.531h-2.493a2.716 2.716 0 0 0-2.454-1.438c-6.8.185-20.256-6.706-14.36-24.973a.317.317 0 0 1 .355-.221c.017.002.032.006.048.01.396 1.623 2.1 6.24 9.175 11.093 3.302 2.504 8.213 7.458 9.729 15.53z" fill="url(#paint22_linear)"/><path d="M38.41 28.75a.423.423 0 0 1-.383-.024c1.445-2.558 2.547-6.293 3.488-9.787 1.062-3.936 4.557-6.434 5.512-7.053.106.033.191.12.218.236 2.479 10.958-6.267 15.537-8.836 16.627z" fill="url(#paint23_linear)"/><defs><linearGradient id="paint0_linear" x1="53.004" y1="57.583" x2="53.004" y2="104.665" gradientUnits="userSpaceOnUse"><stop stop-color="#FFF9B4"/><stop offset="1" stop-color="#FFF465"/></linearGradient><linearGradient id="paint1_linear" x1="41.826" y1="88.8" x2="13.908" y2="61.197" gradientUnits="userSpaceOnUse"><stop stop-color="#FFB92D" stop-opacity="0"/><stop offset="1" stop-color="#F59500"/></linearGradient><linearGradient id="paint2_linear" x1="47.297" y1="46.536" x2="30.558" y2="29.986" gradientUnits="userSpaceOnUse"><stop stop-color="#FFB92D" stop-opacity="0"/><stop offset="1" stop-color="#F59500"/></linearGradient><linearGradient id="paint3_linear" x1="57.762" y1="56.815" x2="31.139" y2="30.492" gradientUnits="userSpaceOnUse"><stop stop-color="#FFB92D" stop-opacity="0"/><stop offset="1" stop-color="#F59500"/></linearGradient><linearGradient id="paint4_linear" x1="47.754" y1="79.738" x2="24.183" y2="56.432" gradientUnits="userSpaceOnUse"><stop stop-color="#FFB92D" stop-opacity="0"/><stop offset="1" stop-color="#F59500"/></linearGradient><linearGradient id="paint5_linear" x1="37.743" y1="74.483" x2="29.861" y2="66.689" gradientUnits="userSpaceOnUse"><stop stop-color="#605B55" stop-opacity="0"/><stop offset="1" stop-color="#4C4843"/></linearGradient><linearGradient id="paint6_linear" x1="38.401" y1="76.078" x2="15.541" y2="53.476" gradientUnits="userSpaceOnUse"><stop stop-color="#C3C3C3" stop-opacity="0"/><stop offset=".052" stop-color="#BDBCBC" stop-opacity=".051"/><stop offset=".306" stop-color="#A39F9D" stop-opacity=".306"/><stop offset=".554" stop-color="#918B86" stop-opacity=".553"/><stop offset=".79" stop-color="#867E79" stop-opacity=".788"/><stop offset="1" stop-color="#827A74"/></linearGradient><linearGradient id="paint7_linear" x1="75.599" y1="75.074" x2="60.507" y2="60.152" gradientUnits="userSpaceOnUse"><stop stop-color="#FFB92D" stop-opacity="0"/><stop offset="1" stop-color="#F59500"/></linearGradient><linearGradient id="paint8_linear" x1="53" y1="43.272" x2="53" y2="69.731" gradientUnits="userSpaceOnUse"><stop stop-color="#FFB92D"/><stop offset="1" stop-color="#F59500"/></linearGradient><linearGradient id="paint9_linear" x1="67.852" y1="40.235" x2="44.154" y2="16.804" gradientUnits="userSpaceOnUse"><stop stop-color="#BE3F45" stop-opacity="0"/><stop offset="1" stop-color="#BE3F45"/></linearGradient><linearGradient id="paint10_linear" x1="47.62" y1="74.963" x2="58.387" y2="74.963" gradientUnits="userSpaceOnUse"><stop stop-color="#827A74"/><stop offset="1" stop-color="#605B55"/></linearGradient><linearGradient id="paint11_linear" x1="52.641" y1="43.58" x2="54.234" y2="43.58" gradientUnits="userSpaceOnUse"><stop stop-color="#FFB92D"/><stop offset="1" stop-color="#F59500"/></linearGradient><linearGradient id="paint12_linear" x1="53.001" y1="49.521" x2="53.001" y2="52.492" gradientUnits="userSpaceOnUse"><stop stop-color="#FFB92D"/><stop offset="1" stop-color="#F59500"/></linearGradient><linearGradient id="paint13_linear" x1="53" y1="53.879" x2="53" y2="36.655" gradientUnits="userSpaceOnUse"><stop stop-color="#FFB92D"/><stop offset="1" stop-color="#F59500"/></linearGradient><linearGradient id="paint14_linear" x1="64.44" y1="48.911" x2="49.566" y2="34.204" gradientUnits="userSpaceOnUse"><stop stop-color="#BE3F45" stop-opacity="0"/><stop offset="1" stop-color="#BE3F45"/></linearGradient><linearGradient id="paint15_linear" y1="73.921" x2="98.35" y2="73.921" gradientUnits="userSpaceOnUse"><stop stop-color="#ACFCD9"/><stop offset="1" stop-color="#53D6BE"/></linearGradient><linearGradient id="paint16_linear" x1="106.001" y1="33.357" x2="7.651" y2="33.357" gradientUnits="userSpaceOnUse"><stop stop-color="#ACFCD9"/><stop offset="1" stop-color="#53D6BE"/></linearGradient><linearGradient id="paint17_linear" x1="98.572" y1="61.222" x2="92.729" y2="55.445" gradientUnits="userSpaceOnUse"><stop stop-color="#53D6BE" stop-opacity="0"/><stop offset=".251" stop-color="#51B4A7" stop-opacity=".251"/><stop offset=".577" stop-color="#508D8E" stop-opacity=".576"/><stop offset=".838" stop-color="#4E767F" stop-opacity=".839"/><stop offset="1" stop-color="#4E6D79"/></linearGradient><linearGradient id="paint18_linear" x1="46.84" y1="21.498" x2="39.225" y2="13.97" gradientUnits="userSpaceOnUse"><stop stop-color="#53D6BE" stop-opacity="0"/><stop offset=".251" stop-color="#51B4A7" stop-opacity=".251"/><stop offset=".577" stop-color="#508D8E" stop-opacity=".576"/><stop offset=".838" stop-color="#4E767F" stop-opacity=".839"/><stop offset="1" stop-color="#4E6D79"/></linearGradient><linearGradient id="paint19_linear" x1="34.58" y1="30.923" x2="19.435" y2="15.948" gradientUnits="userSpaceOnUse"><stop stop-color="#53D6BE" stop-opacity="0"/><stop offset=".251" stop-color="#51B4A7" stop-opacity=".251"/><stop offset=".577" stop-color="#508D8E" stop-opacity=".576"/><stop offset=".838" stop-color="#4E767F" stop-opacity=".839"/><stop offset="1" stop-color="#4E6D79"/></linearGradient><linearGradient id="paint20_linear" x1="10.444" y1="6.51" x2="45.984" y2="41.648" gradientUnits="userSpaceOnUse"><stop stop-color="#CFFFB4"/><stop offset="1" stop-color="#8EE388"/></linearGradient><linearGradient id="paint21_linear" x1="42.945" y1="15.905" x2="41.07" y2="31.242" gradientUnits="userSpaceOnUse"><stop stop-color="#CFFFB4"/><stop offset="1" stop-color="#8EE388"/></linearGradient><linearGradient id="paint22_linear" x1="24.578" y1="22.424" x2="18.329" y2="2.601" gradientUnits="userSpaceOnUse"><stop stop-color="#8EE388" stop-opacity="0"/><stop offset="1" stop-color="#4B9345"/></linearGradient><linearGradient id="paint23_linear" x1="43.665" y1="22.521" x2="33.251" y2="1.668" gradientUnits="userSpaceOnUse"><stop stop-color="#8EE388" stop-opacity="0"/><stop offset="1" stop-color="#4B9345"/></linearGradient></defs></svg>