<svg id="Layer_1" height="512" viewBox="0 0 512 512" width="512" xmlns="http://www.w3.org/2000/svg" xmlns:xlink="http://www.w3.org/1999/xlink" data-name="Layer 1"><linearGradient id="linear-gradient" gradientUnits="userSpaceOnUse" x1="46.602" x2="61.313" y1="460.332" y2="460.332"><stop offset=".322" stop-color="#a163f5"/><stop offset=".466" stop-color="#b074ee"/><stop offset=".752" stop-color="#d8a1dd"/><stop offset=".898" stop-color="#efbad3"/></linearGradient><linearGradient id="linear-gradient-2" x1="256" x2="256" xlink:href="#linear-gradient" y1="490.054" y2="165.632"/><linearGradient id="linear-gradient-3" x1="257.299" x2="257.299" xlink:href="#linear-gradient" y1="490.054" y2="165.632"/><linearGradient id="linear-gradient-4" x1="358.136" x2="358.136" xlink:href="#linear-gradient" y1="490.054" y2="165.632"/><linearGradient id="linear-gradient-5" x1="98.01" x2="98.01" xlink:href="#linear-gradient" y1="490.054" y2="165.632"/><linearGradient id="linear-gradient-7" x1="83.001" x2="83.001" xlink:href="#linear-gradient" y1="490.054" y2="165.632"/><linearGradient id="linear-gradient-8" x1="478.627" x2="478.627" xlink:href="#linear-gradient" y1="490.054" y2="165.632"/><path d="m61.312 460.333a7.355 7.355 0 1 0 -7.355 7.348 7.36 7.36 0 0 0 7.355-7.348z" fill="url(#linear-gradient)"/><path d="m429.938 84.2a246.9 246.9 0 0 0 -347.876 0 243.817 243.817 0 0 0 -24.972 317.082 30.007 30.007 0 0 0 40.883 43.535 246.744 246.744 0 0 0 357.709-44.548 15.791 15.791 0 0 0 17.669-15.686 15.641 15.641 0 0 0 -2.337-8.213 244.065 244.065 0 0 0 -41.076-292.17zm-350.285 354.835a17.962 17.962 0 1 1 18.089-17.962 18.047 18.047 0 0 1 -18.089 17.962zm381.583-69.788a15.8 15.8 0 0 0 -19.586 15.336 15.683 15.683 0 0 0 3.457 9.821 236.279 236.279 0 0 1 -23.632 27.418 234.929 234.929 0 0 1 -315.617 13.949 29.671 29.671 0 0 0 3.884-14.7 30.1 30.1 0 0 0 -43.076-27.024 231.818 231.818 0 0 1 23.859-301.341 234.9 234.9 0 0 1 330.95 0 232.047 232.047 0 0 1 39.761 276.541z" fill="url(#linear-gradient-2)"/><path d="m325.711 262.7.171-5.238v-.2c0-38.349-31.351-69.548-69.885-69.548a69.8 69.8 0 0 0 -69.826 67.251 15.763 15.763 0 0 0 5.226 28.8 70.033 70.033 0 0 0 119.924 15.986 20.1 20.1 0 0 0 14.39-37.051zm-24.925 31.01a58.031 58.031 0 0 1 -97.311-12.3 15.762 15.762 0 0 0 -5.18-28.462 57.812 57.812 0 0 1 57.705-53.232c31.887 0 57.834 25.763 57.885 57.452l-.095 2.9a20.056 20.056 0 0 0 -13 33.641zm14.829-5.491a8.208 8.208 0 0 1 -2.933-.547 5.99 5.99 0 0 0 -1.61-.82 8.1 8.1 0 0 1 4.543-14.875 8.213 8.213 0 0 1 1.92.234 5.841 5.841 0 0 0 .748.216 8.107 8.107 0 0 1 -2.668 15.792z" fill="url(#linear-gradient-3)"/><ellipse cx="358.136" cy="261.062" fill="url(#linear-gradient-4)" rx="7.695" ry="7.687"/><path d="m105.447 124.816a7.437 7.437 0 1 0 -7.437 7.43 7.442 7.442 0 0 0 7.437-7.43z" fill="url(#linear-gradient-5)"/><path d="m387.1 153a15.812 15.812 0 0 0 -21.254-14.832 163.026 163.026 0 0 0 -208.491-9.447 27.569 27.569 0 0 0 -36.93 39.3 160.173 160.173 0 0 0 -26.971 89.24c0 89.174 72.918 161.722 162.547 161.722s162.547-72.548 162.547-161.722a160.358 160.358 0 0 0 -32.979-97.536 15.634 15.634 0 0 0 1.531-6.725zm-243.93-16.188a15.552 15.552 0 1 1 -15.67 15.552 15.627 15.627 0 0 1 15.669-15.552zm263.377 120.452c0 82.557-67.535 149.722-150.547 149.722s-150.547-67.165-150.547-149.722a148.213 148.213 0 0 1 23.939-81.022 27.569 27.569 0 0 0 36.8-39.143 151.044 151.044 0 0 1 190.738 9.171 15.629 15.629 0 0 0 -1.53 6.73 15.813 15.813 0 0 0 21.266 14.828 148.4 148.4 0 0 1 29.881 89.436z" fill="url(#linear-gradient-2)"/><path d="m83 33.783a11.892 11.892 0 1 0 -11.922-11.892 11.921 11.921 0 0 0 11.922 11.892zm0-12c.075 0 .08.107.08.108s-.007.109-.08.109-.08-.108-.08-.109.009-.103.08-.108z" fill="url(#linear-gradient-7)"/><path d="m478.627 76.2a11.892 11.892 0 1 0 -11.922-11.892 11.921 11.921 0 0 0 11.922 11.892zm0-12c.076.005.081.107.081.108s0 .1-.075.109-.08-.108-.08-.109.002-.102.071-.108z" fill="url(#linear-gradient-8)"/></svg>