<svg width="179" height="179" fill="none" xmlns="http://www.w3.org/2000/svg"><circle cx="89.176" cy="89.821" r="88.948" fill="#000" fill-opacity=".25"/><mask id="a" maskUnits="userSpaceOnUse" x="0" y="0" width="179" height="179"><circle cx="89.176" cy="89.821" r="88.948" fill="#C4C4C4"/></mask><g mask="url(#a)"><path fill-rule="evenodd" clip-rule="evenodd" d="M91.036 115.207l21.62-21.422 2.941-2.916c7.267-7.525 7.267-19.84 0-27.365-6.596-6.837-17.26-5.125-24.311 1.23-1.299 1.17-1.754 1.754-2.107 1.754-.353 0-.808-.584-2.115-1.754-7.043-6.355-17.707-8.067-24.303-1.23-7.267 7.525-7.267 19.84 0 27.365l2.941 2.916 21.61 21.422c.938.739 1.402 1.144 1.867 1.161.464-.017.929-.422 1.857-1.161z" fill="#FF8086"/><path fill-rule="evenodd" clip-rule="evenodd" d="M29.678 113.719L18.757 97.061c-.009-.06 5.151-14.551 5.134-14.603l-.404-2.201a4.716 4.716 0 0 1 3.689-5.547c2.537-.516 5.03 1.144 5.564 3.793l2.184 11.859 3.965 21.482c-1.996 4.042-6.794 3.861-9.21 1.875zm20.424 7.568l-3.036-8.549.585-4.747c-.387-2.322 1.153-4.575 3.474-5.039 2.374-.482 4.713 1.074 5.203 3.551l4.429 23.753-6.415-2.46-4.24-6.509z" fill="#C38C66"/><path fill-rule="evenodd" clip-rule="evenodd" d="M38.889 111.844l-4.73-10.801.766-10.681c.051-2.15 1.582-4.077 3.783-4.515 2.537-.516 5.031 1.144 5.564 3.801l3.38 18.343.026.147 2.425 13.149-6.398-.869-4.816-8.574z" fill="#C38C66"/><path fill-rule="evenodd" clip-rule="evenodd" d="M50.102 121.286l-2.425-13.149-.026-.146c-.387-2.322 1.153-4.575 3.474-5.039a4.345 4.345 0 0 1 3.019.481c-1.703.843-2.726 2.735-2.4 4.679l.026.146 2.572 16.606-4.24-3.578zm-11.213-9.442l-3.965-21.482c.052-2.15 1.583-4.076 3.784-4.515 1.987-.404 3.947.525 4.953 2.219a4.95 4.95 0 0 0-.997.094c-2.193.44-2.7 1.334-2.743 3.483l4.575 24.922-5.607-4.721z" fill="#B57F5F"/><path d="M126.585 53.014a2.322 2.322 0 0 1-1.862-3.71l5.168-6.948a2.323 2.323 0 0 1 3.728 2.772l-5.168 6.95a2.32 2.32 0 0 1-1.866.936zm8.385 13.777a2.324 2.324 0 0 1-.549-4.58l8.282-2.021a2.322 2.322 0 1 1 1.101 4.513l-8.281 2.022a2.33 2.33 0 0 1-.553.066zm-23.993-17.837a2.324 2.324 0 0 1-2.318-2.198l-.455-8.514a2.322 2.322 0 1 1 4.639-.248l.456 8.513a2.323 2.323 0 0 1-2.322 2.447zm-59.205 4.059a2.32 2.32 0 0 1-1.866-.937l-5.168-6.948a2.323 2.323 0 1 1 3.728-2.773l5.168 6.949a2.323 2.323 0 0 1-1.862 3.71zm-8.385 13.778c-.182 0-.367-.022-.552-.067l-8.282-2.02a2.323 2.323 0 1 1 1.102-4.514l8.281 2.02a2.323 2.323 0 0 1-.549 4.581zM67.38 48.955c-.041 0-.083-.002-.126-.004a2.323 2.323 0 0 1-2.195-2.444l.456-8.513a2.323 2.323 0 1 1 4.64.248l-.457 8.514a2.323 2.323 0 0 1-2.317 2.199z" fill="#fff"/><path fill-rule="evenodd" clip-rule="evenodd" d="M115.597 90.869c7.267-7.525 7.267-19.84 0-27.365-3.5-3.629-8.144-4.85-12.787-4.248 5.804 7.576 5.331 18.722-1.428 25.713l-2.941 2.924-19.34 19.169 8.212 8.144c.938.74 1.402 1.144 1.866 1.161.465-.017.929-.421 1.858-1.161l21.619-21.422 2.941-2.915z" fill="#E5646E"/><path fill-rule="evenodd" clip-rule="evenodd" d="M37.005 149.527l-9.115-8.341c-3.234-2.959-6.846-9.108-7.86-13.279-1.505-6.191-3.311-16.425-3.896-20.252l-3.879-25.19c-.481-3.173 2.71-5.796 5.917-5.753 3.148.043 5.117 2.658 5.719 5.745l.034.172 5.753 31.089c.83-1.504 4.48-.703 4.48-.703s3.227-2.526 4.73-1.172l21.87 18.412c5.391 4.541 9.132 4.696 11.746 18.937l-.335.206-6.75 13.898-16.71.137c-3.767-6.08-5.95-8.634-11.704-13.906z" fill="#D19A6E"/><path fill-rule="evenodd" clip-rule="evenodd" d="M67.146 152.401c-2.597-12.685-6.251-12.994-11.437-17.354L33.84 116.635c-1.358-1.222-3.113-1.574-4.755-1.273h-.009c.017-.052.026-.112.043-.163a6.12 6.12 0 0 1 .98-2.142 6.547 6.547 0 0 1 3.14-2.253c1.892-.636 4.041-.404 5.65 1.041l4.179 3.526 7.034 5.916 4.24 3.578 6.415 5.392c5.392 4.541 9.133 4.695 11.747 18.936l-5.358 3.208z" fill="#C38C66"/><path fill-rule="evenodd" clip-rule="evenodd" d="M49.982 162.669L72.169 149.4l1.857-1.118c1.557-.929 3.595-.422 4.524 1.135l5.306 8.867a3.307 3.307 0 0 1-1.135 4.515L56.8 178.304a3.3 3.3 0 0 1-4.514-1.135l-5.306-8.867c-.93-1.548-.413-3.586 1.135-4.515l1.866-1.118z" fill="#ECEAED"/><path fill-rule="evenodd" clip-rule="evenodd" d="M67.147 152.401h.008-.008zm15.573 10.397a3.306 3.306 0 0 0 1.136-4.514l-5.306-8.867a3.31 3.31 0 0 0-4.524-1.135c-2.287 1.376-4.583 2.743-6.87 4.119a3.3 3.3 0 0 1 4.514 1.135l5.297 8.867a3.3 3.3 0 0 1-1.118 4.506l6.871-4.111z" fill="#DAD8DB"/><path d="M47.067 134.977s-15.424-13.69-16.38-18.997c-.272-1.516.22-3.704 2.93-5.252l-.116-.73c-1.774-9.615-3.41-19.33-5.181-28.941-.5-2.451.49-4.636 2.872-5.263a4.65 4.65 0 0 0-4.016-1.084 4.717 4.717 0 0 0-3.69 5.547l.405 2.201c1.803 9.307 3.476 18.668 5.19 28.004-1.163 1.198-1.95 2.806-2.27 4.42-.407 2.049-.32 6.151 4.831 10.604l13.26 11.464a1.465 1.465 0 0 0 2.165-1.973z" fill="#B57F5F"/><path fill-rule="evenodd" clip-rule="evenodd" d="M148.671 113.719l10.921-16.658c.009-.06-5.151-14.551-5.134-14.603l.404-2.201a4.716 4.716 0 0 0-3.689-5.547c-2.537-.516-5.031 1.144-5.564 3.793l-2.185 11.859-3.964 21.482c1.996 4.042 6.794 3.861 9.211 1.875zm-20.423 7.568l3.035-8.549-.585-4.747c.387-2.322-1.152-4.575-3.474-5.039-2.373-.482-4.712 1.074-5.203 3.551l-4.428 23.753 6.415-2.46 4.24-6.509z" fill="#C38C66"/><path fill-rule="evenodd" clip-rule="evenodd" d="M139.461 111.844l4.73-10.801-.765-10.681c-.052-2.15-1.583-4.077-3.784-4.515-2.537-.516-5.031 1.144-5.564 3.801l-3.38 18.343-.026.147-2.425 13.149 6.398-.869 4.816-8.574z" fill="#C38C66"/><path fill-rule="evenodd" clip-rule="evenodd" d="M128.247 121.286l2.425-13.149.026-.146c.387-2.322-1.152-4.575-3.474-5.039a4.345 4.345 0 0 0-3.018.481c1.702.843 2.726 2.735 2.399 4.679l-.026.146-2.571 16.606 4.239-3.578zm11.213-9.442l3.965-21.482c-.052-2.15-1.582-4.076-3.784-4.515-1.986-.404-3.947.525-4.953 2.219.327 0 .662.026.997.094 2.193.44 2.701 1.334 2.744 3.483l-4.575 24.922 5.606-4.721z" fill="#B57F5F"/><path fill-rule="evenodd" clip-rule="evenodd" d="M141.344 149.527l9.116-8.341c3.233-2.959 6.845-9.108 7.86-13.279 1.505-6.191 3.311-16.425 3.895-20.252l3.879-25.19c.482-3.173-2.709-5.796-5.917-5.753-3.147.043-5.116 2.658-5.719 5.745l-.034.172-5.753 31.088c-1.746-3.164-6.347-4.454-9.21-1.874l-21.869 18.412c-5.392 4.541-9.133 4.695-11.747 18.937l.335.206 6.751 13.897 16.709.138c3.767-6.08 5.951-8.634 11.704-13.906z" fill="#D19A6E"/><path fill-rule="evenodd" clip-rule="evenodd" d="M128.368 162.669L106.181 149.4l-1.858-1.118c-1.556-.929-3.594-.422-4.523 1.135l-5.306 8.867a3.307 3.307 0 0 0 1.135 4.515l25.919 15.505a3.3 3.3 0 0 0 4.515-1.135l5.306-8.867c.929-1.548.413-3.586-1.135-4.515l-1.866-1.118z" fill="#ECEAED"/><path d="M131.283 134.977s15.423-13.69 16.379-18.997c.272-1.516-.22-3.704-2.93-5.252l.116-.73c1.774-9.615 3.409-19.33 5.182-28.941.499-2.451-.49-4.636-2.872-5.263a4.65 4.65 0 0 1 4.016-1.084c2.545.508 4.205 3.01 3.689 5.547l-.404 2.201c-1.803 9.307-3.477 18.668-5.191 28.004 1.163 1.198 1.949 2.806 2.27 4.42.407 2.049.321 6.151-4.831 10.604l-13.26 11.464a1.465 1.465 0 0 1-2.164-1.973z" fill="#B57F5F"/><path fill-rule="evenodd" clip-rule="evenodd" d="M129.64 163.434c3.775-6.08 5.96-8.634 11.713-13.906l9.115-8.342c3.234-2.958 6.837-9.107 7.861-13.278 1.504-6.192 3.31-16.426 3.895-20.253l.766-4.962 3.104-20.227c.344-2.21-1.109-4.162-3.104-5.117a6.238 6.238 0 0 0-2.812-.636L157.83 92.02l-1.522 9.881c-.009.077-.026.154-.034.232-.62 3.981-2.383 13.949-3.862 20.02-1.023 4.171-4.626 10.32-7.86 13.279l-9.116 8.35c-5.753 5.263-7.937 10.028-11.712 16.108l4.652 2.777 1.264.766z" fill="#C38C66"/><path fill-rule="evenodd" clip-rule="evenodd" d="M126.072 177.169l5.297-8.867c.937-1.548.421-3.586-1.135-4.515l-6.51-3.895a3.285 3.285 0 0 1 1.53 3.5 2.987 2.987 0 0 1-.395 1.015l-5.298 8.866c-.928 1.548-2.949 2.055-4.506 1.144l6.493 3.887c.009.009.017.009.026.017a3.315 3.315 0 0 0 4.498-1.152z" fill="#DAD8DB"/></g></svg>